<mxfile host="app.diagrams.net" modified="2022-06-20T07:22:38.910Z" agent="5.0 (Windows)" etag="5J-CybkdJULnEtp_ptKQ" version="17.4.5" type="gitlab">
  <diagram id="7xLVLkSQUjzXjO7j6HO8" name="Page-1">
    <mxGraphModel dx="4382" dy="3119" grid="1" gridSize="10" guides="1" tooltips="1" connect="1" arrows="1" fold="1" page="1" pageScale="1" pageWidth="827" pageHeight="1169" math="0" shadow="0">
      <root>
        <mxCell id="0" />
        <mxCell id="1" parent="0" />
        <mxCell id="ir4OMrtsFITVhEPcW_xw-29" value="Enterprise Network" style="shape=mxgraph.ibm.box;prType=enterprise;fontStyle=0;verticalAlign=top;align=left;spacingLeft=32;spacingTop=4;fillColor=none;rounded=0;whiteSpace=wrap;html=1;strokeColor=#4376BB;strokeWidth=3;dashed=0;container=1;spacing=-4;collapsible=0;expand=0;recursiveResize=0;" parent="1" vertex="1">
          <mxGeometry x="-730" y="-230.00000000000003" width="1690" height="701.9" as="geometry" />
        </mxCell>
        <mxCell id="ir4OMrtsFITVhEPcW_xw-1" value="" style="sketch=0;outlineConnect=0;fontColor=#232F3E;gradientColor=none;fillColor=#232F3D;strokeColor=none;dashed=0;verticalLabelPosition=bottom;verticalAlign=top;align=center;html=1;fontSize=12;fontStyle=0;aspect=fixed;pointerEvents=1;shape=mxgraph.aws4.user;" parent="ir4OMrtsFITVhEPcW_xw-29" vertex="1">
          <mxGeometry x="10" y="311.95000000000005" width="78" height="78" as="geometry" />
        </mxCell>
        <mxCell id="ir4OMrtsFITVhEPcW_xw-23" value="" style="shape=image;html=1;verticalAlign=top;verticalLabelPosition=bottom;labelBackgroundColor=#ffffff;imageAspect=0;aspect=fixed;image=https://cdn1.iconfinder.com/data/icons/ios-11-glyphs/30/laptop-128.png" parent="ir4OMrtsFITVhEPcW_xw-29" vertex="1">
          <mxGeometry x="90" y="293.9" width="128" height="128" as="geometry" />
        </mxCell>
        <mxCell id="ir4OMrtsFITVhEPcW_xw-35" value="" style="sketch=0;pointerEvents=1;shadow=0;dashed=0;html=1;strokeColor=none;fillColor=#505050;labelPosition=center;verticalLabelPosition=bottom;verticalAlign=top;outlineConnect=0;align=center;shape=mxgraph.office.concepts.web_page;fontSize=19;" parent="ir4OMrtsFITVhEPcW_xw-29" vertex="1">
          <mxGeometry x="336.55" y="382.9" width="72" height="90" as="geometry" />
        </mxCell>
        <mxCell id="ir4OMrtsFITVhEPcW_xw-41" value="" style="shape=image;html=1;verticalAlign=top;verticalLabelPosition=bottom;labelBackgroundColor=#ffffff;imageAspect=0;aspect=fixed;image=https://cdn1.iconfinder.com/data/icons/hawcons/32/698712-icon-12-file-css-128.png;fontSize=19;" parent="ir4OMrtsFITVhEPcW_xw-29" vertex="1">
          <mxGeometry x="200" y="447.34999999999997" width="126.1" height="126.1" as="geometry" />
        </mxCell>
        <mxCell id="ir4OMrtsFITVhEPcW_xw-37" value="" style="shape=image;html=1;verticalAlign=top;verticalLabelPosition=bottom;labelBackgroundColor=#ffffff;imageAspect=0;aspect=fixed;image=https://cdn1.iconfinder.com/data/icons/hawcons/32/699756-icon-11-file-html-128.png;fontSize=19;" parent="ir4OMrtsFITVhEPcW_xw-29" vertex="1">
          <mxGeometry x="318.5" y="456.34999999999997" width="108.1" height="108.1" as="geometry" />
        </mxCell>
        <mxCell id="ir4OMrtsFITVhEPcW_xw-44" value="" style="shape=image;html=1;verticalAlign=top;verticalLabelPosition=bottom;labelBackgroundColor=#ffffff;imageAspect=0;aspect=fixed;image=https://cdn4.iconfinder.com/data/icons/scripting-and-programming-languages/512/js-128.png;fontSize=19;" parent="ir4OMrtsFITVhEPcW_xw-29" vertex="1">
          <mxGeometry x="439.99999999999994" y="481.9" width="57" height="57" as="geometry" />
        </mxCell>
        <mxCell id="ir4OMrtsFITVhEPcW_xw-11" value="&lt;h2 style=&quot;font-size: 19px;&quot;&gt;&lt;font style=&quot;font-size: 19px;&quot;&gt;S1479&lt;/font&gt;&lt;/h2&gt;" style="sketch=0;aspect=fixed;pointerEvents=1;shadow=0;dashed=0;html=1;strokeColor=none;labelPosition=center;verticalLabelPosition=top;verticalAlign=bottom;align=center;fillColor=#00188D;shape=mxgraph.mscae.enterprise.web_server;horizontal=1;fontSize=19;fontStyle=1" parent="ir4OMrtsFITVhEPcW_xw-29" vertex="1">
          <mxGeometry x="940" y="281.9" width="115.52" height="152" as="geometry" />
        </mxCell>
        <mxCell id="ir4OMrtsFITVhEPcW_xw-25" value="" style="dashed=0;outlineConnect=0;html=1;align=center;labelPosition=center;verticalLabelPosition=bottom;verticalAlign=top;shape=mxgraph.weblogos.json_2" parent="ir4OMrtsFITVhEPcW_xw-29" vertex="1">
          <mxGeometry x="760" y="394.35" width="80.4" height="25.200000000000003" as="geometry" />
        </mxCell>
        <mxCell id="ir4OMrtsFITVhEPcW_xw-10" value="" style="dashed=0;outlineConnect=0;html=1;align=center;labelPosition=center;verticalLabelPosition=bottom;verticalAlign=top;shape=mxgraph.weblogos.json_2" parent="ir4OMrtsFITVhEPcW_xw-29" vertex="1">
          <mxGeometry x="1239.8" y="364.74999999999994" width="80.4" height="25.200000000000003" as="geometry" />
        </mxCell>
        <mxCell id="ir4OMrtsFITVhEPcW_xw-75" value="HTTPS" style="text;strokeColor=none;fillColor=none;html=1;fontSize=24;fontStyle=1;verticalAlign=middle;align=center;" parent="ir4OMrtsFITVhEPcW_xw-29" vertex="1">
          <mxGeometry x="322.55" y="271.95" width="100" height="40" as="geometry" />
        </mxCell>
        <mxCell id="ir4OMrtsFITVhEPcW_xw-76" value="HTTPS" style="text;strokeColor=none;fillColor=none;html=1;fontSize=24;fontStyle=1;verticalAlign=middle;align=center;" parent="ir4OMrtsFITVhEPcW_xw-29" vertex="1">
          <mxGeometry x="750.2" y="271.94999999999993" width="100" height="40" as="geometry" />
        </mxCell>
        <mxCell id="ir4OMrtsFITVhEPcW_xw-77" value="HTTPS" style="text;strokeColor=none;fillColor=none;html=1;fontSize=24;fontStyle=1;verticalAlign=middle;align=center;" parent="ir4OMrtsFITVhEPcW_xw-29" vertex="1">
          <mxGeometry x="1230" y="271.94999999999993" width="100" height="40" as="geometry" />
        </mxCell>
        <mxCell id="ir4OMrtsFITVhEPcW_xw-20" value="" style="shape=image;html=1;verticalAlign=top;verticalLabelPosition=bottom;labelBackgroundColor=#ffffff;imageAspect=0;aspect=fixed;image=https://cdn0.iconfinder.com/data/icons/long-shadow-web-icons/512/angular-symbol-128.png" parent="ir4OMrtsFITVhEPcW_xw-29" vertex="1">
          <mxGeometry x="530" y="286.9" width="142" height="142" as="geometry" />
        </mxCell>
        <mxCell id="ir4OMrtsFITVhEPcW_xw-91" style="edgeStyle=orthogonalEdgeStyle;rounded=0;orthogonalLoop=1;jettySize=auto;html=1;entryX=1;entryY=0.5;entryDx=0;entryDy=0;fontSize=1;startSize=10;endSize=10;strokeWidth=1;" parent="ir4OMrtsFITVhEPcW_xw-29" source="ir4OMrtsFITVhEPcW_xw-20" target="ir4OMrtsFITVhEPcW_xw-23" edge="1">
          <mxGeometry relative="1" as="geometry" />
        </mxCell>
        <mxCell id="ir4OMrtsFITVhEPcW_xw-92" style="edgeStyle=orthogonalEdgeStyle;rounded=0;orthogonalLoop=1;jettySize=auto;html=1;entryX=0.023;entryY=0.259;entryDx=0;entryDy=0;entryPerimeter=0;fontSize=1;startSize=10;endSize=10;strokeWidth=1;exitX=1;exitY=0.25;exitDx=0;exitDy=0;" parent="ir4OMrtsFITVhEPcW_xw-29" source="ir4OMrtsFITVhEPcW_xw-20" target="ir4OMrtsFITVhEPcW_xw-11" edge="1">
          <mxGeometry relative="1" as="geometry" />
        </mxCell>
        <mxCell id="ir4OMrtsFITVhEPcW_xw-93" style="edgeStyle=orthogonalEdgeStyle;rounded=0;orthogonalLoop=1;jettySize=auto;html=1;entryX=1;entryY=0.5;entryDx=0;entryDy=0;fontSize=1;startSize=10;endSize=10;strokeWidth=1;" parent="ir4OMrtsFITVhEPcW_xw-29" source="ir4OMrtsFITVhEPcW_xw-11" target="ir4OMrtsFITVhEPcW_xw-20" edge="1">
          <mxGeometry relative="1" as="geometry" />
        </mxCell>
        <mxCell id="ir4OMrtsFITVhEPcW_xw-12" value="" style="strokeWidth=2;html=1;shape=mxgraph.flowchart.database;whiteSpace=wrap;" parent="ir4OMrtsFITVhEPcW_xw-29" vertex="1">
          <mxGeometry x="1457" y="255.95000000000002" width="100" height="190" as="geometry" />
        </mxCell>
        <mxCell id="ir4OMrtsFITVhEPcW_xw-95" style="edgeStyle=orthogonalEdgeStyle;rounded=0;orthogonalLoop=1;jettySize=auto;html=1;entryX=1.027;entryY=0.452;entryDx=0;entryDy=0;entryPerimeter=0;fontSize=1;startSize=10;endSize=10;strokeWidth=1;" parent="ir4OMrtsFITVhEPcW_xw-29" source="ir4OMrtsFITVhEPcW_xw-12" target="ir4OMrtsFITVhEPcW_xw-11" edge="1">
          <mxGeometry relative="1" as="geometry" />
        </mxCell>
        <mxCell id="ir4OMrtsFITVhEPcW_xw-8" value="" style="dashed=0;outlineConnect=0;html=1;align=center;labelPosition=center;verticalLabelPosition=bottom;verticalAlign=top;shape=mxgraph.weblogos.mongodb" parent="ir4OMrtsFITVhEPcW_xw-29" vertex="1">
          <mxGeometry x="1486.4" y="330" width="41.2" height="86.2" as="geometry" />
        </mxCell>
        <mxCell id="ir4OMrtsFITVhEPcW_xw-94" style="edgeStyle=orthogonalEdgeStyle;rounded=0;orthogonalLoop=1;jettySize=auto;html=1;entryX=0.027;entryY=0.337;entryDx=0;entryDy=0;entryPerimeter=0;fontSize=1;startSize=10;endSize=10;strokeWidth=1;exitX=1.118;exitY=0.25;exitDx=0;exitDy=0;exitPerimeter=0;" parent="ir4OMrtsFITVhEPcW_xw-29" source="ir4OMrtsFITVhEPcW_xw-11" target="ir4OMrtsFITVhEPcW_xw-12" edge="1">
          <mxGeometry relative="1" as="geometry">
            <mxPoint x="1330" y="698" as="sourcePoint" />
          </mxGeometry>
        </mxCell>
        <mxCell id="ir4OMrtsFITVhEPcW_xw-89" style="edgeStyle=orthogonalEdgeStyle;rounded=0;orthogonalLoop=1;jettySize=auto;html=1;entryX=0;entryY=0.25;entryDx=0;entryDy=0;fontSize=1;startSize=10;endSize=10;strokeWidth=1;" parent="ir4OMrtsFITVhEPcW_xw-29" target="ir4OMrtsFITVhEPcW_xw-20" edge="1">
          <mxGeometry relative="1" as="geometry">
            <mxPoint x="230" y="322" as="sourcePoint" />
          </mxGeometry>
        </mxCell>
        <mxCell id="ir4OMrtsFITVhEPcW_xw-57" style="edgeStyle=orthogonalEdgeStyle;rounded=0;orthogonalLoop=1;jettySize=auto;html=1;fontSize=19;startSize=22;endSize=22;strokeWidth=2;" parent="1" source="ir4OMrtsFITVhEPcW_xw-48" target="ir4OMrtsFITVhEPcW_xw-49" edge="1">
          <mxGeometry relative="1" as="geometry" />
        </mxCell>
        <mxCell id="ir4OMrtsFITVhEPcW_xw-48" value="" style="pointerEvents=1;shadow=0;dashed=0;html=1;strokeColor=none;fillColor=#4495D1;labelPosition=center;verticalLabelPosition=bottom;verticalAlign=top;align=center;outlineConnect=0;shape=mxgraph.veeam.vmware_host;fontSize=19;" parent="1" vertex="1">
          <mxGeometry x="-440" y="1140" width="338" height="280" as="geometry" />
        </mxCell>
        <mxCell id="ir4OMrtsFITVhEPcW_xw-59" style="edgeStyle=orthogonalEdgeStyle;rounded=0;orthogonalLoop=1;jettySize=auto;html=1;fontSize=19;startSize=22;endSize=22;strokeWidth=2;entryX=-0.017;entryY=0.455;entryDx=0;entryDy=0;entryPerimeter=0;" parent="1" source="ir4OMrtsFITVhEPcW_xw-49" target="ir4OMrtsFITVhEPcW_xw-58" edge="1">
          <mxGeometry relative="1" as="geometry">
            <mxPoint x="410" y="1280" as="targetPoint" />
          </mxGeometry>
        </mxCell>
        <mxCell id="ir4OMrtsFITVhEPcW_xw-49" value="S1479 : 172.17.2.130" style="shadow=0;dashed=0;html=1;labelPosition=center;verticalLabelPosition=bottom;verticalAlign=top;align=center;outlineConnect=0;shape=mxgraph.veeam.3d.vm_windows;fontSize=19;" parent="1" vertex="1">
          <mxGeometry x="120" y="1219.5" width="100" height="121" as="geometry" />
        </mxCell>
        <mxCell id="ir4OMrtsFITVhEPcW_xw-58" value="S1479" style="shape=mxgraph.ibm.box;prType=enterprise;fontStyle=0;verticalAlign=top;align=left;spacingLeft=32;spacingTop=4;fillColor=none;rounded=0;whiteSpace=wrap;html=1;strokeColor=#4376BB;strokeWidth=3;dashed=0;container=1;spacing=-4;collapsible=0;expand=0;recursiveResize=0;fontSize=19;" parent="1" vertex="1">
          <mxGeometry x="440" y="1080" width="830" height="540" as="geometry" />
        </mxCell>
        <mxCell id="ir4OMrtsFITVhEPcW_xw-55" value="" style="sketch=0;points=[[0,0,0],[0.25,0,0],[0.5,0,0],[0.75,0,0],[1,0,0],[0,1,0],[0.25,1,0],[0.5,1,0],[0.75,1,0],[1,1,0],[0,0.25,0],[0,0.5,0],[0,0.75,0],[1,0.25,0],[1,0.5,0],[1,0.75,0]];outlineConnect=0;fontColor=#232F3E;gradientColor=#4D72F3;gradientDirection=north;fillColor=#3334B9;strokeColor=#ffffff;dashed=0;verticalLabelPosition=bottom;verticalAlign=top;align=center;html=1;fontSize=12;fontStyle=0;aspect=fixed;shape=mxgraph.aws4.resourceIcon;resIcon=mxgraph.aws4.documentdb_with_mongodb_compatibility;" parent="ir4OMrtsFITVhEPcW_xw-58" vertex="1">
          <mxGeometry x="570.6" y="89.5" width="132" height="132" as="geometry" />
        </mxCell>
        <mxCell id="ir4OMrtsFITVhEPcW_xw-56" value="" style="dashed=0;outlineConnect=0;html=1;align=center;labelPosition=center;verticalLabelPosition=bottom;verticalAlign=top;shape=mxgraph.webicons.mongodb;gradientColor=#DFDEDE;fontSize=19;" parent="ir4OMrtsFITVhEPcW_xw-58" vertex="1">
          <mxGeometry x="566.6" y="260" width="140" height="140" as="geometry" />
        </mxCell>
        <mxCell id="ir4OMrtsFITVhEPcW_xw-65" value="Web Server" style="text;strokeColor=none;fillColor=none;html=1;fontSize=24;fontStyle=1;verticalAlign=middle;align=center;" parent="ir4OMrtsFITVhEPcW_xw-58" vertex="1">
          <mxGeometry x="138.07999999999993" y="40" width="100" height="40" as="geometry" />
        </mxCell>
        <mxCell id="ir4OMrtsFITVhEPcW_xw-66" value="BDD (noSQL)" style="text;strokeColor=none;fillColor=none;html=1;fontSize=24;fontStyle=1;verticalAlign=middle;align=center;" parent="ir4OMrtsFITVhEPcW_xw-58" vertex="1">
          <mxGeometry x="586.5999999999999" y="40" width="100" height="40" as="geometry" />
        </mxCell>
        <mxCell id="ir4OMrtsFITVhEPcW_xw-68" value="" style="endArrow=classic;html=1;rounded=0;fontSize=19;startSize=10;endSize=10;strokeWidth=2;entryX=0;entryY=0.5;entryDx=0;entryDy=0;entryPerimeter=0;exitX=0.75;exitY=1;exitDx=0;exitDy=0;" parent="ir4OMrtsFITVhEPcW_xw-58" source="ir4OMrtsFITVhEPcW_xw-99" target="ir4OMrtsFITVhEPcW_xw-55" edge="1">
          <mxGeometry width="50" height="50" relative="1" as="geometry">
            <mxPoint x="401.6500000000001" y="230" as="sourcePoint" />
            <mxPoint x="420" y="171.5" as="targetPoint" />
          </mxGeometry>
        </mxCell>
        <mxCell id="ir4OMrtsFITVhEPcW_xw-70" value="requête" style="edgeLabel;html=1;align=center;verticalAlign=middle;resizable=0;points=[];fontSize=19;" parent="ir4OMrtsFITVhEPcW_xw-68" vertex="1" connectable="0">
          <mxGeometry x="0.2148" y="-1" relative="1" as="geometry">
            <mxPoint as="offset" />
          </mxGeometry>
        </mxCell>
        <mxCell id="ir4OMrtsFITVhEPcW_xw-69" value="" style="endArrow=classic;html=1;rounded=0;fontSize=19;startSize=10;endSize=10;strokeWidth=2;exitX=0;exitY=0.75;exitDx=0;exitDy=0;exitPerimeter=0;entryX=0.537;entryY=1.09;entryDx=0;entryDy=0;entryPerimeter=0;" parent="ir4OMrtsFITVhEPcW_xw-58" source="ir4OMrtsFITVhEPcW_xw-55" target="ir4OMrtsFITVhEPcW_xw-99" edge="1">
          <mxGeometry width="50" height="50" relative="1" as="geometry">
            <mxPoint x="80" y="220" as="sourcePoint" />
            <mxPoint x="401.6500000000001" y="270" as="targetPoint" />
          </mxGeometry>
        </mxCell>
        <mxCell id="ir4OMrtsFITVhEPcW_xw-71" value="réponse" style="edgeLabel;html=1;align=center;verticalAlign=middle;resizable=0;points=[];fontSize=19;" parent="ir4OMrtsFITVhEPcW_xw-69" vertex="1" connectable="0">
          <mxGeometry x="-0.2402" y="5" relative="1" as="geometry">
            <mxPoint as="offset" />
          </mxGeometry>
        </mxCell>
        <mxCell id="ir4OMrtsFITVhEPcW_xw-98" value="" style="shape=image;imageAspect=0;aspect=fixed;verticalLabelPosition=bottom;verticalAlign=top;fontSize=1;html=1;image=data:image/webp,UklGRmAjAABXRUJQVlA4IFQjAACwSQGdASoABYACPpFIoUwlpKOiInWIcLASCWdu/C0P6Zx+qPSkKIgNC93KMh+qf1/9w/Gj3zLL/gP7p+tvaV5JyMfYD6pz1+hn9aewb+lf6d/1/soeY3+j/9n1sPUV/xPSe6oD0ROmR/dn0t9Ut+X/3D/O+qbx//a/a57j/ivYtYQ62n5n/j/f39Aew3gBfh/8U/vn9E4AMAH6N+OnuqzTf2PRh6Xd8yeU/1fI9+1f7v2CPpm7mvpXhszRxjxGjjHiNHGPEaOMeI0cY8Ro4x4jRxjxGjjHiNHGPEaOMeI0cY8Ro4x4jRxjxGjjHiNHGPEaOMeI0cY8Ro4x4jRxjxGjjHiNHGPEaOMeI0cY8Ro4x4jRxjxGjjHiNHGPEaOMeI0cY8Ro4x4jRxjxGjjHiNHGPEaOMeI0cY8Ro4x4jRxjxGjjHiNHGPEaOMeI0cY8Ro4x4jRxjxGjjHiNHGPEaOMeI0cY8Ro4x4jRxjxGjjHiNHGPEaOMeI0cY8Ro4x4jRxjxGjjHiNHGPEaOMeI0cY8Ro4x4jRxjxGjjHiNHGPEaOMeI0cY8Ro4x4jRxjxGjjHiNHGPEaOMeI0cY8Ro4x4jRxjxGjjHiNHGPEaOMeI0cY8Ro4x4jRxjxGjjHiNHGPEaOMeI0cY8Ro4x4jRxjxGjjHiNHGPEaOMeI0cY8Ro4x4jRxjxGjjHiNHGPEaOMeI0cYpbh2KLyeCyeMj+lb414HlprwPLTXgeWmvA8tNeB5aa8Dy014HlprwPLTXgaxZU1q+l/zvTqMMDy014HlprwPLTXgeWmvA8tNeB5aa8Dy014HlprwPLTXgaxpZEcUB+KOSt8a8Dy014HlprwPLTXgeWmvA8tNeB5aa8Dy014HlprwNY0wLibaA8tNeB5aa8Dy014HlprwPLTXgeWmvA8tNeB5aa8Dy0119b54cD43xrwPLTXgeWmvA8tNeB5aa8Dy014HlprwPLTXgeWmvA1jVeLC4vA8tNeB5aa8Dy014HlprwPLTXgeWmvA8tNeB5aa8Dy01dwYaqYa014HlprwPLTXgeWmvA8tNd+4FhipIfYmjjHhWXTXgeWmvA8qIYG4LDWmvA8tNeB5aa790LI6pblBGjefd/Kl7+HMDP/wOoFqdWe0Rg0J1Y2vA8s6+/p1Z19bISAu0JMglau0HFqFEy2KP4l4MlwkqPoQ+0DkD35uQzJQDgPjfGCtuhzE/yrbg5Kw6XwHm4/St8avIZ3/8at6TuZThv2MhplLzZ32IazKb4JaSdpSgTTXO6PX9rhl6SOj4dMkQQVdwqDZKodb6mVvjVmebjO0HtD7kunu8FVDzHMSQyVzXgeCs5N7eEgmHe0eXgZL/GXF37oWSkXDydTqVYncKM+jMJTlXh4HlnX39OrOg9kATP5jnGmbqRkDiUKkVFbqXHQJKRYdSYC4z5nOZIL7DeokVNxkf/1bazsgPKfVr1RWLxeQGkyzxL2Sb8aZcNRhp6PW80ZGvpS28dPK4+JWvD99O7yVxyt4HlRC4reDIdCcv2GXTzQ9c4HHrwM6tFswR9JQs44Hz27vNNfH1/gGz2dBy0MwisH4AsaUOuRrXcEC+GeziTI2k2/V4Y8RpMdV6Tu836jRvP6AEJ1prwqmG7QYBAFMJnX7oE0uTvMf6VmE0yfvdeoupBvjXhWJn2t2NowkxnCVygZX1aMLbXelgA58PpicXFE1l6bRLW3sox4UPvp1l6rSEjmiGXNMoqefYmji9+N0sZ4LDWeKHrxUJ4OP3lRC4rlWrWBu426HNVY02EcVTDU8xtF5Tvlz9RKOOzgiN6y6lA+T3UMljLX3QURQM+VoFetxIXLtd+uxu2v9kb2nFOLoYqwhcDV9EB77ebTXgeW/hEv8ueph0fGsIXGoHaUZmhEHC/0G5hTDVEMDbX6nbABWuv8ThOCh847SbRjVxakFtIf4OpTRUjNtMbNVEuJUQOMUNBTybo11G1pTj1exOXNQ0DQNC5eH7zdN5G/5lOBNAD3282mvA8t/CJf5c9TIQ2hs1GRfDge/jVeKDt9UP3QKl7cdh84V6HcCVvZ+VbjQ9xx5tJlfor2vLy/XjJtNvEyijYE9mUjCs0WHGZ+kmWJ00xjNoLjYqcA8sNTtPB9iaORcnTRGBhqphqiFxXcD38arxQsca++5amK/J4Sr56KGY3t7l2km2zjTRyLk66zliVgvuBQkMFhO5Ys2sDNLfGpDvsUkAHoF7ZUIV7oBsxqeq1GmDLmmUTgOLUKJyMyoOoYG25+4n27G421tCGH2rV4m4AaFdZYaohgbb0LA9EXEtxo4NO3gSdZ+xbTaY2apqZM/tER1y03+7a0TyUXOt0aVkcCyC5h/6ptGoH5fJ+p6rS4BpktGml8fpTA8tNfsXmz1T1Pkl9Y80Xt87IyK2oXFdwYb4Dyc9XmzQY4YdLTXyTn4lQAv2RfhO8+B4CkL8+sOTpW6zsjluY0ViFGDFWQ2LL3SZcTW8Ngsl0CtIUu/GbJAdgQBUl++bd4hVEdHEjJPhrwPKegAKPlSds9AI+oTF7fgNj9O7I3neCoNIplJ8FTLCqZyW7SoWJi3QV/DKM54GaokqBqHde82zHnsJaVP5WAmLyhqvn0AvWrQd6ViE8ppdfKZT98q628jt3kKIt0ZfAnK2Wy0onBarhnpN/dUE8th/Pg5gfUJk7rF08fN/rQu850jJjQGG9GuyuYXPe/GVAjDZo6YXLk/f/+Mtnu2YmWxThWPBpRDfae11/1l4A+3HZY4hmd6CCn59lCM0G79ec+CsCukz0o57H8JVLIawonCIZIbkphbCRAU+CyO3/+WEGTwmyeHdDhouFCibaXyi+tDD8DzzG8gamaqhAdzrrSUgbO3Y5dg0vNd+7UvvgYLcaqytTnS77zLh9jZEO+px4jR+Y1jkskoZNTTKhC3ZU/s0pbMVQH2JpMZr2NSAkVb1JkWLCAtcF0IC+X4EDU+mYD/2WNgeWmvA8tNeB5abMqqeCI1RdkHTd6wHJzlVprwPLYezEPJj1U/0cVtVoni9gMatNeB5T74255Q/FFa8Arg/ppEWoUTRxU4VfxuF/CCcx4WSAhpqGAfYmjjHiNHGPEaOMst3y2f6VvjXkPq4/EaOMeI1BPAPLTXge1jbbjy014HlprwPLTXgeWmvA8tNeB5aa8Dy014HlprwPLTXgeWmvA8tNeB5aa8Dy014HlprwPLTXgeWmvA8tNeB5aa8Dy014HlprwPLTXgeWmvA8tNeB5aa8Dy014HlprwPLTXgeWmvA8tNeB5aa8Dy014HlprwPLTXgeWmvA8tNeB5aa8Dy014HlprwPLTXgeWmvA8tNeB5aa8Dy014HlprwPLTXgeWmvA8tNeB5aa8Dy014HlprwPLTXgeWmvA8tNeB5aa8Dy014HlprwPLTXgeWmvA8tNeB5aa8Dy014HlprwPLTXgeWmvA8tNeB5aa8Dy014HlprwPLTXgeWmvA8tNeB5aa8Dy014HlprwPLTXgeWmvA8tNeB5aa8Dy014HlprwPLTVgAA/v1EQAAAAAAAAAAAAAAAAAAAAAAAAAAAAAAAAAAAAAAADsI8RuOvxUVcYNw693Z5T2++cXXDztC0GVtzsDeTrAGet65xc/jro9kjwZXpeS6U9hRUwAAAHg7aFDNb4ZviuYDe5XZq4TpzFJZ2yPQBsBxbKF7NtlXRZIjgEVW7FNfiLsAAAeHZGnFJGuYOZW/GuW98mA/51FUAAAAhQ6jgAAAAAAAAAAAAABkcLcZ23XQlBTlnBGclFhWqLvIAAgJnHbTnyNfm38agKCyVZSaaewXdG5jdKyjW6Qmnp01IRraOyeShzzGWKw4CyLFicLC/+hfdxRszfxwizSMr/tfx0/UwHuwKTrylDZ29fjnRTu4M0DoTKuNQZPySiXcyUQ9nFnX/CGcLMo2mYDNASn5Fqj607yREj+TbTkGPPPKR7rhe0shX5P/BiH8to5Ny/+I34/Z3ua7lutfRsHpRd7FbIEDgjZxn1zAT9rtxwfHvfgh+QzUWeSFfQN4u77syoN6pztQAhuaWx9dwLlsAq1SEb1FlPW/faHTBRBcnpxMjg+uwSoTkpAEtzwJYzJKdmMcNQmeNSCVxmkq4Bc4Zpvstu1IA2iymhZwG/qXwx9nwpuR7iMFAjU/iG++oMvxL411S4TSbt4tIx+93Duy0bL3iWfDc9wKv8DirLxofb1acuYFWKQh93xB7U82VRu5cesWxnNd/dT3tx3/q4kr2V6Y/8iYzV2ZfvFeg6kGxhGt00AZ2if/hEOgoW0bVNHh48QMlWEOYZvY07diUyT4hAibWRwbEfFGl9HshN9VsGPTI2RlWCP8GKMOuSttCfSwok5BItbKYovuGG5kkiwdbGYJste2wUF5XtmvsYnrXBQBJ/tvlk+WrUzSpp3LfSagPXiBu03oDVj55j5nCuLYSk3Off3Cen2iC9cTrN9z/XJH/VVYlv5X0Gqeic5+WE5HNVfJyQEKCQM6EBf97j7Ph4xuMiPo9OVxfYa2PzKuO95tN8ah9+gzddWjGG1m2YGGpbw7r5zOlK2Ld59ctsv1T4cB6Gt7PmkB4GlEJSajqjkfXD8cJVW6rvPKlMiyp5GuilsUxaAgFF86v+Z2WxmJQhdCPlrAp9FeyYK6hC+GlCZKJX317bxR5pw86HR8atUoMCBjfvi8uyvL+uHuBMRgurUwrh33tt/PVFfI6lzu6m8yzN2Iggn4AbXIkFtvDP0kc6/rDQcmEDfXLx+Aq6fzYt5XM4mzimIUlUTCOvKVZ16r57SLPzZZbqh46A1pziv9kIuKtYsEYnDsQHWcbK1PfENInBOa/cBGxju7bt5I969SDiE8JYfVNU2OsbjrFVCrbh/OwyFG1+YjO0liFVtBRDjE0enEc1kYDbXmrnKxnAIVuxB7cPCxhdcznkJTk5WtG/ORcNpf01crwiT9g7+SppAvI4tiL9gmzb/epwjfNIFq9/mPjE1UrKfk5p78h+ngcx6ecA2KpfWE/MTNnE4xBf8c01DUCLxgQS5J5GKL5Sek9DnLguf2EMujRgm30nCGojMYDOnhZUyXgMMF+fmQN+9DFaxEVW68XsUDqOuV8OrMuxFV6PRJPxT/NDvIweku8Jjcm4LeRc5ZVhBlGLYCEzWesWH6buPGOEqvXdfXKPN1N4C2/XU2Ux7a0l7+Z8cwldqRnQm+uNiS3scPb+CtahaCaEDa9dTzEsZ2+K+zPAQ5qp9IQhVrGyae058Lv7QqRViLs9UOSndPkKCADLxLuyljXBOQlj07TduP1oUjXtKGyest0sgKYKFg5pB5Vm0ur/N6SBZbThXMJMqjwpPcEr0DhX6imDd8Rbgp8fywYTxxR318GgpD7TLuTFh2wjXZ+tVbNiDRlZuD/iFz43/pAZL4SVDPYMw/zQY7llGREJAsXJzIroYx4uzPIvzE620RcgRcFWaCYGZJ54p4DGvkyjeMNgwG0BzB2T2Zh0Ia6+Oij/h5r92cIS3B1S9eepFjrPLi8CO+wg+EWYgxuEjR8ilzk/giDJcH60/sdzkJMME3De4Uc9NuLjarD7R/ms+W+GyLAz/tlnbcQMmv1HS30AiLGz1iwGC99SoKZst9cO4BS/cjGR5gd1uhQFnB7q9uZIsCd/dyMQKbbL9+HmIO3xnK2Lf89z4hctRy39W6a9OohTkdxE+fpYmwDqzHIc3aY5pl76vfsvcr+qAGUMb3B+BqXMOKegA0BPdvQG5UpPyu3SLItbTmphcbJa4GGIlGTX8Jaq+afS3QVeysTNCxxr6yHyiOlkctrSrLRs2lgZCyOUS+dUD7lKqoh784lr3eVOCnYeO1oFt4pEv76SfkLl5kxBiMyAP/BKIqg5BKqq5MFEhVLHDP1yvwElrFMzb46FkOY3Bj9SCOeTC52kn5G67hXlrGcUrfY20AwvI1LdeliiJMLbt5z4Xadm8o0YKWGHdAQcea6WEzx8NlBND5UcviE2qDE7NOdDKQHY95pNojBEgdTbNXxTrF7jdCqybm1SwihIbawlbIKlB1JrxPe7EfndBit4T83T3lRCYrn/zqbHz9TOfyMvRaZQ94hGa1HirGbZ6SlQxO+f6vfW0MobdA+aeKdFTzhJnAmstyUS/8HnkKSIFiHedOYmB6mOaUnjVaxQz7sdgCPUb0CnETKz3q/Dacz53hcv3B5XbrVqlxd1smAse4NOJlfyaWaCp0BUXBrxxDB2orlsrbst5tZeuBPjBc15vKcrAZ4V5XEo/vNZr7czApxopM6hKsvLoE0AmS6PEkHOFepvXmI0Hu8AOVKUEkJCa+lchAmuRtpQP+K/XeheKRcmhraXbAxvuIoE3oCAH6jdI9vr6537g6FlpzPR+60PU1oQz57qD2lzfKRmnwG2v9mdvB1GfE2kAwhGSR3bJAm2oeYhLIVql8pte8UDkjNKdrtEDKsNgR6yeUlgXIkCHuyA642w8UQGdAoPbfYYZ7CLAmHmc1X8gXY9Qa5OeQM5IiCvzIMow/tebkskMCwkR7Y+VP49mfzQUKcd/gzQwpL+ibcpuUTfM+oIWCbWVX4CN6y6Z21LIIghH1PqF3MP+Z/6EzrXPPsn9AgSoSsftTpBQEOZkhSOLDsPH+pbMJy6k30q8G4ZRpgzUilLTsai2wlVgQorziAEEGBspxmPm8EDJG6wbUn/RZSFHzXSCVupiAT2A9bLncWTjkdJ2fo6I5YIRqw5x44KIlop1Cyv95bkjcBIWxcWCZLX8hCMGlMdnuyayT6DJ8y74jWAQWCOc/ijWUWQ54mKKREDn2ndf+uMH9Mmdk8ZIR4YEMrH6Ey6E74fkRvcw61iPB9ipSsERUtiei0UznFD10XrADeCGEuLRfZjcZ5mBGXkJRwBo8DVmPhqnbGIrjsE5TbAM0AlZRVK+l7Rj7js8EstaKd+EfM5PKkjIaKMGuZGVYv6KE6+FOMPTph2DRDuoiqbA8+64Y6c8w0L2qL3Zdhhg8/7nTeSctcAE/qj4PQeZIdN/qkJpZBTKR2txUMPzsmBeHXBwJ0wCaMQpX4jM/WbbpWEk64CM0qAf/6yetCXlx8d4QEC4GUMfgB0vk4JAukgMx6NHXhOLbDfpyLdULlTym0svDmJ44Dijo3uJFNwf5D9KsGk1sZSx9ojgRAiXUCQKZZzdFY8EICwd1Yg9yry4kKhHB9HTicrN3IbPaBmabaHar5TVSyIJJ8uThn+wVfM/UatomIB5BO3N+O6e4ZgYpXZHA7yjld2+3y3cIlz/M2i8bUJLG+a+5FmjHCAmvpV9wwPlDy2mqgtIL/cz/+pGGR7QKvw1kPmsOJjBe73qKL+y3p6EwCtuGeK6QedlDPSfyNKD6UkXdU4rRNA62o6HkDxEO47ZFTTplDlhK3NFg5JjBxaP8Y5Ljl9HkUkHVw32LVGC+YLUs/FO7X47+nKe7mDcx1SzT2CDoSWN8guY5mr32RAMtU8tP6HpKHhMMgJk8O9F89llfhcyX9eTe2+ckC4MjGIsjc644JwZe3DH36WWzVnhd37YNRWqfn7Fx/Faof/O0n94DZ3tV6hmbhtAKRQNBRa1n8Y8KcLi7SD+KDfj1JUw99dKjSK0PZyBPRjsX976h52DVr+/DEPrcho6KHk7E4zjlZlg87kKZWCYoEUQBAfZAwRQEmTVWgcUnGzGa3Ox9sAXMoPAcsXhypbVZBkRDZsAWwG2Yh9Rba7cq1aGHV2HlT/z4d8//MZyc064P8oO8RxCbkPJjAoGZFAPlLGeE/AbYcjmxG49YXEdmgrGRTMur+w2immXMGlexMGH0TPnoQtF5YAotgVUQSOC5rGUrQOxs9gn/c49a+AHNbdPCo4lu2grN4Xo9z6Zpa5pboO/5tEnKjMLpYusMX/4zpF9F1Lu7YF+ys3hTlKYbd7rLnhvPdmlmD0PR2a6YdGjB7BsInFcoz8X62QZUhfrdGPe6uw4J/J4wrqa83Z/ZrtovrihhYsrJ69zNNdNuhDbAziSRLfDqKgCDzfCkFRjkaXmW/Z8uXigzkxvc8O1ZuFPOyCBTy80l+2gsMseYJoSeqmOtm7rhwxPCilOygHfGWFd/fsUT1gk+/z1QrMLkSTwnyNEX+HdaH4P+063z+BebkevhzgBbih53SXBQTN8Zodz0k+IsWbd0PB81wR0Me9jilKpZHZMeUP0wsSXLuje7NIQcY7nAt0/gzSZ6IpjbyFbi9fXbQOlhEImcfocEF6ji6NFmwxwZ5GqeAIOKr1voWyYGYQslER2T8ImD1bmmBl18UZtgSwdc9xax4LluIaa097unLjxStHQCcbslaovbL9JDBOiqkcdMzoDePBuTxyK+CORrBdrtZcYgWizlZo4rH9lAetrS3lNLzeF/ZiUGSvjrLLmsea0f+Y8bLzqM0YSHURq9lHptVNlgiodkW1CRVgV6yB+gY//sMJZE9Ziza1jitpoS7lkdMqEdvhdQwv0iMoK2mVIe/oK+JK+77+BEUCsZky9M/e/NrjRiHTZgW2qv92+RIOm2o+nYzOhN44ZAUXinPgnryTOTUNghr/vq9hLuCTf6u7P4pLZjawuDaUF3/XjBtH3yPN/1D6WSS05LmepFWJbeotbOk15atqZcv2GreoqR999DXUdhrQ2XIqlwz1bBr1dWXezgJmEksKWHUbPe51NjWp20VEMYFHqln2eaYlwYqwedTh0aAgDGPX+LHcdgp1LvfpTsw/F15gd1WO8VkA2Ws+sroAFZ3dTFQ227xKk6rsKFk6wu9m6iVAThYNXgT+gzyZc8LMmx2eguD3RAgkVnNyqB4Sk6pKk+kWi+93qroUs6uAABuYB6r6BgT+9ALTpwtVyAsNSs8Y/me7zzo9Wzh3Y9ruWInos9XthDp3O31z392gvBnEidppJLKQXNXRQHn99UOqFwMdMi9bqklWWtOGHrARxX7rU33pdcVb07aqXCBnz9qU6yBgMV2ZXqsysnNrzOQAtnjV2xvNKA8DrrKSLux7zcrdA4PublCXfpILgd0T/LnoRhaD6UIACvo6+4agBM+sPoOQAEHqwC9mFLgd3RMIwqW+QnDhp1v/Tmiaxlsjq0xZAzHz8FEIG/xSxFqoZv29H6CifY7S+XqmnQN8Nvn3FqzemL9aPbgMcj+S59J+7/PWFwOsAGjTCiMdgLbymcX/ceJVih523/gkDKtXoUBzLrRQhWqd+QGvUncvkDQVhJFDi6qkkGxk/BvVr9nTqZZpjmlY5D8153twhhNAakrw5JenAUTN69Uh9rEViK4DML6yOf6zHApjbQ9o3nEM6eZtvGqzDaHf9K5BHOHLcZVHUlYIBqK28ZDlFWhddxBeAuZC9LWolkSLp6AP3wd2R/YkWH7sB18eoSe65i80So6bbpWTKvc7svI2gxyJuzOyCBTy8xuGL7rtjhrH4u7dBxFq/aEuBdqXTYdmERcnXCT6BOYI4o2M9zg82XuWAsyUW8+bC37e5VXexk9T2G109p1GV5ucVw4U3dDIHfUgw/VsOcxJXOZdF5p0BhBP3UHph9/MI30H2zuBveDHIfQFU08uPgpkkQk1EqPpcRhyNNHUrjob/6tH4UFRQNqRV9dGEke4MOpJknRqZiiLxHMBDUrcrYHKz+/cNm42b+c8MGqkptLuZR2bHHUBz1gxx/tfpIFq33F8Fasps4mgB5VmShXKuKhbr55fJtyrp+3mHOxQymolM7OilmPY0oxKLHr828MfIa7krLZ/R/OgiSLf2zUZn8890zQkrxTqQ4rQyhB/0NGOWAYX2I4vmOF4PPe9adaDFM4aCxtj6cZSdrWa4ShbF+dkgn1GWNaf2PFe2sJ5I/2MGFCLRLT22IVCMU3Mfuw+4nbD5hLzKVvqnVLz+7zXxB1VjlXm6p1V4jn8Y2CxL0RHvC+VOAYulQrP/5LPptYrotZup4m3yitMHXk1yO5g704tCo47NJZiMoV8nSmpG4YcDLqCwl8hWsOMPn9wqlTTttD2XXSRbMKlBam3J05GUEkWPyQO4JQyxPxrHaLVFR5AT56HUl9xVfliielPwDw7WMaMdeLfVw7IiNQ9yab+42iQEwypujjTRKW0D8twOPXHH75lyeWrqDgOpamJawQDv12rVZqdxNRARLQAtB9gHqRGAZb88PP+jilXzFYBFTP7LN6fvAVXC/lLqFDaHKkGL65whl0EzTORe9iBHMWCIIHsYhH7RBX1HrX3U41/4PoB/XScpKHKOCX2HHG5tMffIMKMtYjvTwrKq2OfK218WpWq9jMIiBWf3r9OZ4j7jLfARH9hLob6c25tjdLRqTssz+4P6qogGUEr3Sy+hs/xg4nyXo/+75EoSLA/fj6wi3et5sZJv2B09fNd8CKCQ3OIE68/FtkE9+vSdJwUFFD8fXfBNNVGvLRPmkfoe3KkNLA5tUaigfATXRc7IIr0lGQ5TPnx5noAK48pLwoBZz3mbJ7E8JKTLvVu9QGYoogpx/JsiNPZM3DEfRfDoR2jtOo9FCr0qknYIcJDc+RKs0XJ7/Qj5wLPkqwSfVdlpRxGRtCoGcyaYEYs948gDj7y14k+ozAQaw/nRtPwHWNgTkQhhNt24TJlxRuAODI89/HetQ2yddTfEp4TV6aI8Ufy/JNd2DnXeSLGquoPFW0YOfZaEeE6QxFgt4pz5JVDhYFmL+aED+Yq/377cTTt5p1NRmYLF8Y9nVvwklXiLLFTrUNjJc/KnaJg20MCuYRFdIbigAPwGp5v9m3kNLXbuZhIZdTNRX6k6ezXyHpKRNL7a8wwHQJ73ajp6Y9GgBcyN+ryl4uSf0TsZh1p2Tkwnnu8hHD7nC5ts2Fs49PaD6skZVaolUN10dn2AXNZQ0nDPNbMUvRS0FJ2VV1H6y/d/S244Lq7dnWAdmigUg+OatJk0jLEjlpjeNXDy/q5V8OAPlpghXKWxhpLDQHH1x6CZwknViwnnFGqBcM1yTIZleRs4BynGY+bwYE5CxKGr+18+7m4Y8Y9c1QvLybRi92ItO6tlfJ7ACSwrJS4N7h728zp/nEZpmMP2FF0jpxKi+zbBHXhC20R/2FINHnTno6Mi8p45lu7eYJWlld0P3Fa9wfowsgY9xUqQleO/YAn5fWoEPPwkOQy7B4RjPoOCyK0KFLQOt0vj38dLh4gpB4n3M6URh8CmKlZ5dJIXfSSvVfJwVaQItUTxj6Oj0ZqqNU9+K1dKby6kJRTWY4g34ZwRVqiZCIam+8cUAn5TyG1Cry0V9L7AAkyrwuuYWj6cL/8TLP6ztM+gv627xG1Bhnl4tasV7oKLbroOEycGgrGR4QumDlJQbpkK+UUnS+DcZB4EXcd8c2a0W//tclRl0ijIrJXgVgwLEI1MBYUe1VgAoqxebaEbrLM039CwnimxPtrG4ybRP3B1rWgWXbSdZaIOTyMt43LgFkDvGVnmKdFEzK5IufHetE8yV7MDxfbRMnDnfEKK3be/tiN5ZCQlOfFkziRlEcatU5nTwnTAiaK1mfwWJTgnCeCxdwy3abJrL6mGnnEAC7FYSlPXknb6vSsaiWwaX+74hI7qofUjHkRtu/a38O5OjzOjSOw1aVMZ+NxhR4CBysUWAnB26//6mQk5kduA5UGdRgdRafUE1J8VW6xqPXUKoymFa6IeSU1f+65v7w65BnSa1vUXMRYZzI3GRixvt+k6H4EsAuA/6XIQ5DsSL5IM3b5pIkZnNE/jKaiYv8jAAXiyZKUGOwmnIMD6RNftVO1vBy3WpHwdEhg/zJoAsmwyTp+pLFs/ted6/ekARZPAVDnwZi18+izrTPvXR8wu9K5KkK9/bry/+2RCEImFBA9gOvHfvcjYABRAmHK/Ni+UXq7m19vS0PjAFSzAXiOiIr+lh2Igdt8Y1hdqti7v1wKGEJ3ZptiRUyrS4+n7KvwfjmwipC+umZ8kDRod4G/7gymaOaHrYWKIwBSnLSRhQDDTsy8R3XQ8fXza3eMlJkIw92FGiprKDDu+BQsfZW6b4ncfp8/crEqb/K/wewphDTjFgubmYYdRxeKJwPQdjrgAAAAAAAAAAAAAAAAAAAAAAAAAAAAAAAAAAAAAAAAAAAAA==;" parent="ir4OMrtsFITVhEPcW_xw-58" vertex="1">
          <mxGeometry y="180" width="320" height="160" as="geometry" />
        </mxCell>
        <mxCell id="ir4OMrtsFITVhEPcW_xw-99" value="" style="shape=image;imageAspect=0;aspect=fixed;verticalLabelPosition=bottom;verticalAlign=top;fontSize=1;html=1;image=data:image/png,iVBORw0KGgoAAAANSUhEUgAAATEAAAClCAMAAAADOzq7AAAAyVBMVEUAAAD////33x7l5eVSUlL23QCDg4O/v7///fb+/O777p/78bDp6enQ0NDc3NzV1dUwMDA2NjZ5eXn95R8UFBSNjY2bm5vn0RwxLQb39/fx8fHGxsaHh4eqqqqUlJQfHx9hYWG2trZeXl5ra2sYGBjYwxqlpaUnJycxMTELCwE9PT3v2B3/6h9MTEwhISF/cxCajRNVTQoYFgMhHgTSvRnCrxe4phYwKwZKQwlDPAg+OAjWwRptYw2nmBSPghF1ag4jIAVhWAz999Z3AMDpAAAH0klEQVR4nO2caXubOBRG5WVMZwaDjbDdgDdCbBIvado6Sbe06fz/HzWAWCSQGqspSfvkPR8SzJUxOoirBSeEAAAAAAAAAAAAAAAAAAAAAAAAAAAAAAAAAAAAAADgt8AxO8CcaRjrtUCrZcCYJjCmC4zpAmO6vDBjr/5+HK0XZ+yfvx7HqxdorP0YYAzGHgTGdIExXWBMFxjTBcZ0gTFdYEwXGNMFxnSBMV1gTBcY0wXGdIExXZ7JmK2m86w+HuaZjJHzoYJo/qw+Hua5jJnPWuvHAGO6wJguMKYLjOkCY7rAmC4wpoumMRoDYxq6tofr68OWk/Zsxk4s3++rD2L2DS54Yvu+faI8jm9JY8m7JKEfGaOvycXFBZnkL2/esmq/vSmUNWHMD2UVcPzkRzbpDLqELCKXuI7Fl1kb6a9+SMhZZGQ7vfGGkOiSkOHIqxzTGw2Skm4S60hDZ0lIPNcfGrtNa8mM0e2HsuIft7TBNrYP6/umm/RtqSCDXM5YBe0p4fU64/hHZ0PGnMc5WRqpKc8PyVQ45piEPpNoxjGHD83jEDuwaSzFFZcH2lhprP2Or/m7bYPGTsi6ussg6fm7iQqHBFzZkJR6EmMGGXHv84Yb7pPM7hnXzE4jvl11NlHp/vRcCA3PuctyrLHdW7HqH2iDeaxPLHGHSfqt3Fg4EG+uWVk4NuYTnxd2VlmQm5cfPB1WPnXfzbd6G2XoaGP0kDeui2zj0KCx1vhSTGXDbAkoNjaPqlluTfKt2BgJ+NCmtoI5GmQbZvWqtLxctkmqa3Qedx2ONfYm3Xy/ardXn+KN75Mm21h8WwiprJdfYteyarWJC+cpyFnPhWw03dePvM9u2nW3FhqdZqHTemhZbB5rjN2Uh9gTbd+SorNsytgJmZUvApLfh25nX0txSQvILDrzc/6O7UjsxjvZR4fjWsjKGqskZBft+FhjO9Ztpvmefp40OrrITrGobSdLYjGLgMgKO1nL6u2FzjCcygpne5ezeig7q9NAGWodb+xj0cYEftqYkryRjM/yU4zKSz7YSJpY0jhYbusJucmTXxbbTX85ktVxYj8UOt4Y/ZJuvm5XlP20Md9SUJxjnspCLqsMSHUQynDZcLV3xu+UZKqURVr5mSTHZQN82RvLsf+xxq6yKt+1n2xeSYLkZ0C4vjGqdvsZPXZcR0jZXcl9lxCm7dQUhiECZpkGJBw7HtsWlf462T2NsTSVWcKNthjJiwasVThCT1kbPmSsWeMdq5XN1aHjjRWNLObLavcUxlrreIx5KSSus0Be0lqkv4QE5Ek7iRgja6hjslS1pXiSpGxmR8+S6Deu4t/aTc4rC5Y9ZynscBX16LBb1+GHBbbKmH2Zv6tH3DCQZsY0ZEhDx88r+VZG3q2aHcFmRJH42rXl5TyJsb7bkxNy/YM/jciw58sWS1Sh44216YpbvSBMWbPGbEJERa4iNcmNjRSIgwfP6J2R/Vh2ZFMW0jDWpvRzOR9/13wbi2dzQk+pbmOmzNilvKz0kwyHnMuzvWeEZMiHdIzFe3aTN3nlr2jTxjZxz+gIwyZVHrMkxixVHlOwJpJlOcaYXzzTM5bsbGfOPu0aNsbm0UN+QKHqK322ciMYU/aVKsxLpTIzKkPaxuIZ0x2r/bZZY9kiokeMcp9qPDZmFRKMKcdjJ8lxZbneI0FLGSrOQmose/QhrlpPivk3vS/2N2fMzJO+z5WNFBOfbHgvGtsE8sKnyRDvXHZ/j9NWPZCGik+WGKPbb9lqzn3Rlii9I7dFgQ9PYGxQ1H5ULpYOFHdattAhGpsrbrJFYmRgSCIsHQ5kXUCZFWvGKL0h5H3y5IN+ZrVMdh4SeW/ZuJWuSPPG+Clit8i70TKQFQ6yUbxoTDGEZVqWskUQUx3y1MbYoOvTarebfEor+Z0Wg9fbG7rb0Wv2jOR1k5l/5nIvyuXFhT+QlY4C9ls0pugnemnTG8saIDMmbZum0hh9U63kHeXn4be3+dbXBkcX4vw7bi1ZTnM7S4mFINdbMTaL6mXjxmKzQ0oSfH/AQpK3lZeqnscuKpVMPR5qdW9yBHviVrzMsvq5lllfISsfW1SMcbmwJF92k8VCdnoLyW25LHrpeh5biXW8Zrnrulr3Q4OzpFOnuidkXVU8S1pXnyWdDIsHRlVjNqnl91H+lMqoDz7yXlkSMsoLVW9jdPWeq2L+DIRO+EkluW9yJj6vPkmMYV/BTuaV04VQH29YLm9UjbUCEog7HLf44F5lzhoLyws76pB8dNG+us8q+GVVrLhSel1MKm/vmlzt6cuCbMk0nYmvybxsZgH/zYCasfjcltzzpGDR5RroiEy5O9zkH7X/IKQYwbYnN1dXd4etsEJN6XZ1l+ye0Mc/Sxoo2cgXQI1kzMXWLqwuWc76Vsc2pq4w3AzrjzS8kHTHvtWx+oFDKoOw+DhxzO50bH++JyF/nWx1SDVLotVvisl3/6yx/g9QrE/0rXK1x1yHESFudySWtWR/b+LNwmH8ydFSsqDjBc7ejYMbp7aw6M0UoT/r75JU62NPCYzp8mf9b6jfwdh//z6O1osz9guAMV1gTBcY0wXGdHlCY6ql+z+MJzQ2/3P/1IRHx5j0W4MvDl/DWNQF3e5GwxgAAAAAAAAAAAAAAAAAAAAAAAAAAAAAAAAAAAAAAAAAAIBfyP/Gju9ZonesSAAAAABJRU5ErkJggg==;clipPath=inset(26.54% 8% 29.63% 8.33%);direction=north;" parent="ir4OMrtsFITVhEPcW_xw-58" vertex="1">
          <mxGeometry x="310.0042683558423" y="97.49573164415756" width="86.27146328831522" height="305" as="geometry" />
        </mxCell>
        <mxCell id="ir4OMrtsFITVhEPcW_xw-100" value="" style="shape=image;imageAspect=0;aspect=fixed;verticalLabelPosition=bottom;verticalAlign=top;fontSize=1;html=1;image=data:image/webp,UklGRjINAABXRUJQVlA4ICYNAACQWgCdASqKAsgAPkkkj0WivaGT2YQV2ASEsrdwuaCBrt/nP5VeNDJflj6h+S39j/cb55a+/T/wx/Sfpsw18M/5X0A/Jfyz+9/338v/nZ/o/8X+Ufyz+3T3AP1L9d3o/8wn+z/z36k+7H/uP2j9xn7WewR/J/9d/////7yvql+g3+6XpnfvJ8S/+H/5Xpa6q95c/u/bD+qVqHfGPq5+79j3aXwAnV7HXqL98/Qf/Mv9NySv2H1AP5z5m2hh6u4EX7bjqFRfJDEUahyIuFKi+SGIo1DkRcKVF8kMRRqHIi4UqL5IYijUORFwpUXyQxFGociLhSovkhiKNQ5EXClRfI7DnsGLevKnsZANKCLDYkeygJSyUuZQlLI4dTfJKDMV5YtVJL5eqgA/BJE40QNAa64phtvXov0RFwpQcyL8DSO1ft/Lw5AO7QsCgZSdw+LIAk6sS62gdQQLBzYdtco0sLM6n+qp7X8CAaPhXqBxoNAxqHIi4UqBc/KzfIiM/Knb46ZrM+MM1sjPw/9qeG1Ccb152cc9mYDvkDOoWt0r66jxv5Ug8uEDkiO8XeK9DR6KRFwpUXyO5tNA3XpSkrf+pQ9MGy1xl1BqWEzs/oQUxtswLy7kguaa+0BpSEYqBY5tonw9416iLZpEgSrZgY1DkRcKVCAfCufQZmOhUrH8wT0Stt9+p0Iy7kY2iixMP7oAm8CIjkVPgS0EqOfW+EZ3GNge5uLKKRFwpUXyQxE8u5L9rbtoDdfNHsUGlbUUkFzED6dH6sOqETRFq+eAYu03XDaCzsBnfVVbiociLhSovjllqn+Bungq4GiuOhTpbG1oGHxVu8K8k3uor7H/evITuz6Ip6WLFn2+JToYFsbTXlGtHMBSkFJPGrBrO/M3ClRfJDEUahykXZs1vFzl8kPQT5VIi+SGIo1DkRcKVF8kMRRqHIi4UqL5IYijUORFwpUXyQxFGociLhSovkhiKLYAAP7/uBAAAAAAAAAAAPemgIzQR9CWU5xPxGrraQGvLFPu47cOzTYF8yhclm2Yn+0WmUlVIvcpbeaxigQgwzxr7YzGZJop5PxsIwbyNE9B5mF9kdGlowttkYq2OGGEdy1XYkGrdxmWPYjgEXIca0Sni+LX30J6oR1TBYsLuY9B0i4D4kz04fw2yLH3jZi6lJrJnQCtO7CtjFChrMekn1TWkgxv4xbx5s7Y+GOh2yiXGShSDoUAhJsPg+CZFcrlzlUSlVPMxzNJRxUX+53bra31TIQ/blyAwgOjMWx8oQuQvVmsFzk/jiQiX2JHcnETREATWrofACwEdfdR6efFWABkjeTUGQ8l77Yf/y9ska57je8arjzXHlZPwO9hy4xfzXg4V01ho4AlGTE30cLKJIY/kfLu0XTJQGf+PGVBBWpviOC6pahsqxXpVmhDvMLkyszO1aGmXFxuyceAp4oKhmpEcCbrfjIyMwryMpr71mthVrnKX+lhQqXfwi0QjQ8UccuE/79u/dwTgEiZjxKB/nzPZI/lvP83E+2RiEyFuUmqNIeweVD9owu2nJg3yBB+RAklSIJfvKi1kLQmp29ZfOW9zfj1BA2/LrVH/dS7Z2ffP61oNWhQ2iQMsmBfzUcmI6XYyTv94Kn4ioEvgACL9GeDLgHcVPaAUKC9CCs2i618U+JRHDgzfd2nwFI7Azmy5K3la21CCitMQVITT9sljqCX197seQbqImp3Q8LvOm5fYZ/6IeMDULQ11/rPORRE/1THHah8r+NYMk+DrPepuCVXRoZm+L9SJYoj7lfQk5ypVM4ZxDAnnHg3903tS9VT5rRAPIbkyOmCEp0obGG0TDnS6AXlj/4X2+P36qKdRZK6S1Zwtfs09DfWaYUZquOL8WIEzSug3UXti0W7/0OWHy4gIXQdQ428iey1OykRCpX/OqxdNowI93WmDehEkT6jY5W6J8Oad53dwp4TdQLAsQTjapSYBqbNDhOSVeopxWnnPflwphYzEM8hBZ6CbOqprNhTjmadKE6d//QrUDDDxVXJTiGf/Nf+gdDqSBCcHA7NsEihaSCHxEjq8BSOreN46C2LHBuSgPiMMcOgyKAQrGhG+YPK1YQEBZ9AddP/2debaiyCV37fGBSgqL+g0fv/uiRPVAADhA3EC41ykUBr44r1EIYiG8eIIUfsab+TtW/cDhjsh8y642+EY15MXFC8ooqz/crgetDy190ORrFtkajfAot7+LDlVz2oHab7cjub4kdXwy/uW3KiPqF3PzmiL4f0f9qx2A0s3zkdb3VDNfo/mCX43qtrnrEQF/vgxlRNvxRVuw/QFMxNSUEy/ab+d3ZWp5zjNUTJgnzUlIh3aTFyLglNHB4oEnPWDuMloI4FzV86D0zctC4oMYyH39dC0gqChVDIg6V7zN90Cg/gqtIA2VqSX4DLPVGa+SZA/O3MMl7DUwpVDU/zUPu7tRdHagRK0Jijy7paP9r2yx+eZ8PqI6aRdDOgAKZ5TK3/rw57+OX4fnDEjgAmA/GgqkrB0dQf9TmwzVnO06/QC8Nqs1mRo9nuwP/zwcJDzQRqztWBbBEb+5wqJDiqKHkQHTFqJG6XgMvAGPcCFyRx27vENJfr7oohNBfuImbE158vih4EvEUTBMKivhG9SZuwUtemM7wnosASFxxHHFy1iZ03HlFb4t/fDRhjO4JyXwYgacXGnaeckh4f7Wh+eTULSV/uDp1kGAFtVM1utgBfw0DijQkUdZab3sTU8pSGS9sOJGCXjuR9/fG//e8+ZkHQFfxhq4RfmrXA/sgX2ql6cxO4ncytXsJQavCn2Lr/HhLG8eIHT7XSFUtA6Gjj15mFY4DtCTRsaeIy6WGNZrN7mzjwFuF+qZnoYXrYwR1OB1tmlMyY7wRhTjNo+p2DREqYFvwSUTsGcOqP5sdZH/mUa0Ra/66Uz8HnktytbXXNdjp+OWPbQvvLFbg+5H2nm1qdJnKzvHAlBs7Ai/Bkd6/TH4FukFtT3iVtVQC+ZOyztqJeJOCXeGyOb1aLaSO1HGgms7vVC9WJ0TEmxqaZkForrR7m/6zIM53sy2eRfHra4s2dLFCeC5HJ1j9yYgVofgMBZfo8Mx2FjelM9AVIHY2GwCShTYYzIS6HDAWOcNFj99PrRyIlnzpYTE7UTyzg6SJb9FGyJfxDykUJMk0YeaObl1uK1Sp/ye+2Cu9p080GIYfx/PEeqc8OTqVL8TTWZ6mu/QWZfKdrvvDfU4nrvG4xwMi1QJgpuKiXf4SsjgUjHNiWBAr+VhXeNvcXlYezMgXwI8wL+byD59m+0rroCstrfHGQnJ0IJGGHscwhj2wNrZb5py/4j3Xtwaaa6g9bHOXdztYPhSBLGw+/mtGawp3qC5cHaSbmq2yykWAAbiIyGDKew11EGtKBoT7Hcv0QN0KQK0ESCyDGx+D8d4aKz9n3BiXnN4zxryHYm8cEvPCPhzef1kAPRz2frk0a0q5Ja8fKvtwluCXWML1Jozmc6WHPQmkOsRfoN0yC2Fm0pO42/q2z2AOonDYeDXbs30PeWT9cN19jSjDgzXgk9IAkqEXe6m+gd4EogYNWMzZZ9vYPGyzNZFQnw+a+/GkxUpe0HlLXqbyUgqzTRVJw7zH8LwEX2aczcnf3xQELQ5Yjz3RqFZ53C997jPIpA+vEd/RAbgGxAcoUMYXPSSFYIWtNkZ783t/xRUtXTHTRq77/5XyvI91KfkuqQPieqUWiYMLo8eYipcwoDLwkyaTL2eGzIJWCStZEsSMpZx4pOA1FZBfOF4ZpmVHr5g2BExj2RLnqIAfZxCuedkU02Fm+BaU0q5zh0RWykomRfjMsP8sAe12ViJ693CymSC4lejkk+2xLn9fM2jwe7oiT2TLKm9cUWga+hhM9WYc57iu11m1tnJFUDKsa8rVgLAfsxTlZZFWzxWhe81EeT+7vzud4BltVxbwS4cGmfKWcCudZ8nN1nh04NrULpOpZO6IG9wY0aWAWlLcAp6MqJdBjWeXPksjsezAolNM7dNlYORZYUlXZAhn2RGMak1UXlTP4Bm+VP00myf8p/DF9fwqGGwHtq1meGMXivk9pBGER5kb91+4Nr09ZZxx6xx1qoHLxtJmAREQ5XH5kF6Yr1VcQ994WiAg/SuzQ43DEGni6AK4nvhxP9QBc32dMuZnjKUN4azeuxBpUYsx34oDkho8kAW6YM11t2liDneB4miloGFw8DCcFoiF8e2zERgvjCB5NEaD9tf6DqkKIZ0Xu6VeNs+V2nzktMwReTMcYfeaWCbVXL6XF+R6MlxIyFKLOZbTRrBcj7ltNqX4ElUTbIPl1tjJJEROpliyzkPwVGoMAx/kkeP6b6Jw6qpMtbUaoy7V/nSVwcJl5vD+4T2R3vruTX7Y9x5oAYgx2ExVF92WC/jkivDnJE2PMBnzzb55IFBF7+XDOKg8y86bJTN1or++AYxW4r5Wi20q6rqds/2tpWRgcIfAvGEFSAAAAAAAAAAAAAAAAAAAAAAA=;clipPath=inset(2.17% 19.33% 14.13% 11.67%);" parent="ir4OMrtsFITVhEPcW_xw-58" vertex="1">
          <mxGeometry x="10" y="430" width="250" height="93" as="geometry" />
        </mxCell>
        <mxCell id="ir4OMrtsFITVhEPcW_xw-101" value="" style="outlineConnect=0;dashed=0;verticalLabelPosition=bottom;verticalAlign=top;align=center;html=1;shape=mxgraph.aws3.toolkit_for_windows_powershell;fillColor=#737373;gradientColor=none;fontSize=1;" parent="ir4OMrtsFITVhEPcW_xw-58" vertex="1">
          <mxGeometry x="286.28" y="430" width="110" height="100" as="geometry" />
        </mxCell>
        <mxCell id="ir4OMrtsFITVhEPcW_xw-62" value="" style="endArrow=none;dashed=1;html=1;dashPattern=1 3;strokeWidth=2;rounded=0;fontSize=19;startSize=22;endSize=22;exitX=0.498;exitY=0.993;exitDx=0;exitDy=0;exitPerimeter=0;entryX=0.5;entryY=-0.002;entryDx=0;entryDy=0;entryPerimeter=0;" parent="1" source="ir4OMrtsFITVhEPcW_xw-58" target="ir4OMrtsFITVhEPcW_xw-58" edge="1">
          <mxGeometry width="50" height="50" relative="1" as="geometry">
            <mxPoint x="540" y="980" as="sourcePoint" />
            <mxPoint x="590" y="930" as="targetPoint" />
          </mxGeometry>
        </mxCell>
        <mxCell id="ir4OMrtsFITVhEPcW_xw-78" value="&lt;font style=&quot;font-size: 25px&quot;&gt;Active Directory&lt;/font&gt;" style="shadow=0;dashed=0;html=1;strokeColor=none;fillColor=#EF8F21;labelPosition=center;verticalLabelPosition=bottom;verticalAlign=top;align=right;outlineConnect=0;shape=mxgraph.veeam.active_directory;fontSize=25;" parent="1" vertex="1">
          <mxGeometry x="325.2" y="1720" width="90" height="90" as="geometry" />
        </mxCell>
        <mxCell id="ir4OMrtsFITVhEPcW_xw-79" value="&lt;font style=&quot;font-size: 25px&quot;&gt;Scripts Powershell&lt;/font&gt;" style="sketch=0;aspect=fixed;pointerEvents=1;shadow=0;dashed=0;html=1;strokeColor=none;labelPosition=center;verticalLabelPosition=bottom;verticalAlign=top;align=center;fillColor=#00188D;shape=mxgraph.azure.powershell_file;fontSize=25;" parent="1" vertex="1">
          <mxGeometry x="530" y="1720" width="84.6" height="90" as="geometry" />
        </mxCell>
        <mxCell id="ir4OMrtsFITVhEPcW_xw-80" value="VCenter" style="sketch=0;pointerEvents=1;shadow=0;dashed=0;html=1;strokeColor=none;fillColor=#434445;aspect=fixed;labelPosition=center;verticalLabelPosition=bottom;verticalAlign=top;align=center;outlineConnect=0;shape=mxgraph.vvd.vcenter_server;fontSize=25;" parent="1" vertex="1">
          <mxGeometry x="730" y="1720" width="86.4" height="90" as="geometry" />
        </mxCell>
        <mxCell id="ir4OMrtsFITVhEPcW_xw-81" value="" style="sketch=0;aspect=fixed;pointerEvents=1;shadow=0;dashed=0;html=1;strokeColor=none;labelPosition=center;verticalLabelPosition=bottom;verticalAlign=top;align=center;fillColor=#00188D;shape=mxgraph.mscae.enterprise.server_directory;fontSize=25;" parent="1" vertex="1">
          <mxGeometry x="260" y="1719.44" width="65.2" height="90.56" as="geometry" />
        </mxCell>
        <mxCell id="ir4OMrtsFITVhEPcW_xw-82" value="&lt;span style=&quot;color: rgb(32 , 33 , 36) ; font-family: &amp;#34;arial&amp;#34; , , sans-serif ; font-size: 24px ; text-align: left ; background-color: rgb(255 , 255 , 255)&quot;&gt;Windows Server &lt;br&gt;Update Services&lt;/span&gt;" style="shape=image;imageAspect=0;aspect=fixed;verticalLabelPosition=bottom;verticalAlign=top;fontSize=25;html=1;image=data:image/png,iVBORw0KGgoAAAANSUhEUgAAAPAAAACsCAYAAABFGSEeAAAACXBIWXMAAAsSAAALEgHS3X78AAAbHElEQVR42u2dCXgUVbbH/53espB9JUAIIUBAwr4FAijLiDgoowi4vkGZURx9zhu3URhxwWVU/EbfjIjLjNuA4AqCg4CA7IQEiBgIISEQIGRfe99q6va8+DTphK6bdHdVPL/vCyGdut33Vupf59x7zzkFgSAIxQI6BQRBAiYIggRMEAQJmCBIwARBkIAJgiABEwRBAiYIEjBBECRggiBIwARBAiYIggRMEAQJmCAIEjBBkIAJgiABEwRBAiYI4kdoQBAy4tv8UhwtrkBBWQ2q6g2w2uywiV+8qFQqhIXoEBMRhriIUIwf3As3TR3abc4XCZiQhWg/3n0ShWVVsKhDUW7TolEIhgVxsEMNB4KghxM68X868XtCkBGJajPgcqLKApQ0OWFxCu0IGNAHWaALMotfKmwtKMebm/OgU6swfXR//GHeJEWfO5XbjyaIAAn3L58dQr0VKLKGoQo9RHkGedU2CmaM1FUjJlSHJqMZ9TYVCupsMDu9++xQ0XT1C1cjKViFSUNT8NSvp5OACcJbfrNyI0pqzDhqiUQDQrxuFwobhukbEBtkxX2/Go9ZYwe4X//Hv/JEK16A4kYnipsc8Paq1ogWum+PIKRFqHH7jBG4/RcjSMAE0R4HTpzHUx/uxnFrJMpd4ZLa9lE1YYiuAQuuHIJFs0Z7POZ//vYv5J+rxqFKK0wO799bLxr+kfE6DEgIx/t/vIEETBCt+d8NOfhsXxFy7QkwiLNary9SCLhCFO7gMDvWP3GTV675C2v3IKfKhjqrtMs7Xv8fIT+zaDrGZfSW/TkNosuK8AdLXvsKH+wtxV57L0niVcOFLH01pvTSeCVextTh/fD6A3MwKTkEqeI8VwrV4nx83yUbHv/7dny25wRZYIK46el1ON6sR5EjSrSlKq/bsRXnySFV+MXw3nhkQTbXZy94ej2+qzSgsMEpqR1zqbMSdbghexDunzuBBEz8PLn9hc9wqFaL044ISe2Y5Z0SXIW7pmfg1hnDO9UHJuKjFUacbnRIase2miYmaHHnL4bLdnGLXGjCZzywaguO1gqSxcvmvOODazFrRK9Oi5ex7on5GByrQ69QlaR2NqeA/VV2vLvtGL48UEgCJn4+/OXzQzhU2oATjljJbYfp6jGhbzi32+yJDc/cipEJwYjRSxfxQVHEr4njySm8QAImuj+f7T2JLw4UI9eeKGnOyxigaUJmtICV91zd5f16bvFMjInXuue3UmDbUYer7XjyvR0kYKJ7c6z4ElZtykOOKF6nxMsrAhZkBDfjAx/tw2b2S8QdM4djfKLOHWIphUabgKJ6Oxa//AUJmOi+LH9/J/KscTBDK/FCFDBOnPc+dnO2T/t364wRyEyJweBoreS2ZwwunKpoxN82HCIBE92Pv27IwXmzDvUSQiNbyNDWY0x6ArKGpPi+n/89BylhQYiQqGG2X5Mjzoc37CvEiXNVJGCie/GFeGEXOGIktwuHFakaI56/a4bf+nrf3PEYFS/dlWaLWidEV/qFtbtJwET34c5XNqLQHg0bpEU+sS2jMaLr/Psb/Rssce2EQUhLiEDvUOkSuGgSUFZjxJf7C0nAhPLZlleC4koDyhEuuW2qugmZvaMwc3S63/u97LYrkRGlhpZDBblVNry+MYcETCifVz8/hHxbrOQtI7ZwNUDTiPvnjgtIv/v1jMbMMekYGKmW3NboBC6I/7zyyT4SMKFcVm/KRbldjyYES27bV7S+w9MSkd4rNmD9f3h+NpJFN5qFTUqlqNGJLTmnScCEcmEZOydsURwX3n+s72+vHR3wMcwaNwADIqRLgS1olZtcAbXCJGCiE+I9iTohBFaO0mpysL4tsLpYvFb4dJMroFaYBExw8/727yQnKsjN+v7YCvePkD4XbrHCgVrQIgETXLDA/lqz0109Uiq9VfKxvj+2wn3CgiTvCzNKRCu8KUDZSiRggovVXx3jsr6MAcEm/Co7Q3ZjGtg7DvF66QpmJW2bbAJ2HD1DAibkT+mlepRV1qNa6CG5bRhsCAly+iVkUiq3TM9EZpyeq21hvQ0fbs8nARPy59O9BShzRcAF6daqr9aA2eMHynJc7KYSqlUhTPpUGHU24EJNs/vmRgImZM03eWdw1iE96oqFTSajGUvmjJXt2K7LykBKhPRVdZboUGZwYFteMQmYkC8HTpQBuhDJMc+MGJUJKUlRsh7f+CF90Cec74lDFSYXdhwrJQET8mXP8XMoMQdztR2gN2Hh1CGyHh9L+leLnoKeQxks6b+20UQCJuTL7vxzuOCQnu/LqkyGu4wBSVqQykRxLpwQwieNBrvKr1lKJGDCa46XVsLiUkmutsGIhAX9esYpYpyTh/VFerSOq+25Jhv+dfg0CZiQH/u+L8N5RxhX254aM2aMTFXEONmTHbRwgiOy0r0aXXyxlgRMyI+teaWodIVwtU3WWHHT1CsUM9ZBfeIRrZOuYPaYYrbAt/f4ORIwIS+aTBY0CdIDHfTswdxql6LGOnNUf6RF8bnRxXVW7MovJQET8mH9zuMwqHtITtpnRKvMGDuwl6LGO2diBqK0fE8dqrEKOFBwngRMyIcjJRU4a+WzSGnBVkzOTFHcmGMjQiVXrmRYRWfDJmrfH5UrScCEV5wsq4ZB4IsTDnMaMW1kmuLGnD00BTF6PomUGxz4/kwlCZiQByaLDUZIt8Bs/hsWrFPkmDNS4pEcztf3GrPTfdMjARMBh+X+qnShXG1Zzee+Mg+fbI+UhEiE8UVVwuQQcPJ8LQmYCDxnL9WjwqblahuttmFkWoIix80KDghOB5+AnUBdk5EETASeIyWVqLHzmaIkvQP9k2MVO/ao8BCu9EKXIIpLo/F5eiEJmLgsRRdq0Ay+BaxgpwXZmX0VO/a+idEI5XajgbKqBhIwEViaDGauBSwNXKIpcip67CPSEhHFuRJdabCjpLyOBEwEjryicgi6EK4ADraAlRQbqejxpyZFI4lzJbrO4sTxUt/uBWvoEiWuX/Yhmk3Wdn9frY7mel8m4AuVtZj2h3c8Ww+VCn+64yp38oBcYe4/Z2YhTE4B5yp960KrBEEQ6BL+ecPSBB9evRUHbQlcZWKlEqmyICu4Gn9cMEnW4m1hxoN/x65KpztRQSrTk9TYvvJOcqEJ38GqULyweAbG66sRCptPPysKZmTpq/Dib2YqQryMhNhwhGpUXG3VOh1Ona8hARO+ZUR6Tzy+cBKydBUIhsMnn5EUZER2WC1W3nO1+6ahmHlwYjR3QIfRLqC0op4ETPgeZhEfmDsO2cFV0KFrV4/7qA0YG9qAL1fciiF9lRXYER0eDC2fAYbF6YLFaicBE/5hTtYgLJo5FBP1l9x1rLqCdG0zsiJN2PjMLYo8JwmRodBwKsXiENBotJCACf9xy7RM3DAhHRN1lZ0Wcaa+EaPCzVj3p5sUez50GrX4xScVk83h076RgAmP3D93PGaP6oPx+hp3QXYehuvqMEH0lpUsXrcLzfKCdWquthZxJnKpptlnffPbPvDevXt/8nN4eDiGDx/u8+Mu1+5yJCcnIy3t/3NZ8/Pz0dz80z9Idna2V+915swZlJeXd/j+3ra7HN72qSPYNk+jYTtsp6qRZ4/3OpiDCX5CcC2GJenxxgO/7BY3tCAV3yRY8LEV1vhLvJMnT/7Ja1dffTW2bNni0+Na+Oijj7By5Urk5uZK7vuf//xnPPLIIz/8/Oijj+Lrr7/+yTF79uzxSjCffPKJu31H7/9jXnzxRbz55psoKSmR3G9v+3Q5nr9rBkx/2wJ7WT3ybTFeuHQCxgfXYGp6lLttdyApuof7mUk8OMQZiIkWsfiZNWsWbr75Zi7xBgpm5dPT091i5xFvV/Pq72ZhdHwQMjQdb4ew+fKU4ErMGhzXbcTbWRwuAXUGWsTiYuzYsW2spRLEe9VVV8lCuD/mnYeux4goh3tF2eNCD5yYHFyF68ek4Ik7ruxW1xHbI9dwrgMIouvtcrpIwFJZunSpoqxuC4sXL0Z9fb0s+7Z26TwMCzMhOai5jXinBFdg0VWD8Psbs7rpFcUnYKsTqDeYlT0H9jds0ee5557z+Lv+/fu73VNvSUnxXzVFNldv76YzZswYxMZ6nxjPFvV8wafL52POsn/CblShGj3coZeTRMv7m1kjFFW4XSqdsaK+TDfolgLetm2bx9e7amHHV3zxxRcebzhbt2697Eq1P2HRVNcu/SeOmAUM0zfg0fkTFVl1UpKAXXwCtolzYJPZRgKWQllZWZvXHn/8cVmLl+Fp3vvaa6/JSrwtsOSHx97ahocVklHUFVyVyDfjdJEF7rwQIiMjFdnviIgIWfaVJSNseu42/FzY8cpdsuxXt1zEGjVqVJvXjhw5Ivt+jxs3rs1rBQUFIIiflQUeOnRom9fWrVvnnk9ec801HtvIwb0ePXp0m22vxx57zP39iivaLhB5G31GkIAVxezZsxEdHd1mO4atTLe3Ot3CggULcN999wVE0PPnz2/TPzaGe+65p8N2bKwLFy7EQw89JMv5MkEutGRef/11rnbMUrMwzXvvvdfvfWbWdMmSJZLbMZGvWrXK7WGwrSiCBKx4mEXiEUMLTBCBEDG78bA9X15Y2CiJmFzobmOFU1NT2yQQSBExs4p33323X/t9+PBh9w2IeQO8Ih48eDD3/Pjax96HuRMB+HJdse1KWCHApe9sx7N3zQhoeaBuX1aWZfrMmzcP77zzDvLy8iTHRrNFJH8LmMGsKJuLr1mzxi1oqWGhzz//PLclVquDcKBGgIWjDOP0npqfhXhZFc8Ttkj39y0v3E4C9iVsYefZZ5+97HGrV69us2DE5pcsfbGjRa0LFy541Y/GxkZJ/Waf6c1iGnP1mbfQei7PK2CVSsWdxB+k7t4Jbt/ml+K5j/bh0P+V4LVY1e6otM3P3kpz4EDDLC3LK27N/v37f/j/tGnT2t6Rjx/36v1ZSGRrPG158UwV2Ep0a6QWL2ghNjIMnE8TQXeuMr7l8GmsWLsPey2JP9TPZvHgR8yRuPGp9SRgOeBJoD/GU3JDa+vnCSYmT25wRkZGl/TbUxAIL6pOtHWqgnCs+FK3uy7W7foeKz87jH3WJJhaPSeqQghHXlMwbnxy3c9HwLW1tV65osXFxW1ea2pq8lm/duzY0eHv2eJSa5ibzXKP24Pl+F533XVtXmerzV21b5uTk9Nl5yA2IgRaurX/wFubc/HGV/nYbUmCGZ6fk3zOFYkTRj0WvbSh+wmY1X1qDbNGredoy5Yta3Mciw9mc9Mfs3z58jbHRUV17inwLAWRzSU9LXJNnDjxJz972p5i42FpimxM7L1ahMvK4rAEfU85vg8++GCnzy37DHbz8PT+vMEowVoN1EF8dthgc6Gi3tBtxPvi+n1Ys7cEe+3JsKHjwnaFjmgcqnTg3tc2+61/flnEYlaGBRm0DtZn2x2sVhXLc2UWpL1Edraw9Pbbb3d43Ny5c9u4rK3rZvHA+t1aCGzOyYTauh9sfGxM3sDm2p6sORM877bX5W4y3hIeooMaxBPv7sCOwmoctCbA6aWtK3TGIuxCNR56cxte/u3M7uNCr1ixwuPrzHIxq3e5KhQdHcdE5kkMXQFL5/PExo0bud+TLTjxRop5+/4srJKXhOgwcFZRRaPViZoGo+LFywS4/VQd9lsTvRYvg1XuZBU8d5c04IV1+7qPgJnAWJyxL/j000998r7MirG4ak8wq7x27VqPq7+Xs+g7d+70acwyuzl09v1DdXzOmd3pgtPlUrR4f/vKRuwqbsJBSxzXc5FZmyO2OGzKK8PKTw90DwEzmNvpjYiZKLw9bvPmzT7JyGHlXi9nJdlNiXkGnrae2rshsEU5X2UQtZyPznojMeGhCOVcxWJlVCsbTIoVL1uEOljhFK0on3hbYFb7oD0JXx4+izU7jncPAbeImFkuZok8XYDsIq+rq3Mfxy7G9uKC2XFMPO1ZSB7YZ7HKHWwu216tZk/ze1aPmpXrYX1q3V8m7pb39JXbzD7jjTfecJ+3rjgfWq0aOs5FLLsAGDp4WLicWfDMxzhQJeC4PaZL3o+J+IDogr+15Tt8tvekT/oc0Ad8t37iQHurpt4eR3QNO46ewYp1B7DzvHRLmhCswm1j+7gfIaokWCAG28tl20FdjR4OZOvK3Y9v7eraYQEVMCFPSi/VY8mrm/D1eekFycPUokeQFo5Pn1yomPHOWbbGHU1V7urhs89g1Tsn6ivx0uLp7jrTinWhCfnTr2c0HHY7eLxokzgHbmxWxhyYJSVc89gHOGT0rXjd5wU65Fjj8ejb292fSxaY8Cm3PPsxvixqgIHjuVwz+gRj1f2zkd4rVrbjyym8gCff29Hhw7fPIgalgvT58EB1PXq5atv9fY8QPTY+exsJmPAd7OJevecMKszSL48JiXosvzkLs8YOUOz4H1i1BWuLnO5kBalMDqnGMwtG+6XcLrnQhEeGpMQjLpRvL7i82Ybii7XKXgcor4MBeq62eofJb7WyScCER/okRiIhVMvV1ugUUFimbAGbLLZ2Exc6FC8c8GdKNAmY8EjWkBRoBL4HUzc7VCi9pFwBuxeZdCFcbcNhRWrPGBIwIQMEARqOlWibaIFtDqdih10iuv9Vdh1X21iNDSPSEkjAhBzc6GiE8uarabQ4ca5KkeM+eaEWNXa+gfcMdmJwSjwJmAg8g1PiEKHlC6msNjlQdL5GoS50FZo5F7B0DjNSEqJIwETgGdgrFok9+FzJGqMDp8vrFDnumnoDjJA+bi2c7EHC7kAYEjARcOZMzECsns8C19sFHCg4r7gx5xWVw6EN4cpEilBZ0Dcx2q/9JQETHRKqUyOEI7lf9KBh7ERx+EBx8OQFnDXzeR2JGismDO5FAibkw9ThqUgO5btMKs0urP0mX1Hj3f19GaqFUK62SUEmjM3oTQIm5MPkzFT0jeSzSGVNDmw7ckZR461vMnNFYIXADp3K5ffHrJCAiQ4ZPTAZGsHJVWa2QZwHX6huVMxYt+UVo1EVxtU2QZR91hUpfu8zCZi4LMPTeyKGY1eFpcmYBbVbGEpg13dlKLPxeRv9Q6yYOaofCZiQH6yKRP8ovn3R4nordh4tVcQ4jxRdRB3H/JdtH2ldVnf4KQmYkB0sLTBUnN/xJPjXWgXkisKQOyw/2CxoL1u83RPxQaYurbJBAia6nN7xEYjkiMqyuwCXSu3eX5Uzn+w5iSIr3/w3I8yGK4enkoAJ+TJddKN79+Cr9n6uyY5d+fJ2o48Vl6OKI3k/CAK0NkPAiheQgAmvuG3mCCQGq7jc6ItGJ745UiLbsX38bQHqRfE6OeSQojZgZIDcZxIwIYlBrEoHR2il2QkYHSp3uVpZus97T6DExuc+p2ubseDKoSRgQv4sFC/UIbF8q9Enaq1Yu/O47MZ06nwN6pqtogWWnsAfAxOiQjUBW8AiAROSyM7siwh9EFeOcK1NwLnKBlm6z+ccfCVl+2uasejqEQHtPwmYkMS8KVdgQJT0WlEsqONMowMvr98rq/F8+91ZnHNGSG7HCrXHaqyYPW4ACZhQDrfPHIGeISro1NLnwucMLmzPk89i1ooPv8UlIZxr7zdV3YwbxZtZoCEBE1xWeHC0dD/aIVrhMqMLr3yyTxbjYNb3tEN69QwNXOilNmDxNaNIwITyuGv2GG4rfLrBga2HAx8b/con+7mtbz91A6YMS5XF34IETATECr8U4LnwlsOnuawvSxtM0xiw7NYpJGBC2Va4d5ga4RzhlcWNDmzLLXFv4QSC5z/ag3IXn/XN1NZi0ayRsvk7kIAJbpZcNw5jE/RQSdQwi4/+vs6O59fs9nufjxVfwjdHz+KUQ3rtqjgY0SdcHdDADRIw0WVcO2EQ+iWEoy9HjPQls4DS6mZs2HfSr31+8v2dOGaPhUPipa+GC5m6Wjx9xxRZ/Q1IwESneHhBNgZGqrkWtI7W2LFqY47f+vrq5wdx0aZHrSA9bHKAphFTruiDIX0TSMBE92FQnzjckD0EExJ1kl3pZrvg3hte8peNPu8ne0rEpoNFOGaV/tyiMHG2nKppxpN3XCm7808CJjrN3XPGIqNnpNsSS+VUowPfl9Xhrc2HfdrHJ97dhXybdNeZVdsYr6/Cw/MnyfLck4CJLmH1H65H/wgNpEZZshDLw9V2rN9V4F5g8gX3//UrFBo0kh/WrYKAsdpKzJs00F1WiARMdGuW/9c0jBNdaanJDlYXcKTWgaV/397lfVrxz93IvWjCCYd01zlTXYMpgxKxRPQw5IpKENg9kCC6hi8PFLoXi/ZUONyPGZVCr1AVRiWGYOOKW7ukL+9+fRTv7SrCHkuC5GT9tKB6TEoE3n9krqzPN1lgokuZk5WBxbNGIVu0xFJrSV80CThebcFNT33U6X6w4gFrdhVivyVesniTgowYGmaSvXhJwIRPWDhtGOZMSMfkJJ3k7aWzBhcKqkyiiNdxf/77W4/hhfX7sc8SJznaKkXViLGhDdjw9C2KONckYMIn/P7GifjddWMwtadW8pz4ZIMTORcN+OXSDyV/7hPv7sA/dp7Ct5ZkmCQ8IpQVpxumrkZWnB0bn7lFMeeZ5sCETzlwogxPvbcT+XUOVJhcktqy6j1j4nV4ZGE2po3sf9nj73zpC3xf60SuNVbS40H1cLhXm6cOScaKX1+pqPNLAiZ8TvHFWix/bwdKa83Iq7ZJWtzqIVrvMQl6jE5PxMt3X+3xmM0HT+GNTbk4Ze0hOcMoGmaMCa7BPdeOxg3ZgxV3bknAhN9456tcrNtVgOImJ84bnO7UQq8uUtGYpocHIS1Cg0XXjP4hmYBZ91c/P4QKo4A8c5SkpwqykjgjQxqRqHPgubtmuCPKlAgJmPArpZfq8ebmXPeTGs4bXShtcrj3gb0hTA0MjtGKrrUKyXGRKKtpdkdX1cC72GYWmBGjMmGg3oQoWLB49ijcMHmIos8nCZgIGCs+2IXdx89CUAWhXJwfVxhFMYtm2SlKzdKBmx0iCnlgpAYxOsCp1qDcEYY6IQRWaNxbRhbxO8se0opf7JUolQU9dTZEuExIiumBedkZmJs9pFucQxIwEXBYokF+8SVRzGVoNlnRZLLAaLahM5emOkiNkBAdgvVaDE2Jx8j0JAztl4h+PaO718kTCIJQLCRggiABEwRBAiYIggRMECRggiBIwARBkIAJgiABEwQJmCAIEjBBECRggiABEwRBAiYIggRMEAQJmCBIwARBkIAJgiABEwRBAiYIEjBBECRggiBIwARBAiYIggRMEIR/+DepFGRYMOz18gAAAABJRU5ErkJggg==;" parent="1" vertex="1">
          <mxGeometry x="899.3" y="1670" width="195.35" height="140" as="geometry" />
        </mxCell>
        <mxCell id="ir4OMrtsFITVhEPcW_xw-83" value="" style="endArrow=classic;startArrow=classic;html=1;rounded=0;fontSize=1;startSize=10;endSize=10;strokeWidth=1;entryX=0.104;entryY=0.997;entryDx=0;entryDy=0;entryPerimeter=0;" parent="1" source="ir4OMrtsFITVhEPcW_xw-78" target="ir4OMrtsFITVhEPcW_xw-100" edge="1">
          <mxGeometry width="50" height="50" relative="1" as="geometry">
            <mxPoint x="270" y="1470" as="sourcePoint" />
            <mxPoint x="370" y="1530" as="targetPoint" />
          </mxGeometry>
        </mxCell>
        <mxCell id="ir4OMrtsFITVhEPcW_xw-84" value="" style="endArrow=classic;startArrow=classic;html=1;rounded=0;fontSize=1;startSize=10;endSize=10;strokeWidth=1;exitX=0.5;exitY=0;exitDx=0;exitDy=0;exitPerimeter=0;" parent="1" source="ir4OMrtsFITVhEPcW_xw-79" target="ir4OMrtsFITVhEPcW_xw-101" edge="1">
          <mxGeometry width="50" height="50" relative="1" as="geometry">
            <mxPoint x="402.402967223969" y="1730" as="sourcePoint" />
            <mxPoint x="572" y="1640" as="targetPoint" />
          </mxGeometry>
        </mxCell>
        <mxCell id="ir4OMrtsFITVhEPcW_xw-85" value="" style="endArrow=classic;startArrow=classic;html=1;rounded=0;fontSize=1;startSize=10;endSize=10;strokeWidth=1;" parent="1" source="ir4OMrtsFITVhEPcW_xw-80" target="ir4OMrtsFITVhEPcW_xw-101" edge="1">
          <mxGeometry width="50" height="50" relative="1" as="geometry">
            <mxPoint x="412.402967223969" y="1740" as="sourcePoint" />
            <mxPoint x="650.8250000000003" y="1430" as="targetPoint" />
          </mxGeometry>
        </mxCell>
        <mxCell id="ir4OMrtsFITVhEPcW_xw-87" value="" style="pointerEvents=1;shadow=0;dashed=0;html=1;strokeColor=none;fillColor=#07B152;labelPosition=center;verticalLabelPosition=bottom;verticalAlign=top;align=center;outlineConnect=0;shape=mxgraph.veeam.veeam_logo;fontSize=1;" parent="1" vertex="1">
          <mxGeometry x="-359" y="1450" width="176" height="40" as="geometry" />
        </mxCell>
        <mxCell id="ir4OMrtsFITVhEPcW_xw-88" value="" style="shadow=0;dashed=0;html=1;labelPosition=center;verticalLabelPosition=bottom;verticalAlign=top;align=center;outlineConnect=0;shape=mxgraph.veeam.3d.veeam_backup_and_replication_server;fontSize=1;" parent="1" vertex="1">
          <mxGeometry x="-160" y="1438.5" width="69" height="63" as="geometry" />
        </mxCell>
        <mxCell id="ir4OMrtsFITVhEPcW_xw-96" value="" style="shape=image;imageAspect=0;aspect=fixed;verticalLabelPosition=bottom;verticalAlign=top;fontSize=1;html=1;image=data:image/jpeg;base64,/9j/4AAQSkZJRgABAQEASABIAAD/2wBDAAMCAgICAgMCAgIDAwMDBAYEBAQEBAgGBgUGCQgKCgkICQkKDA8MCgsOCwkJDRENDg8QEBEQCgwSExIQEw8QEBD/2wBDAQMDAwQDBAgEBAgQCwkLEBAQEBAQEBAQEBAQEBAQEBAQEBAQEBAQEBAQEBAQEBAQEBAQEBAQEBAQEBAQEBAQEBD/wAARCAH0A4QDAREAAhEBAxEB/8QAHgABAQEAAwEBAQEBAAAAAAAAAAUGBwgJBAMCAQr/xABWEAABAQMJBQYCBQgHBgMJAQEAAQIDBQQRFURkgqLB4QYHEiFRCBMxNWORQWEJFCIygTc4QkNxdbPRI1JicnSxtCQzc3aytRYloRc0NlNlg5LE8CeE/8QAGwEBAAMAAwEAAAAAAAAAAAAAAAQFBgECAwf/xAA8EQEAAQMBAgwFAwEIAwEAAAAAAQIDBBEFUQYSISIxNEFxgbHB0XKRoeHwEyNhMhQWJDNSYoKyQkPxU//aAAwDAQACEQMRAD8A9UwAEiPVe9kBIAAa4ABIj1XvZASAAGuAASI9V72QEgABrgAEiPVe9kBIAAa4ABIj1XvZASAAGuAASI9V72QEgABrgAEiPVe9kBIAAa4ABIj1XvZASAAGuAASI9V72QEgABrgAEiPVe9kBIAAa4ABIj1XvZASAAGuAASI9V72QEgABrgAEiPVe9kBIAAa4ABIj1XvZASAAGuAASI9V72QEgABrgAEiPVe9kBIAAa4ABIj1XvZASAAGuAASI9V72QEgABrgAEiPVe9kBIAAa4ABIj1XvZASAAGuAASI9V72QEgABrgAEiPVe9kBIAAa4AAAAAJEeq97ICQAA1wACRHqveyAkAANcAAkR6r3sgJAADXAAJEeq97ICQAA1wACRHqveyAkAANcAAkR6r3sgJAADXAAJEeq97ICQAA1wACRHqveyAkAANcAAkR6r3sgJAADXAAJEeq97ICQAA1wACRHqveyAkAANcAAkR6r3sgJAADXAAJEeq97ICQAA1wACRHqveyAkAANcAAkR6r3sgJAADXAAJEeq97ICQAA1wACRHqveyAkAANcAAkR6r3sgJAADXAAJEeq97ICQAA1wACRHqveyAkAANcAAkR6r3sgJAADXAAJEeq97ICQAA1wAABIp6x49AFPWPHoA879Hub3FP7dAFA2zBqAoG2YNQFPWPHoAp6x49AHnfo9ze4p/boAoG2YNQFA2zBqAp6x49AFPWPHoA879Hub3FP7dAFA2zBqAoG2YNQFPWPHoAp6x49AHnfo9ze4p/boAoG2YNQFA2zBqAp6x49AFPWPHoA879Hub3FP7dAFA2zBqAoG2YNQFPWPHoAp6x49AHnfo9ze4p/boAoG2YNQFA2zBqAp6x49AFPWPHoA879Hub3FP7dAFA2zBqAoG2YNQFPWPHoAp6x49AHnfo9ze4p/boAoG2YNQFA2zBqAp6x49AFPWPHoA879Hub3FP7dAFA2zBqAoG2YNQFPWPHoAp6x49AHnfo9ze4p/boAoG2YNQFA2zBqAp6x49AFPWPHoA879Hub3FP7dAFA2zBqAoG2YNQFPWPHoAp6x49AHnfo9ze4p/boAoG2YNQFA2zBqAp6x49AFPWPHoA879Hub3FP7dAFA2zBqAoG2YNQFPWPHoAp6x49AHnfo9ze4p/boAoG2YNQFA2zBqAp6x49AFPWPHoA879Hub3FP7dAFA2zBqAoG2YNQFPWPHoAp6x49AHnfo9ze4p/boAoG2YNQFA2zBqAp6x49AFPWPHoA879Hub3FP7dAFA2zBqAoG2YNQFPWPHoAp6x49AHnfo9ze4p/boAoG2YNQFA2zBqAp6x49AFPWPHoA879Hub3FP7dAFA2zBqAoG2YNQFPWPHoAp6x49AHnfo9ze4p/boAoG2YNQFA2zBqAp6x49AFPWPHoA879Hub3FP7dAFA2zBqAoG2YNQFPWPHoAp6x49AHnfo9ze4p/boAoG2YNQFA2zBqAp6x49AFPWPHoAp6x49AJAACvAaxdzArgAMiAArwGsXcwK4ADIgAK8BrF3MCuAAyIACvAaxdzArgAMiAArwGsXcwK4ADIgAK8BrF3MCuAAyIACvAaxdzArgAMiAArwGsXcwK4ADIgAK8BrF3MCuAAyIACvAaxdzArgAMiAArwGsXcwK4ADIgAK8BrF3MCuAAyIACvAaxdzArgAMiAArwGsXcwK4ADIgAK8BrF3MCuAAyIACvAaxdzArgAMiAArwGsXcwK4ADIgAK8BrF3MCuAAyIACvAaxdzArgAMiAArwGsXcwK4ADIgAK8BrF3MCuAAyIACvAaxdzArgAMiAAAAAFeA1i7mBXAAZEABXgNYu5gVwAGRAAV4DWLuYFcABkQAFeA1i7mBXAAZEABXgNYu5gVwAGRAAV4DWLuYFcABkQAFeA1i7mBXAAZEABXgNYu5gVwAGRAAV4DWLuYFcABkQAFeA1i7mBXAAZEABXgNYu5gVwAGRAAV4DWLuYFcABkQAFeA1i7mBXAAZEABXgNYu5gVwAGRAAV4DWLuYFcABkQAFeA1i7mBXAAZEABXgNYu5gVwAGRAAV4DWLuYFcABkQAFeA1i7mBXAAZEABXgNYu5gVwAGRAAV4DWLuYFcABkQAFeA1i7mBXAAZEAAA1wACRHqveyAkAANcAAkR6r3sgJAADXAAJEeq97ICQAA1wACRHqveyAkAANcAAkR6r3sgJAADXAAJEeq97ICQAA1wACRHqveyAkAANcAAkR6r3sgJAADXAAJEeq97ICQAA1wACRHqveyAkAANcAAkR6r3sgJAADXAAJEeq97ICQAA1wACRHqveyAkAANcAAkR6r3sgJAADXAAJEeq97ICQAA1wACRHqveyAkAANcAAkR6r3sgJAADXAAJEeq97ICQAA1wACRHqveyAkAANcAAkR6r3sgJAADXAAJEeq97ICQAA1wACRHqveyAkAANcAAAAAEiPVe9kBIAAa4ABIj1XvZASAAGuAASI9V72QEgABrgAEiPVe9kBIAAa4ABIj1XvZASAAGuAASI9V72QEgABrgAEiPVe9kBIAAa4ABIj1XvZASAAGuAASI9V72QEgABrgAEiPVe9kBIAAa4ABIj1XvZASAAGuAASI9V72QEgABrgAEiPVe9kBIAAa4ABIj1XvZASAAGuAASI9V72QEgABrgAEiPVe9kBIAAa4ABIj1XvZASAAGuAASI9V72QEgABrgAEiPVe9kBIAAa4ABIj1XvZASAAGuAASI9V72QEgABrgAEiPVe9kBIAAa4AAAkU9Y8egCnrHj0Aed+j3N7in9ugCgbZg1AUDbMGoCnrHj0AU9Y8egDzv0e5vcU/t0AUDbMGoCgbZg1AU9Y8egCnrHj0Aed+j3N7in9ugCgbZg1AUDbMGoCnrHj0AU9Y8egDzv0e5vcU/t0AUDbMGoCgbZg1AU9Y8egCnrHj0Aed+j3N7in9ugCgbZg1AUDbMGoCnrHj0AU9Y8egDzv0e5vcU/t0AUDbMGoCgbZg1AU9Y8egCnrHj0Aed+j3N7in9ugCgbZg1AUDbMGoCnrHj0AU9Y8egDzv0e5vcU/t0AUDbMGoCgbZg1AU9Y8egCnrHj0Aed+j3N7in9ugCgbZg1AUDbMGoCnrHj0AU9Y8egDzv0e5vcU/t0AUDbMGoCgbZg1AU9Y8egCnrHj0Aed+j3N7in9ugCgbZg1AUDbMGoCnrHj0AU9Y8egDzv0e5vcU/t0AUDbMGoCgbZg1AU9Y8egCnrHj0Aed+j3N7in9ugCgbZg1AUDbMGoCnrHj0AU9Y8egDzv0e5vcU/t0AUDbMGoCgbZg1AU9Y8egCnrHj0Aed+j3N7in9ugCgbZg1AUDbMGoCnrHj0AU9Y8egDzv0e5vcU/t0AUDbMGoCgbZg1AU9Y8egCnrHj0Aed+j3N7in9ugCgbZg1AUDbMGoCnrHj0AU9Y8egDzv0e5vcU/t0AUDbMGoCgbZg1AU9Y8egCnrHj0Aed+j3N7in9ugCgbZg1AUDbMGoCnrHj0AU9Y8egDzv0e5vcU/t0AUDbMGoCgbZg1AU9Y8egCnrHj0Aed+j3N7in9ugCgbZg1AUDbMGoCnrHj0AU9Y8egDzv0e5vcU/t0AUDbMGoCgbZg1AU9Y8egCnrHj0AU9Y8egEgABXgNYu5gVwAGRAAV4DWLuYFcABkQAFeA1i7mBXAAZEABXgNYu5gVwAGRAAV4DWLuYFcABkQAFeA1i7mBXAAZEABXgNYu5gVwAGRAAV4DWLuYFcABkQAFeA1i7mBXAAZEABXgNYu5gVwAGRAAV4DWLuYFcABkQAFeA1i7mBXAAZEABXgNYu5gVwAGRAAV4DWLuYFcABkQAFeA1i7mBXAAZEABXgNYu5gVwAGRAAV4DWLuYFcABkQAFeA1i7mBXAAZEABXgNYu5gVwAGRAAV4DWLuYFcABkQAFeA1i7mBXAAZEABXgNYu5gVwAGRAAAAACvAaxdzArgAMiAArwGsXcwK4ADIgAK8BrF3MCuAAyIACvAaxdzArgAMiAArwGsXcwK4ADIgAK8BrF3MCuAAyIACvAaxdzArgAMiAArwGsXcwK4ADIgAK8BrF3MCuAAyIACvAaxdzArgAMiAArwGsXcwK4ADIgAK8BrF3MCuAAyIACvAaxdzArgAMiAArwGsXcwK4ADIgAK8BrF3MCuAAyIACvAaxdzArgAMiAArwGsXcwK4ADIgAK8BrF3MCuAAyIACvAaxdzArgAMiAArwGsXcwK4ADIgAK8BrF3MCuAAyIACvAaxdzArgAMiAAAa4ABIj1XvZASAAGuAASI9V72QEgABrgAEiPVe9kBIAAa4ABIj1XvZASAAGuAASI9V72QEgABrgAEiPVe9kBIAAa4ABIj1XvZASAAGuAASI9V72QEgABrgAEiPVe9kBIAAa4ABIj1XvZASAAGuAASI9V72QEgABrgAEiPVe9kBIAAa4ABIj1XvZASAAGuAASI9V72QEgABrgAEiPVe9kBIAAa4ABIj1XvZASAAGuAASI9V72QEgABrgAEiPVe9kBIAAa4ABIj1XvZASAAGuAASI9V72QEgABrgAEiPVe9kBIAAa4ABIj1XvZASAAGuAAAAACRHqveyAkAANcAAkR6r3sgJAADXAAJEeq97ICQAA1wACRHqveyAkAANcAAkR6r3sgJAADXAAJEeq97ICQAA1wACRHqveyAkAANcAAkR6r3sgJAADXAAJEeq97ICQAA1wACRHqveyAkAANcAAkR6r3sgJAADXAAJEeq97ICQAA1wACRHqveyAkAANcAAkR6r3sgJAADXAAJEeq97ICQAA1wACRHqveyAkAANcAAkR6r3sgJAADXAAJEeq97ICQAA1wACRHqveyAkAANcAAkR6r3sgJAADXAAJEeq97ICQAA1wACRHqveyAkAANcAAASKesePQBT1jx6APO/R7m9xT+3QBQNswagKBtmDUBT1jx6AKesePQB536Pc3uKf26AKBtmDUBQNswagKesePQBT1jx6APO/R7m9xT+3QBQNswagKBtmDUBT1jx6AKesePQB536Pc3uKf26AKBtmDUBQNswagKesePQBT1jx6APO/R7m9xT+3QBQNswagKBtmDUBT1jx6AKesePQB536Pc3uKf26AKBtmDUBQNswagKesePQBT1jx6APO/R7m9xT+3QBQNswagKBtmDUBT1jx6AKesePQB536Pc3uKf26AKBtmDUBQNswagKesePQBT1jx6APO/R7m9xT+3QBQNswagKBtmDUBT1jx6AKesePQB536Pc3uKf26AKBtmDUBQNswagKesePQBT1jx6APO/R7m9xT+3QBQNswagKBtmDUBT1jx6AKesePQB536Pc3uKf26AKBtmDUBQNswagKesePQBT1jx6APO/R7m9xT+3QBQNswagKBtmDUBT1jx6AKesePQB536Pc3uKf26AKBtmDUBQNswagKesePQBT1jx6APO/R7m9xT+3QBQNswagKBtmDUBT1jx6AKesePQB536Pc3uKf26AKBtmDUBQNswagKesePQBT1jx6APO/R7m9xT+3QBQNswagKBtmDUBT1jx6AKesePQB536Pc3uKf26AKBtmDUBQNswagKesePQBT1jx6APO/R7m9xT+3QBQNswagKBtmDUBT1jx6AKesePQB536Pc3uKf26AKBtmDUBQNswagKesePQBT1jx6APO/R7m9xT+3QBQNswagKBtmDUBT1jx6AKesePQB536Pc3uKf26AKBtmDUBQNswagKesePQBT1jx6AKesePQCQAArwGsXcwK4ADIgAK8BrF3MCuAAyIACvAaxdzArgAMiAArwGsXcwK4ADIgAK8BrF3MCuAAyIACvAaxdzArgAMiAArwGsXcwK4ADIgAK8BrF3MCuAAyIACvAaxdzArgAMiAArwGsXcwK4ADIgAK8BrF3MCuAAyIACvAaxdzArgAMiAArwGsXcwK4ADj3afajZ/YvZ+XbU7VRVxDYTDXSvpVKn6zMO2PD4c1VVVEREnVVVERFVQIu7re5u23tQ55Fd3W2Egjbhysz5ly0rD5z07x02iPGJ/hxMpP8AORYDWLuYFcABkQAFeA1i7mBXAAZEABXgNYu5gVwAGRAAV4DWLuYFcABkQAFeA1i7mBXAAZEABXgNYu5gVwAGRAAV4DWLuYFcABkQAFeA1i7mBXAAZEABXgNYu5gVwAGRAAAAACvAaxdzArgAMiAArwGsXcwK4ADIgAK8BrF3MCuAAyIACvAaxdzArgAMiAArwGsXcwK4ADIgAK8BrF3MCuAAyIACvAaxdzArgAMiAArwGsXcwK4ADIgAK8BrF3MCuAAyIACvAaxdzArgAMiAArwGsXcwK4ADIgAK8BrF3MCuAAyIACvAaxdzArgAOqPb0VU7Ku2fP9OG/9wk4HlFsxtXtLsVGpPtFslHZdCInJVndSqRvmnTxnqk6eKL8UXkqclRQO+HZ0+kzYkTTvZzf/C2lZecLDO0UNcc0mn+1KJOz4+PNp0n/ANv4gegWyW2Oyu3sCk+02xm0MgjUKlSTupXIn7L12q/FlVTwaT4srMqLyVEAsgZEABXgNYu5gVwAGRAAV4DWLuYFcABkQAFeA1i7mBXAAZEABXgNYu5gVwAGRAAV4DWLuYFcABkQAFeA1i7mBXAAZEABXgNYu5gVwAGRAAV4DWLuYFcABkQAADXAAJEeq97ICQAA1wACRHqveyAkAANcAAkR6r3sgJAADXAAJEeq97ICQAA1wACRHqveyAkAANcAAkR6r3sgJAADXAAJEeq97ICQAA1wACRHqveyAkAANcAAkR6r3sgJAADXAAJEeq97ICQAA1wACRHqveyAkAANcAAkR6r3sgJAADXAAJEeq97ICQAA4h+kK/NG24/vwv8A7lJgPGsABsd2W9/eNuejSR3d7tRK4U+aVO/csrxyeUsp+i9dNTsNp4+KTpPyVF5gejfZa7cUF34RaT7AbYwZ3A9rnrppqTtOGlakcQVhlWm0d8X2nbfCjTXAqtIqMrM1PyA7qAAJEeq97ICQAA1wACRHqveyAkAANcAAkR6r3sgJAADXAAJEeq97ICQAA1wACRHqveyAkAANcAAkR6r3sgJAADXAAJEeq97ICQAA1wACRHqveyAkAANcAAAAAEiPVe9kBIAAa4ABIj1XvZASAAGuAASI9V72QEgABrgAEiPVe9kBIAAa4ABIj1XvZASAAGuAASI9V72QEgABrgAEiPVe9kBIAAa4ABIj1XvZASAAGuAASI9V72QEgABrgAEiPVe9kBIAAa4ABIj1XvZASAAGuAASI9V72QEgABrgAEiPVe9kBIAAcQ/SFfmjbcf34X/3KTAeNYAABy12TGmmO0ju9VhpUWmnScuioqL/AOgHuMAAkR6r3sgJAADXAAJEeq97ICQAA1wACRHqveyAkAANcAAkR6r3sgJAADXAAJEeq97ICQAA1wACRHqveyAkAANcAAkR6r3sgJAADXAAJEeq97ICQAA1wAABIp6x49AFPWPHoA879Hub3FP7dAFA2zBqAoG2YNQFPWPHoAp6x49AHnfo9ze4p/boAoG2YNQFA2zBqAp6x49AFPWPHoA879Hub3FP7dAFA2zBqAoG2YNQFPWPHoAp6x49AHnfo9ze4p/boAoG2YNQFA2zBqAp6x49AFPWPHoA879Hub3FP7dAFA2zBqAoG2YNQFPWPHoAp6x49AHnfo9ze4p/boAoG2YNQFA2zBqAp6x49AFPWPHoA879Hub3FP7dAFA2zBqAoG2YNQFPWPHoAp6x49AHnfo9ze4p/boAoG2YNQFA2zBqAp6x49AFPWPHoA879Hub3FP7dAFA2zBqAoG2YNQFPWPHoAp6x49AHnfo9ze4p/boAoG2YNQFA2zBqAp6x49AFPWPHoA879Hub3FP7dAFA2zBqAoG2YNQFPWPHoAp6x49AHnfo9ze4p/boAoG2YNQFA2zBqAp6x49AFPWPHoA879Hub3FP7dAFA2zBqAoG2YNQOvPb/i31rsnbauPq3BxNwznxTzf+YyZegHj4AAAcu9kZ13/AGlt3Tni4eOOOUn6clA9rKesePQBT1jx6APO/R7m9xT+3QBQNswagKBtmDUBT1jx6AKesePQB536Pc3uKf26AKBtmDUBQNswagKesePQBT1jx6APO/R7m9xT+3QBQNswagKBtmDUBT1jx6AKesePQB536Pc3uKf26AKBtmDUBQNswagKesePQBT1jx6APO/R7m9xT+3QBQNswagKBtmDUBT1jx6AKesePQB536Pc3uKf26AKBtmDUBQNswagKesePQBT1jx6APO/R7m9xT+3QBQNswagKBtmDUBT1jx6AKesePQB536Pc3uKf26AKBtmDUBQNswagKesePQBT1jx6AKesePQCQAArwGsXcwK4ADIgAK8BrF3MCuAAyIACvAaxdzArgAMiAArwGsXcwK4ADIgAK8BrF3MCuAAyIACvAaxdzArgAMiAArwGsXcwK4ADIgAK8BrF3MCuAAyIACvAaxdzArgAMiAArwGsXcwK4ADIgAK8BrF3MCuAAyIACvAaxdzArgAMiAArwGsXcwK4ADqj29PzVds/wC/Df8AuEnA8jQAADmHsffnO7t/365/yUD2RAAV4DWLuYFcABkQAFeA1i7mBXAAZEABXgNYu5gVwAGRAAV4DWLuYFcABkQAFeA1i7mBXAAZEABXgNYu5gVwAGRAAV4DWLuYFcABkQAFeA1i7mBXAAZEAAAAAK8BrF3MCuAAyIACvAaxdzArgAMiAArwGsXcwK4ADIgAK8BrF3MCuAAyIACvAaxdzArgAMiAArwGsXcwK4ADIgAK8BrF3MCuAAyIACvAaxdzArgAMiAArwGsXcwK4ADIgAK8BrF3MCuAAyIACvAaxdzArgAMiAArwGsXcwK4ADIgAK8BrF3MCuAA6o9vT81XbP8Avw3/ALhJwPI0AAA5h7H35zu7f9+uf8lA9kQAFeA1i7mBXAAZEABXgNYu5gVwAGRAAV4DWLuYFcABkQAFeA1i7mBXAAZEABXgNYu5gVwAGRAAV4DWLuYFcABkQAFeA1i7mBXAAZEABXgNYu5gVwAGRAAANcAAkR6r3sgJAADXAAJEeq97ICQAA1wACRHqveyAkAANcAAkR6r3sgJAADXAAJEeq97ICQAA1wACRHqveyAkAANcAAkR6r3sgJAADXAAJEeq97ICQAA1wACRHqveyAkAANcAAkR6r3sgJAADXAAJEeq97ICQAA1wACRHqveyAkAANcAAkR6r3sgJAADiH6Qr80bbj+/C/wDuUmA8awAADlnsnfnIbvf305/yUD3HAASI9V72QEgABrgAEiPVe9kBIAAa4ABIj1XvZASAAGuAASI9V72QEgABrgAEiPVe9kBIAAa4ABIj1XvZASAAGuAASI9V72QEgABrgAEiPVe9kBIAAa4AAAAAJEeq97ICQAA1wACRHqveyAkAANcAAkR6r3sgJAADXAAJEeq97ICQAA1wACRHqveyAkAANcAAkR6r3sgJAADXAAJEeq97IDrxvh7ZG47cvEVgcejcpjEXdtcL+HQR2xKX0n/4qtNsu2F/sq1xfIDVboO0Hup34yBqVbA7Su38qdM8UohspTuZbJ06tOlWdWf7TKtM/CecDnQABIj1XvZASAAGuAASI9V72QEgABrgAEiPVe9kBxxtTvd3d7GS2jdoNpXLmVp99y6dtv23f99HbLXD4osyzKqeBAydqYmJVxLtek7uny6EHI2li4tXEu18vz8lzZvajZ7bCFu41szGJNEZG85I9cNz8KzT8LSeLLSTpOy0iKnxQlWr1u/Tx7c6wk2b9vIp49qdYchHq9QCRHqveyAkAANcAAkR6r3sgJAADXAAJEeq97IDiXbTtDbk93kbY2b2y3lQWGRRpURqStvlbbdT+HeIwi911+3NyA3ULikMjcPk8Wg0Rk0vkMrYR64lMmesvXT1hfBpltlVRpPmigcVfSFfmjbcf34X/wBykwHjWAAAcs9k785Dd7++nP8AkoHuOAAkR6r3sgJAADXAAI8fVESTqq/1sgOvm1fbO7N+xu0i7LRfeNJ3ksdt92/bkUmfSpw4a8Jm3rplpmdF5KiKqp8ZgOXYBtDAtqoRJo/s1GJHFIbLGONxKpI+ZeunjPyaZVU/kBvgAEiPVe9kBIAAa4ABIj1XvZASAAGuAASI9V72QEgABrgAEiPVe9kBIAAa4ABIj1XvZASAAGuAASI9V72QEgABrgAACRT1jx6AKesePQB536Pc3uKf26AKBtmDUBQNswagKesePQBT1jx6APO/R7m9xT+3QBQNswagKBtmDUBT1jx6AKesePQB536Pc3uKf26AKBtmDUBQNswagKesePQBT1jx6APO/R7m9xT+3QBQNswagKBtmDUBT1jx6AKesePQB536Pc3uKf26AKBtmDUBQNswagKesePQBT1jx6APO/R7m9xT+3QBQNswagKBtmDUBT1jx6Acfb3O0tuv3IQmk94EZcyR68YVqTQ9y33sslX/AA3SJOqT8uJZmUXxaQDzk7RP0g+9He+0+gOw7LzYrZpUadqxJX08vlTC8l71+k3AioifYdzeKorTaAdUlVWlVppVVV5qq/ED7IPGYvs/E5PGoDFJXDohJG0eSeVSV806eum0/SZbZVFRf2KB3o7Pv0ncfgrMm2Z39wtqMyRJnbEfkLtliVO08EV+5REZep1aY4Wpk+62qgd+Ni97Gx+8SBOdpth4tIo1DH/3ZRJZRxIjU3NlpJp2Gkn5stIjSfFEAu+d+j3N7in9ugCgbZg1AUDbMGoCnrHj0AU9Y8egDzv0e5vcU/t0AUDbMGoCgbZg1AU9Y8egEPavenszsVIfr+0T93JmWkXunXHxPXyp8GGESdfFOfgk/NUQiZedj4NHHv1aR9Z7oRsnLs4dPHvVaec90Osu9TtMbUbYK1DtlnbyAw1EVnjYbnlb1FXxabT/AHack5Mc0mX7SosxidocJr2TrRjRxKd/bPt4fNk83b17I5ljm0/X7eHzcESlWmmlaaVVVeaqpQUzryyonwQja3ard7HEj2yEalMOfPV+33TX2Hn9lthZ2W0+MzSLzLfBy7ljltzpMJGPk3carj2qtJdtt1PbU2f2iZcwjeJD3MGiTUzKS500v1N6s8yTzztOl5/FVZ5KqtJ4Grw9uW7mlGRzZ39n28mqwtvW7ulGRzZ39n2dgpPtNJ5W4dyqSumHzl8yjbt47eo0y2yqToqKiTKip8S9iYqjWF/ExVGsP0879Hub3FP7dDlyUDbMGoCgbZg1AU9Y8egCnrHj0Aed+j3N7in9ugCgbZg1AUDbMGoCnrHj0Axu87f7u63OwNY/vCjclhbhpF7h0084n8paT9F06ZRWm18PBJknnVUTmB519on6RreDvMV9s9urkr7Y2A/adrK0eIsTlLK/FXjPJwizJydztJ/XmWYDp++fPpQ+blEoetvXr1pW2222laaaaVZ1VVXmqqvxA5L3Mdo7etuJiCP9iNoW6Obb45TCJXO9kT/qqu504Gl/rsKy1y8ZuQHZvtC9v/Yjft2botu8TY6KQjamMvZGy+dcbD2SOkcyl2+aeMveTTSL3XCjKsoqK18USdQ6LAAAHLvZGdd/2lt3Tni4eOOOUn6clA9rKesePQBT1jx6APO/R7m9xT+3QBQNswagKBtmDUBT1jx6AcT77e11um3DyNpNr4gkojDTHHJ4LIW0eyx7P4KrPJHbK/1m1ZRec068gPNntD9uPe5v5bfwdxKP/CuyzfEwkJhz5eN+wvwlD/k09+bKIyx4fZnScDroBv8AdHv33n7kIvSm7/aV9JHTxtGpTIHs7yRyqb4PHSrMqzcuJJmk+DSAek+4P6RbdlvTSTbP7cyVzsdtK8mYRmUyj/YJU34f0T5U+wqr+g8m8URGm1A7RJH0VEVJJOi+C8egH++d+j3N7in9ugCgbZg1AUDbMGoCnrHj0AU9Y8egDzv0e5vcU/t0AUDbMGoCgbZg1AU9Y8egCnrHj0Aed+j3N7in9ugCgbZg1AUDbMGoCnrHj0AU9Y8egDzv0e5vcU/t0AUDbMGoCgbZg1AU9Y8egCnrHj0Aed+j3N7in9ugCgbZg1AUDbMGoCnrHj0AU9Y8egDzv0e5vcU/t0AUDbMGoCgbZg1AU9Y8egCnrHj0AU9Y8egEgABXgNYu5gVwAGRAAV4DWLuYFcABkQAFeA1i7mBXAAZEABXgNYu5gVwAGRAAV4DWLuYFcABkQAFeA1i7mBXAi7X7abJ7AQGUbT7a7QyCCwqSpO9lUsfI7YRfgyk/3ml+DKTqq8kRQPOff39JFLJX9Y2b3Cw9qSuubtraCIOUV40nWTuGuTPyaeIq8/uMrzA6QR7aCO7UxaUx7aWMSyKRKVt8b+VSt809evGuqtNKqqB8AAAAA1e7jervA3SR1naLd9tPLIRK+SPUdNTupQyn6D121Ow8Z+TSLN4pMvMD0U7Nn0juwW1jTvZrfM5cbJxl9wO2ImxOsMlDXP7yrO1J1Wf9JWmPFVbTwA7tySVyWXyV1LZDKXUok79hl46fOm0bYeMKk6NMtJyVFTmioB+wGRAAV4DWLuYFcD5YlE4dBpE9iUWlziRyVyk7x8/eIwwz8EnVeXjyOly7RZpmu5MREdsuldym1TNdc6RG91n277RSMo3D9hJPOq8liEpd/Jebt2v4c20+Cpw/Exm0+FtNOtvBjWf9U9HhHv8AKWZzuEMRrRiR4z6R7/JwRGYnEYxK3sRistfyuVPVnbevm1baXok6/BPBE8EMVdyLuTXNy9VNUz2yy127Xeqmu5OszvRX53pdYTX/AIqSKXKTLnTL5007a+PgvRepJt1cWdXaEFjidtqw1yVFmUmzyxq7OR92e+nbjdo9ZdwWI/WIarXE8h0qnbcNTzzqyk87tec87KpOs08/gScXaN/Bn9udY3T0JuHtG/hT+3PJunody9zHaF2D3htUY3Kkg8bfoyjMglbaJ3rXxR085MvOa8k5NLMq8MyTmswtr4+ZpTrxat0+k9vn/DXYW1rGZzf6at0+k9vn/DmctVoAZEABXgNYu5gVwJ8e2ggWy0IlMf2ljEihUMkTHeSiVyx+y5cumerTbSoiAee+/v6SGHyD6xs3uGkDMtlCTu29oJe5VHLC9XDhrm2vRp5Mk6fcaTmB0P2t2x2q28jj/aXbKPy6MROUrO8lMreq8bm+DKT8mWU+DKTIngiIBHAAAAAAAA5h7H35zu7f9+uf8lA9kQAFeA1i7mBXAy28TefsBum2eebUbxNqZDBIc7nRluUN/bfNIk/A6dpO28b/ALLCKvyA82N/f0jO1e1P1jZzcrI32zkLandtReUIysvfp4Tu2ebLhF6/ab8FRWF5AdNpdL5dFJY+iMTlj+VyuUtq9fP37xXjx62qzq0001OrSqvxUD8AAAAB2A3C9tLexuRWTwZ9K12m2XdTM0TEHq8ThjpJ33Np1/dVGmPH7M6zgel/Z07UG6XfvJXrvZOOsyWNcDLb6CS9WXUsdzIvErLM8z1lP6zCqicp5l5Ac4gAMiAArwGsXcwK4ADIgAK8BrF3MCuAAyIACvAaxdzArgAMiAArwGsXcwK4ADIgAK8BrF3MCuAAyIAAAAAV4DWLuYFcABkQAFeA1i7mBXAAZEABXgNYu5gVwAGRAAV4DWLuYFcABkQAFeA1i7mBXAAZEABWgbTLDMpbbaRlllEVVVZkROYHU/tD/SRbud3CyrZrdK5cbZ7Qu+J21K0bVIXJW06vGecoVOjtUZX+uipMB5vb199W8zfZHl2h3kbVSuKvmVX6u4VeCTSVlf0XLlmZhhPCdUSdZp1VV5gYgAAAAAAAABzRuE7W++Ls+Sp3J9lo3SEAVvifQKIq09kjU6/aV2k/E5aX+swqTrNxI14Aem3Z37a+6LtBfV4JJZW1s7tY8Z+1A4g8TietIk6/V3vJl8k06zJM3MiqrCJzA5UAAV4DWLuYHHG8TtGbL7K97DdmUdxyJszsq07b/wBlctTeLTaffXmn2WOiorTKmZ2pwnxcHW3Z59f8dEd8+kfRR523LGNrRa51X0jx9vo627Y7ebU7eS/6/tJFHko4FVXLhn7Llwi/BhhOScpkn5tLMk6qfP8AO2plbSr42RVydkdkeHr0sjl51/Nq416rX+OyPBmHviQYRHyP/unpSJz/ACJFLmE1/wCJIpcpko8D3ocwiy53M33qfsUmW55NHZ/Lh58DmqBQcPP/AEPCqBz5un7Ve22xHcwraZpvaODMTMIy/ef7U4Zn/QerPxIk/wB1ufwREVlC4wdvX8XSi9zqfrHj7/Nc4W27+NzLvOp+vz93b3YDehsVvMh31/ZSLsP22GUafyR59iUyef4Nu/FOfLiSdlVRZlU2GJnWM6njWatd8dsd8Nbi5tnMp41qfDth/BLSgCtAlRElCqsyJw5gda+0P9IRun3P/Wdndim3W2u1LudhXMjfJ9Rkrfh/TShJ0aVF/Qd8S8lRVYXmB5q76O0TvY3+Rekt4e0z2USZ22rclhknndSGST//AC3SLNPNy42uJtU8WlA41AAAAAAAAAAOYex9+c7u3/frn/JQPZEAB90iiUOg8giEUi0vk8ikUkd96/lMpesu3TphOJVabbaVEZRE8VVZgOm/aH+k02U2X+s7MbiJE52jijPE7bjcqYaZkDhrwndMcmn6pz5/ZY8FRW05Aedu8LeXt5vW2he7U7wtqJdHIk9nRHspeTsumZ5+B2wkzLtj+ywiJ8gMyAAAAAAAB+8gl8uhUtcRKFy1/I5XJXjL1xKHDxXbx02izo0y0yqKyqL4KgHdvs8fSZbYbI/VtmN+cjfbTwlmZ2xGZOjKRGTs+E7xnkzKETr9lvxVVbXkB6Lbut5+wO9nZ11tVu72okUbhrxeFXknb+26bmn4HjCzNu25v0WkRfkB+IACvAaxdzArgAMiAArwGsXcwK4ADIgAK8BrF3MCuAAyIACvAaxdzArgAMiAArwGsXcwK4ADIgAAGuAASI9V72QEgABrgAEiPVe9kBIAAa4ABIj1XvZASAAGuAASI9V72QEgABrgAEiPVe9kBIAAa4ABwH24orEIL2Z9tZdDJU3J36w5JPxsLMvdvX7p08Sf5sNtJ+IHi2AAAAAAAAAAAAH1wiKxCBRWRxuEypuTS2Hyh3KpM+YWZp29YaRplpF6oqIoH/Qoizoi9QP9A4b7WMYiEE3LxqVwuUtyd+8YdyfvGFmaRh4+dMNoi/NlppPxKzbFyq3hVzT/ABHzlV7auVWsKuaZ5eSPnLpVsHGVl0PWGv2p30jREZn/AEnfw9vD2PlGdZ4lfHjonzfPYlqCFDl+L3xO8D5H/wB1eR6Uic/JFLmE1/4qSKXKZKPA96HMJUqmWeclUOz4nbXC1Me0xqPucvPBTxqgfe5eeB4VQ4lqN1O1EQg++HZBxC5S26V9FZPJZRwrybdvm0dtML1ThaVf2zdC02PTVbyKLkdsxHhM8qdsyuq3l25p7ZiPnyPTU+hPoYB04+k8262j2S3KwaD7PxF9ImNo4ssil7xy2rLbyTMuWm2nU6c0ZaaRni6oiovJVQDymAAAAAAAAAAAADlnsnfnIbvf305/yUD3HAAdD/pX9pozDththdl5FLXjmHxmXyx/LXTDSoj5XDDnu2WpvFlFeq1MvKdGV8UQDzPAAAAAAAAAAAADtF9HRtFFoV2iJPA5HLHjEhjcLlbqWOOJeB53btXrDSp4cTLTPJfFEaaT4qB6/AAJEeq97ICQAA1wACRHqveyAkAANcAAkR6r3sgJAADXAAJEeq97ICQAA1wACRHqveyAkAANcAAAAAEiPVe9kBIAAa4ABIj1XvZASAAGuAASI9V72QEgABrgAEiPVe9kBIAAa4ABIj1XvZASAAGuAAdeO3t+a5tp/hXH+rk4HjMAAAALmxmw21+8OOuNmdiNnZbGYnKPuSeSulaVE+LTS+DDKT82mlRlPiqAd59zv0Z0LSGsxTfdtLKm5c9ZRWYVBXzLDtx/xH7TKq218mEREVPvNIBjt+/0cW1Oy7t/tDuUiL/aSHMIrbcIlbTLMvdp8e7bRGWHyePKZlrwREbUDprEYbEYPL38Li0glEilsleK6fyaUumnb102nJWWmGkRWVToqAfOAAAAP+h10s7thf7KAf2Bwf2xfyIRb/iSb/UuSn271Gvw84U23+oV+HnDoBB4k9hERcy91OvAszbP9ZlfFD59doi7RNEvn8To5bcvnUpcsShy2jTt4yjTLSfFFKLSaZ0l6P4e+J2gfI/+6elInP8AIkUuYTX/AIkilymSjwPehzCVKfiSqHZNbb4G0VfAkRGrnsfU4efA8qocPrblbMmcNPmv0U5J1U84o488U6X27oW2nu9zY542s7TUfkCqv/32C3w4iL9uI3x5pmD1m38Ueb1dNy+iAHRj6WD8luxP7/ef6doDzGAAAAFTZrZfaPbKNSfZ3ZSBy2LROVtcLmSyNy09eNdVmTwRPFVXkic1A7m7t/oydooxsw/iO8zbZmARiUOp5HIJC5ZlSSZvrKG+JGWuisu1m/tr4AddN9vZl3sbh5Y1/wCL4GsohDTfBJ4zIZ3sjezryRWpp3bS/wBVtGVXnNOnMDikAAAAcs9k785Dd7++nP8AkoHuOAA8+vpbPJ92P+Ji3/RJQPOQAAAAbbdZuY3k75o0kE3e7MSmItsNIkolM3BJpMi/F69a+yx1mn4lm5Iq8gO62zn0XuzX/g9462t3kRJNqXrE7D6HOWFkEmbm+6rttnvHyT/Hidz9EA6o78Oyzva3Dylt/tPBfr0DVvhcxuHo09kjU68kbWad00v9VtEnXwVrxA4hAAAAHY/6Pn856A/4GIf6ZsD2RAASI9V72QEgABrgAEiPVe9kBIAAa4ABIj1XvZASAAGuAASI9V72QEgABrgAEiPVe9kBIAAa4AAAkU9Y8egCnrHj0Aed+j3N7in9ugCgbZg1AUDbMGoCnrHj0AU9Y8egDzv0e5vcU/t0AUDbMGoCgbZg1AU9Y8egCnrHj0Aed+j3N7in9ugCgbZg1AUDbMGoCnrHj0AU9Y8egDzv0e5vcU/t0AUDbMGoCgbZg1AU9Y8egCnrHj0Aed+j3N7in9ugCgbZg1AUDbMGoCnrHj0AU9Y8egHBnbffJE+yvt++Vnu/q8kkyzTz8U8rc/s6AeNIAABo92+yK7fbwtmth/rKydI/FpJDWnyJOrpl89ZYVtE+MyNKs3yA9s91m5/d1uy2bdbL7utmZLBZJJ2We+ess8b+WNzf7x89WZp41yXmqzJPMiInIDZ0DbMGoCgbZg1A4C7W24jd1vr3dR2MxPZmTyXaqEw1/KobGXKIxKGW3TtW2XTxpETvHS8PCrLU8yNKrMy8wPHMAAAAf9AzqPf0TH+x/op+n8v2Af3T1jx6AcQ9q9/SO4uPvuDu+4eyPlPPxcUpd/yKbb86YFfh5wpeEHJs+vw84efrTB8+ip86ipttgoxxuW4M/b+07nbcz/Fn4p+C8/xXoQcy1y/qQ96J15Gqe+JDh3fI/wDuryPSkTn5Ipcwmv8AxUkUuUyUeB70OYSpV8SVQ7JMq8CTS7R0P7kj7iREVebIrp0cS/iXyhXrSOkX7LHj81FunTlOhp9zDvvd72xLrim49oYezP0nlDBNw5/xFv4o80vB61b+KPN6i09Y8ehuX0Qp6x49AOkv0qEs+vbqtjm+74O72gaTxnnnkzzn/wCgHmgAAAcr9mLcrI9/e9eR7BRONP4XIVkz6Wyp9J3aNvWnTuadhji5I0qtInEqKieMy+AHrpuh3Fbrt08DoPdxstJ4SjLKJKZY1/TSuWr1evmpmmuaKqM8mUnXhREA31A2zBqB88v2SkEVkT+GxNHEskkpYV0+k79wjx29YVJlZaZaVUaRU+CgeePbg7Hm7LYbYqJb5t2jl9s+kjlDhmWwVlrvZI8R89Zd8Tmf7TpUabRVZnVmbkyjM3MOhgAABy72RnXf9pbd054uHjjjlJ+nJQPaynrHj0AU9Y8egHQf6V2XfXYNu2XuuDglMU+M887Em/kB53AAAHZDsO9n/Y3fvvCijvb760/g2z0jdyt5IZO+VysreNt8LLDbxPtMsTI0q8Ko0vKZU5genUTjm6XcrsdJYcxJ4bstCJEy0zIobIHDPFKF5T8DtmZWmlVE4ml+KorS85yLlZtnCo496dPOe5Gysyzh08a7OnnLrzHu13tO92gdyjZyCSRxB3LSosnlSK2+lDPVpplZmFm8EZnmXxVoy17hJem5rapiKd09M+350s1d4Q3Zua26YindPTP5+auct2m9rd1vikiwRZYxJInKXTTD+DxB2y13rKovEjCqvC+ZmnnTxmnnZRC/wNrY+dzaZ0q3T6b15hbUsZvNidKt0+m90u+kB7MW7Ddzs3It7O7eDrs+1LYsxD5fCnLc8jaV47eNsvXTCp/RKiulRWE+xM0kyMzc7RZOjQAD7oJAo1tLFZNAtnYTLInEZY2jqTySSOWnz562vwZYZRVVf2Aek/Yd7D+2O6uOLvZ3pyhxD4u3I25NDoO6aR68kyPJuN4/bZXhRvhRWUYZVqZGlnVF5IHdSnrHj0AU9Y8egDzv0e5vcU/t0AUDbMGoCgbZg1AU9Y8egCnrHj0Aed+j3N7in9ugCgbZg1AUDbMGoCnrHj0AU9Y8egDzv0e5vcU/t0AUDbMGoCgbZg1AU9Y8egCnrHj0Aed+j3N7in9ugCgbZg1AUDbMGoCnrHj0AU9Y8egDzv0e5vcU/t0AUDbMGoCgbZg1AU9Y8egCnrHj0AU9Y8egEgABXgNYu5gVwAGRAAV4DWLuYFcABkQAFeA1i7mBXAAZEABXgNYu5gVwAGRAAV4DWLuYFcABkQAHD3bK/NQ3k/4OSf6x0B43AAAHI/Zt/OC3cf8ANEN/1DAHuFAaxdzArgAOMd4f/wAAbTfueW/wWwPC0AAAAe97jm5dr/ZT/ID+wONO0wk+4fadPVkH+qYKPhHOmzq57vOFHwjnTZ1fh5w6EtO+R84prfNoqJPK3kLlLuIOWpm3DXEnz+X4+H4ntTT+tzN72tzM1REOT5FL3EUkLmXyZf6N8wjSfJfin7UXkVly3NmuaKumEqY0fy/+6KROf5EilzCa/wDEkUuUyUeB70OYSpT8SVQ7JMq8CTS5jofMw207a4mfE9ZjVy/3x5nV1bPckk2+TYX/AJjh3+oYJOH1i38UeaXgdat/FHm9KjdPooB0z+lA/JPsp/zF/wDrPQPNkAAA7RfRx/nHO/3HLv8AN2B6zwGsXcwK4ADqX2+/zWtqv8RDv9a5A8kwAADmHsffnO7t/wB+uf8AJQPZEAB0T+lO8m3df4qJ/wDTJwPPkAAA7v8A0W//AMZ7d/uuSfxWwOb+2P53s1/hZR/1smP4T/5lvulk+Ef+Zb7pddjLs25H7On5a9lP8Y1/CbLLZHXrff6LDZXXLff6Nt9Jb+b5D/8AmeR/6eUn0Z9AeXoHZ7s6dgjervtacR7aNlvY7ZZeFtZZLXK/WpUwv/yHCzKqKng23wszLOnF4Aeme5Ps37pdwMJ+obvtm3buWvWEYlUWlUz6XSr++9mSZmdJ+BhGWJ+fCByeBkQAFeA1i7mBXAAZEABXgNYu5gVwAGRAAV4DWLuYFcABkQAFeA1i7mBXAAZEABXgNYu5gVwAGRAAAAACvAaxdzArgAMiAArwGsXcwK4ADIgAK8BrF3MCuAAyIACvAaxdzArgAMiAArwGsXcwK4ADIgAOIO2R+ajvK/wUl/1boDxsAAAOR+zb+cFu4/5ohv8AqGAPcKA1i7mBXAAcY7w//gDab9zy3+C2B4WgAAAD3uk6zyd0v9hn/ID9AONu0qk+4nadPVkP+qYKHhNOmzLnh/2hQ8JeTZtzw84dDmmD5hTU+YxVokRR+ivO4Y8GebU3UvMC1pT+pV29Czxbekcee1pN3kb7l+3BX7f2H07xzP8ABv4p+Kc/w+Z47Ux+NT+tT2dKRXHa3L/7q8impeac/JFLmE1/4qSKXKZKPA96HMJUq+JKodkmVeBJpdo6HyHs5f0yvwOlW91ltdyf5Y9hv+Y4d/qWCRhT/iLfxR5pWB1q38Ueb0pN2+igHTP6UD8k+yn/ADF/+s9A82QAADs79HTKZNJ+0hJmH7927afwaWunSNtIittzMNcLM/iszLSzdEUD1sgNYu5gVwAHUb6QCUydx2XtpHT5+7dtyiVQ526ZaaRFeNJK3TSoynxXhZaWZPgir8APJgAAA5h7H35zu7f9+uf8lA9kQAHRP6U7ybd1/ion/wBMnA8+QAADub9GNtHA4VvJ2pgcSicnk0ti8McpIXT1tGVlDTt4qtssT/eaRGkXhTnMir8FA7yb29w8m3ySJ1KZPGW4dFoWw0zJWm2eNw8RtZ1ZeIn2k5spM0nhOvJeRUbV2XG0YiYq0qjo3KraezIz4iYnSqOjc6l7Q7k95+ze0jrZaW7IS5/LZS0rMmakrtXzqUJ/WYbZ5TTc1nmVlPvIhjL2zcqzd/SqonWejTl1ZG7s/Js3P0qqJ1no05dXY3cL2WIjsbG5Bt3txE2WIlIlV7JobJWkaZdNKyrM7154NKiNL9lnlPN9pfA0myth1Y9cX788sdER6z7fNoNmbFqx64v3p5Y6Ij1lX7R+42SdoPdq82DlEcbg793LHUQkkrZc98yw+do0zM2xxM8TKsttp4pMqovOaZdM0bB7huw3uo3NNuI7F3abXbSulRtmXxBwiOJO11cSedpllU5faaVppFSdFZ8AO0kBrF3MCuAAyIACvAaxdzArgAMiAArwGsXcwK4ADIgAK8BrF3MCuAAyIACvAaxdzArgAMiAArwGsXcwK4ADIgAAGuAASI9V72QEgABrgAEiPVe9kBIAAa4ABIj1XvZASAAGuAASI9V72QEgABrgAEiPVe9kBIAAa4AB187eKT9l/bX/AATr/VOAPGIAAA5O7MH5xu7L/myF/wCpYA9u49V72QEgAB9e8n8nW1P7ll38BsDwCAAAAH/Q3Jf/AHVz/wANn/ID9QOF+1qk+5qKJ6kn/wBQ6M9wpnTZdz/j/wBoZ/hRybMuf8f+0PP+Ivkkcnaer95eTKdVPmeFanJuxR2dvc+Z41E3q4p7GaVVaVVVZ1XmqmsiIiNIX0RpyQ/py+eSd8w/ctqw8dtI0y0nwVPBRVTFUTTPRI5ahcUdxmFupe7mRW0mbZT9FtPFP/74TGWvWZsXJol4zGk6P5f5HakhNf8AiSKXKZKPA96HMJUp+JKodkmVeBJpcx0PkPZ2f6Olw2O56Zd6+xi//XpB/HYPTD5Mm3H+6PNIwetW/ijzerhvH0YA6MfSwfkt2J/f7z/TtAeYwAAB+kllUpkUpdSyRSh7J5Q4bR46eum1YbYbRZ0aZaTmiovxQDuJuK+kc2+2RYkezW+Ry/2tgriZ2xEmVRInJ2eX3mlmZlCJN+kqN81VW18AO/e77e3u53pbNrtXsNtZIYlD3THHKGkecDcl5Tqj5hqZp0qIir9pE5JP4cwOue/z6QzYLYL6zs7uocuNro6xOwst41oyTNdeNlZ36p0YVGf7fwA8/N6e+XeVvpj7W0e8jaqVxeUoq9w6ba4ZPJWV/QcumZmHaeHgk6zTqqrzAxYAAByz2TvzkN3v76c/5KB7jgAPPr6Wzyfdj/iYt/0SUDzkAAAP7cvn0nfMSiTvW3T100jbDbDSstMtIs6KipzRUX4gduNxX0ie8jYVmR7N72GX+2UAcTMMStttKTkzHLweNcn6JN4PF4l/roiTAegm6/fFu43yQRI7u92nksTdMonfuEXglEmaX9F66amaYXx5qkyzclVOYGzA1wACRHqveyAkAANcAAkR6r3sgJAADXAAJEeq97ICQAA1wACRHqveyAkAANcAAkR6r3sgJAADXAAJEeq97ICQAA1wAAAAASI9V72QEgABrgAEiPVe9kBIAAa4ABIj1XvZASAAGuAASI9V72QEgABrgAEiPVe9kBIAAa4AB187d/5sG2v+Cdf6lwB4xAAAHKPZZcPpR2kN2btw7abaTamHPFRlJ/ssv2Wml/BEVfwA9uI9V72QEgAB928Jy+lOwO0snk7tp49eweWMMMMpOrTSuW0RE+c4H/P+AAAAP+hqR/8Aubj/AIbP+QH7AcM9rNlpdzUUVEVZm5Oq/JPrDoz3CqNdlXP+P/aGf4URrsu5/wAf+0POWLy365KlRhf6N39ln59VMhs3F/s1rWr+qeWfZh8Ox+jb5emXwlglgGk2KjP1GXLIHzUzmVqiJP4MvPh7+HsV+0LH6lHHjpjydK41jVt35T0vOE1/4qSKXKZKPA96HMJUq+JKodkmVeBJpdo6HyHs5ANjudX/AP1jY1P/AK9IP47B7Ysf4m3P+6PNJwo/xVqf90eb1dN0+iAHRj6WBF/9lmxKzcqfec//APmbA8xgAAAAA/VzK5VJmHruTyl66Yfsd29ZYbVlHjM8/C0ieKToizL0A/IAAAAAOWeyair2kN3syT/+dOv8lA9xwAHn59LWw0sE3ZvEZXhSVRVFWbkiqxJpv8l9gPOIAAAAAK+yu121Gw0bk+0mx8elsHiclWd1KpI+V22ifFlVTxZX4srOipyVFA717hPpI5LKfq+ze/qHpJ3nJ2ztDD3Kq7a+cocM82fm07RU5/cROYHoZs7tJs/tdBpNtDstGpFFoZLWO8k8rkb9l86eM/JplVRcgKQEiPVe9kBIAAa4ABIj1XvZASAAGuAASI9V72QEgABrgAEiPVe9kBIAAa4ABIj1XvZASAAGuAASI9V72QEgABrgAACRT1jx6AKesePQB536Pc3uKf26AKBtmDUBQNswagKesePQBT1jx6APO/R7m9xT+3QBQNswagKBtmDUBT1jx6AKesePQB536Pc3uKf26AKBtmDUBQNswagKesePQBT1jx6APO/R7m9xT+3QBQNswagKBtmDUBT1jx6AKesePQB536Pc3uKf26AKBtmDUBQNswagKesePQBT1jx6AcIdth9SXZa3gPuHu/q8gc8p5+KeUuv2dAPGUAByNue7P29PflE/qOwWzjx9JXbaMSmJyid1IpN/feqnNfjwso03N4MqB6U9mDsa7v8As9ytxtjE23m022bDpphmIPU7uTyLjZmbSTuplmVUVWVeNKrSpPMjCKqKHZrzv0e5vcU/t0AUDbMGoCgbZg1AU9Y8egHRztHfR5bN7ay2X7Z7lJQ62ei0qbblD+CylpVkD9tebXctInE4VVn+z9pidUROBAPPvbvd3tvuyjzzZrbzZqWwWIu+fdSl3MjxmebjdtpOy8Z/tMqqfMDOgAP+gKQx7/YpP/sf6pj9P5J8gP3p6x49APgj0Dhe8CDSyARqSo3IZU5acP3Sqq94y2nwVJlRUmnRU5oqIqeB53bVF+ibdyNYl53bVF+ibdyNYl0s3wdijbPY5H0a3dvnu08KYnaakqMIkvcpz/QTk+Tw5sTNKq/c5TmZytkXbPOtc6Pr9/D5MlmbDu2OdZ51P1+/h8nW166eOXjbl87advHbSstsNJMrKpyVFRfBSpUb+AP9RVRUVFmVOaKgHI0EiqReGsPm1/pnf2Hqf2k+P4+Jn8iz+hcmOzseUxo/p/4ilwmSjwPehzCVKfiSqHZJlXgSaXMdD5D2dmi2I3fbZbx4ukD2L2flUTlXJW+6ZmduWV/SePFmZYZ+bSp08T1tWbl+riW41l7WMe7k1cS1Gsu624zscw3d3LpLtfthGnUT2gk6K04cuGF+qyRtUm4kVZmnjaJ4NKiIk/JJ0Ro0eDsqMeqLl2davpHu1ez9jU4tUXbs61R8o93P9PWPHoXC8KesePQDjvfvuS2Y7S+wD/YXaZ8+h/cvmZXIZa4RG3kmlKI0jLxEWZGkmVplWV8WWl5osyoHlb2gOxzvi7Pr59L41Cqa2aRqZ1HYaw024RJ+XfM/ecNeH3vszrMy00BwYAAAAAAAAAAaDYXd/trvM2gcbK7BbNS6NxSUc2ZPJHXErLM8ytttfdYYSdJ2mlRlPioHpN2Sfo+3u6SNyLefvPjsmle08ldtrIobI045NIGm2VZVtt4s3evEZaVEmRGWVVVRWl4VQO4dPWPHoAp6x49AOPt9+5HYztK7Ft7G7Yu38lZkz1JTIpZJlTv5M/mVEbYVUmVJp0VlUmVF+CzKgeYXaD7DO+LcT9YjbmR/+KtlXU7VLwxy0rThhPjKHHNp182kVphOX2p+QHXQAAAAAAHIm5ztAb1tw8ZpbdztQ+kbp42jUqh77+lkUrm+D1yvJVm5cSTNong0gHo/uE+kZ3Zb0Ek0A29krnY7aR5M7T6xKP8AYJU34f0b5U/o1Vf0Hk3iiI00oHaVlpmOso0yqO2XaToqfaRtF9ugH+0DbMGoCgbZg1AU9Y8egCnrHj0Aed+j3N7in9ugCgbZg1AUDbMGoCnrHj0AU9Y8egDzv0e5vcU/t0AUDbMGoCgbZg1AU9Y8egCnrHj0Aed+j3N7in9ugCgbZg1AUDbMGoCnrHj0AU9Y8egDzv0e5vcU/t0AUDbMGoCgbZg1AU9Y8egCnrHj0Aed+j3N7in9ugCgbZg1AUDbMGoCnrHj0AU9Y8egCnrHj0AkAAK8BrF3MCuAAyIACvAaxdzArgAMiAArwGsXcwK4ADIgAK8BrF3MCuAAyIACvAaxdzArgAMiAA4k7YLDTfZU3lowyrS0fJ1mRJ+SSl2qr7AeQ+w+wG2m8raBxstsHs1L45FJR9yTyR0raoz8Wm18GGEn5tNKjKfFUA9COz19GJBYR9W2n7QERYissSZ4xs/D3rTMldr4oj98kzT1erLHCzOn3m0UDt/BoLB9nYXJ4JAIVJIbD5GwjuTyWSOWXTp0ynwZYZRERP2AfYBXgNYu5gVwAGRAATtpt2GwO9jZ6WbL7xNlpDG4c3MrLEoY+26aWdON08SZt23/AGmFRfmB0E7Qv0ZW1uy31nabcVL3u0kLZneNQWVNMsxBwz4zOm+TD9E58vst+CIja8wOkURhcSg8QfwmLQ+UyKXSV4rl/JpQ6advXTaclZaYaRFZVOipOB7xyJFZkbhlpFRUdMoqL4pyQD9gK8BrF3MCuBxZve7OG7ffA6eSuLQ6jY2rP9HFpCyjD5VmmRHqeD1nknJrmiJMy0zOQMvZ1nK5Z5Kt8eu/85VdmbMsZnLMaVb49d/5yuim9Xs8bwN1jb2WyuR0rBGV+zE5GwqsMsz8u9Y8XS+HjOzOsyNKZvKwL2Ly1RrG+PzkZPM2Zfw+WqNad8eu5xeQlerbNxSjYgiPGpnL+Zh50Tov4f5KpFy7P6tHJ0w61Rq2b/xUqaXmmSjwPehzCVKviSqHZ8LmHy+LSxzDYXIn8slcobR25cOHavHjxpfBGWU5qv7CVbiap0jpd6aZqni0xrMuzO5bsTRCPNO45vWlzyHSRjhbSEyVpFlDxFn5PXnNHacknRmdqZZp2FQ0GLsauvnX50jd2/b86Ghwtg116V5M6Ru7fHd+dDuVsrshsxsPB3UB2SgckhUgdc0cyd3wo01MicTS+LbSzJO00qqs3NTQ2rNuxTxLcaQ09mxbx6OJajSFg9HqyIACvAaxdzApv3DmUuXkmlLlh66esqw8dtso0y2yqTKiovJUVPgB057Q30be7reL9Z2k3RPpPsZtA3O8akSMKsLlTfTgZ5ydV6u0VlP6k6zgebW87dBvF3OxxYBvC2YlULftKvcPmk45PKWU/SdPWZ2W08PBZ0nmVEXkBjgAAAAA/WSyWVS6UupFIpM9lEofto7dOnTCttvG1WZGWWU5qqr8EA7mdnP6N7bTeA252j3ySx/snBE4XiQx0iLEpSyvwannZk6f3kab+CsJ4gekG7LdJu63O7PsbM7uNlZFBpEkyvVcszvZQ0iTcb161O28a+bSrN4JMnIDXgZEABXgNYu5gVlRFSZUnRQOqvaF+j13S73/AKztDsWw72J2oeTtq+kTlPqMqb8f6aTpMjKqv6bvhXmqqjageZ++Hs/b09xsT+o7e7OPHMleNqxJonJ53silP9x6iclm58LSMtdWUA46AAAAAC3sdsRtdvBjjnZvYrZ2XRmJv/uSeSOlbaRPi00vgyynxaaVET4qgHsV2L92e8DdLuZk2x+8iMJLYo6lDb524Zfq+ZkDhr7kmRvwa4VRpeX2UVtURVREVQ57AAZEABXgNYu5gVwAGRAAV4DWLuYFcABkQAFeA1i7mBXAAZEABXgNYu5gVwAGRAAV4DWLuYFcABkQAAAAArwGsXcwK4ADIgAK8BrF3MCuAAyIACvAaxdzArgAMiAArwGsXcwK4ADIgAK8BrF3MCuAAyIAD7JNCoZHYZEoLGofJ5dIJc5WTymTSh2jx0+dNI0jTDbK8mkVFVFRQPx2C3Ybvd10NeQjd5sdCoBJX7fePmJDJ2XavWurbX3m1TwTiVZk5IBqAMiAArwGsXcwK4ADIgAK8BrF3MCuBjNq9zO6jbnaGQbV7X7vIDF4xDG2W5LLZVImG3rCsrOyitTfbRF5ojU6IvNEA/UABXgNYu5gVwAGQaZZbZVhtlGmWkmVFSdFQdJ0uBN6/ZG2N2y76L7FNOtnIu1O0rphj/Yn7Xzdp/ul8ObHLx+yqqU2Vse3d51nmzu7Pt+ciizNh2r3Osc2d3Z9vD5OoW3m7XbTdrE6L2vgj6RtNKqOX6JxOJQifF28T7LXiizeKTpOiKZ69j3Meri3I0/OxlsjFu4tXEu06evc+uARL69IUdPGp3riZhqf4p8F/wD7oUeTa/Tr1jolEqjR+ko8DpQ4hyTu37NW2+8Fp1Eoo7agMFeTNfWZS7XvnzPj/ROuSqi8pmmpmZlnRV8C/wADZGRlaVVRxad8+kf/ACFxhbHv5elVXNp3z6R+Q7X7u90Wwu7GSdzsxCWUlTbPC+l8omeSl8nRW5uSeH2WURnl4GuxcGzhx+3HLvnp/O5rcTZ9jCjS3HLvnp/O5yTAaxdzJiargAOB9se0Nuz2MljUNlMTfRKVu1meuYa7R93a9FbVpGJ/lxTp8UQqcrbWJi1cSZ1n+OX7KvJ2xi41XFmdZ/jl+z7tht9u73eA/SQwaLtOJe192Ry1juXrf93mrLa/JlVX5HpibVxc2eLbq0ndPJL0xdp42XPFonSd08kuU4DWLuZZLBXAAcc7W7HbK7eQN/s1tlAJFGIZKU/pJNK3SPGJ/g0k/NlpJ+TSTKnwVAOiG/v6N2XyH6ztJuGl7UscJO8a2fl75EfMJ0k79rk2nRl5MsyffaXkB0ijkBjezEVlMC2jhMshkRkbau5RJZW5adPXTXRplpEVAPhAAc8bhuxvva35NOIs5kK7PbMPFRWozEXaoy9Y6yd1yafftSZjkqK0i8gPRrcd2V90u4eTO5Rs1B/r8dVjhfRuIIjyVNTp9pHfLhcsr0YRJ0m4la8QOd4DWLuYFcABkQAFeA1i7mBXAAYWMwWD7RQuUQSPwqSRKHythXcoksrcsvXT1no0w0ioqftA6Ub+vo3oNFvrG0e4qIMQuVrO8bgMueqsmeL4zOHyztO16Mt8TM6/eYRAOhu2mwu2G7qOvtmduNnJdBYm4+9J5U7VlWmZ5kaZXwbZWbk0yqsr8FAhAfRDodEIvLnELhMglEtlkqeI6cSeTumnj162vgyyyyiq0q9EQDuLuI+jl2x2r+r7Q75pc82ZhbUzbMKk6stRB8z0bXmw4RU68TXiissrzA79bud1e7/dLA2dnt32y8jg8k5K8V0zO9ftJ+k9eNTtvGvm0q9E5AchQGsXcwK4ADIgAK8BrF3MCuAAyIACvAaxdzArgAMiAArwGsXcwK4ADIgAK8BrF3MCuAAyIACvAaxdzArgAMiAAAa4ABIj1XvZASAAGuAASI9V72QEgABrgAEiPVe9kBIAAa4ABIj1XvZASAAGuAASI9V72QEgABrgAEiPVe9kBIAAa4ABIj1XvZASAAGuAASI9V72QEgABrgAEiPVe9kBIAAa4ABmduoDBdpYYzBtoIXJohIZQjSPHEodo2w14TLMvgqeKKnNF5odLlqi9TxLkaw87tqi9TNFyNYl1e2p7GciYjSxXd3tIkPkz2dHkPl7LTxhhFn+49SdqbwmRpFX+0vgZ7N2B+tGlmrTv7PH872dyuD0VTrj1aRun3/O9yLu47O+xWwrbqJRB2kci7Co0zKZS7Tu3TSLOiu3XNEXw+0qtLOk6KngSsDYePh6VV86rfPR4R/9TsLYtjE0qr51W+ejwh2CLpcAEiPVe9kBxxt/vX2L3byVXm0ETRZW0zxOpC4mblDzp9mf7Kf2mlRPmQczaOPgxrdnl3R0oWXn2MKNbk8u6Ol1X3ldojbTb3vYdIXiwWDtzs/VpM8XvHrPqPOSr/dSZnqi+Jjs/bWRma0U82ndHrLJZu2L+XrTTzad0esv43X9nPeFvOZYiEnkjMJg7STpEJcyrLLxPSY+88/akzPzn5Hng7HyM3nRHFp3z6b3TD2VkZnOiNKd8+m9I3j7mtv91Es4o/DGlkfHM4ickVW5O2s/L7c07DXyaRF6T+J45mzsjAq/cjk3x0PLL2ffwp/cjk3x0Nru67U+2GzbEmhG2avNoIW5+yy9ba/2xyzy8G1/3icvBvn/AGkQsMHb97H0ov8AOp+v38fmnYW3LuPpRe51P1+/j83Z3Y3b7ZPb6H0jsvF3UqZZRO9dfdfOV6NsLzZ/b4L8FU1+LmWcynj2atfOO+Grxsuzl08a1Vr5tASklrgAHEm/3cDut34wqTw/b7Zt1KJS7YbYk0ScTOpbJfD/AHb1EnmnWfha4mFXxZUDz+25+jR3swzaFXGwG0MFjUFfN/0Uolr5ZK/cMz+D1jhaRZv6zCrPNPws+AHYXcJ2AN2u7L6vtBvCVztltE7mbRl+6/8AL5K3/Yctf71U/rPJ08FRllQO6zLLLDKMMMoyyykyIiTIiAf6BIj1XvZASAAGuAASI9V72QEgABrgAHHu+TdZsBvZgLnZzeDsxI4vI141dq9ZmeuGlm+06eMzNu2vmyqdF5AdI499FzD3+03fbNb1n0kgDx5xK4lkOR9K3LE/3UbZbZZb+TSsszdF+Idn9zHZs3T7ipEyxsVs8w3E2mOB/GJbM+lr7r/STfYZX+qwjLPVFXmBz+AAkR6r3sgJAADXAAJEeq97ICQAA1wACRHqveyAkAANcAAkR6r3sgJAADXAAJEeq97ICQAA1wACRHqveyAkAANcAAAAAEiPVe9kBIAAa4ABIj1XvZASAAGuAASI9V72QEgABrgAEiPVe9kBIAAa4ABIj1XvZASAAGuAASI9V72QEgABrgAEiPVe9kBIAAa4ABIj1XvZASAAGuAASI9V72QEgABrgAEiPVe9kBIAAa4CTtPtZs5sZCnkb2ojMmhsid+Lx+3NxL/VZTxaa/ssoqr0PG/ftY1HHu1aQ8r1+3j08e7OkOpe93tdRGPNtQjdvJG4dJGOJhYlKGUWUPEX4sMc0dpy8Vna/uqZTO4RV3NaMWNI39vhu/Ohl83b9detGNGkb+3w3fnQ4Z2U2G263pRh7Q8jlMQfvG+KVS6UNr3bCr4tPHrXx+M3NpfgilJj4mRtC5P6cTM9sz6yp8fFyM+vmRrPbM+suzu7XszbI7Id1E9pu7j0VZmaRHrH+yuWv7LtfvqnVr5KiIprsDYNjG0rvc6r6R4e7VYWxLOPz7vOq+ny93ZJERlEZZREROSInwL5dvylcjkkQkr2RS+SuZTJ37KsPXL5hG2G2V8UaZXkqfJTiqmK44tUaw4qpiqOLVGsOs++HskwGWtLGN275mFSt7xNNQ980qyZteX3GubTtVn8ObPgicKGazuD1FzWvFnizu7Pt+dDPZuwaLmteNOk7uz7Osksh+3O67aJlJS6iECi0mWd22y0rCtJ1ZaTk2yvyVUXwMvVRkbPu8utNUfnizVVF/Bu8utNUfni553adq9097qE7ypMjtrkykUkzv7K/N67Tw/ax/8AiniaPA4RROlGXHjHrHt8mgwtvxPMyo8Y9Y9vk7aQmLwqPQ9zFoLEZPLpHKGeJ0/k7xHjDafJU5Got3KLtMV0TrE7mkouU3aYqonWJfYd3dIj1XvZASAAGuAASI9V72QEgABrgAEiPVe9kBIAAa4ABIj1XvZASAAGuAASI9V72QEgABrgAEiPVe9kBIAAa4ABIj1XvZASAAGuAASI9V72QEgABrgAEiPVe9kBIAAa4ABIj1XvZASAAGuAAAJFPWPHoAp6x49AHnfo9ze4p/boAoG2YNQFA2zBqAp6x49AFPWPHoA879Hub3FP7dAFA2zBqAoG2YNQFPWPHoAp6x49AHnfo9ze4p/boAoG2YNQFA2zBqAp6x49AFPWPHoA879Hub3FP7dAFA2zBqAoG2YNQFPWPHoAp6x49AHnfo9ze4p/boAoG2YNQFA2zBqAp6x49AFPWPHoA879Hub3FP7dAFA2zBqAoG2YNQFPWPHoAp6x49AHnfo9ze4p/boAoG2YNQFA2zBqAp6x49AFPWPHoA879Hub3FP7dAFA2zBqAoG2YNQFPWPHoAp6x49AHnfo9ze4p/boAoG2YNQFA2zBqAp6x49AFPWPHoA879Hub3FP7dAFA2zBqB/lAonNZZg1A4H3pdsGC7Oq/guwcPcxaJMTsNSx42qyRy18ppleqnyVGfmvgZzP4QW7Ezbx+dVv7Puz+dt23Z1ox+dO/s+7q7F47vB3u7SsPIjKYhH4q/VUcuWGVaRhn4owwz9lhnrMiJ8VMrXcydo3edrVVP54MzXcyM+7ztaqpc+bpuyC7lXDFt5Uu+0xwtJC5M1OnP4PXqKk/gvJhb3wNFg8HdNK8ufCPWfb5r/C2BppXlT4R6z7fN2UhexcMgchdQyDsOJFJHCcLty4cIwwynyRFNRbt0WqYotxpEbmkt26LVMUURpD66BtmDU7u5T1jx6AKesePQB536Pc3uKf26ASdpt2uzm2MNahG0skk8vkrXNGXrrmwv8AWZaRZ2V+aKinjfx7WVRxLtOsPG/j2smniXY1h1h3pdjvaCBMvYxu5lbUakbM7TUgezMyp2n9hfuvU+XJr4IjSmSzuD1y1rXjTxo3dv3ZfN2DXb1rxudG7t+7h/YneRt/umjDxvZ+IymQPGHk0qkEoYVXLxpOSsvHTXx+E/JpPgqFPjZmRs+v9udN8T6wqMfLv4Nf7c6b4n1h223V9qrZjb57J4HGYezB449mYYdtPZ3Eob6O21Tkq/Blrn4IitKbDZ+27OZMW6+bX9J7vZrMDbNrLmLdfNq+k9zl7zv0e5vcU/t0LtclA2zBqAoG2YNQFPWPHoAp6x49AHnfo9ze4p/boAoG2YNQFA2zBqAp6x49AFPWPHoA879Hub3FP7dAFA2zBqAoG2YNQFPWPHoAp6x49AHnfo9ze4p/boAoG2YNQFA2zBqAp6x49AFPWPHoA879Hub3FP7dAFA2zBqAoG2YNQFPWPHoAp6x49AHnfo9ze4p/boAoG2YNQFA2zBqAp6x49AFPWPHoA879Hub3FP7dAFA2zBqAoG2YNQFPWPHoAp6x49AHnfo9ze4p/boAoG2YNQFA2zBqAp6x49AFPWPHoA879Hub3FP7dAFA2zBqAoG2YNQFPWPHoAp6x49AHnfo9ze4p/boAoG2YNQFA2zBqAp6x49AFPWPHoAp6x49AJAACvAaxdzArgAMiAArwGsXcwK4ADIgAK8BrF3MCuAAyIACvAaxdzArgAMiAArwGsXcwK4ADIgAK8BrF3MCuAAyIACvAaxdzArgAMiAArwGsXcwK4ADIgAK8BrF3MCuAAyIACvAaxdzArgcY9pSPy/ZzcxtFLYY+acyh+7dSNHjKzKyy9esMNzXGmk/Eq9s3arOFXVT08kfOVbte7Vaw65p6ej5y6W7md27jejtguz8riTyRSaTyVuWP23bCNNtMMtsM8LM/JFVW05rPNN4KYzZeDG0L/6VU6REa/nzZHZuFGde/TmdIiNXdHY3YHZPYGH0dsvCHUlZaRO9fTcT58qfFttebX7PBPgiG9xcOzh08WzTp5z3y2+NiWcSni2qdPNuIDWLuZKSVcABkQJcW2q2YgC8Md2jhkOXxmlcrdulxKh43MizZ/zK4jvmIeVy/atf5lUR3zEP4gW93dYjb9hveLs4wqqzNxxJyyi+PgqtTHjG0cSf/bT84eMZ+LP/sp+cNxDIzB425+swaLSOXuk/WSV+y9Z92VVCTRcouRrRMT3JFFyi5GtExPc+07u7h7eDuj2K3kSdadhqO5cjPC6l8nmYlDHRFammaT5NIqdJiBm7Nx86P3I5d8dP53oOZs6xmx+5HLvjpdJtudmX2wW2cS2aYiCyhuFyhGXcpYZV2rXJGmWpp14VmVPj4mAy7E4d+q1rrxZ6WGyrE4l+q1rrpPS9BN0UXlMf2Gg8blrXFKZdDZI/fNf1njTudpfxWc+i4d2b2PRcq6ZiPJv8S5N6xRcq6ZiPJtiSkAGRAAV4DWLuYFcABkQAFeA1i7mBXAAZEABXgNYu5gVwAGRAAV4DWLuYFcABkQAFeA1i7mBXAAZEABXgNYu5gVwAGRAAV4DWLuYFcABkQAFeA1i7mBXAAZEABXgNYu5gVwAGRAAAAACvAaxdzArgAMiAArwGsXcwK4ADIgAK8BrF3MCuAAyIACvAaxdzArgAMiAArwGsXcwK4ADIgAK8BrF3MCuAAyIACvAaxdzArgAMiAArwGsXcwK4ADIgAK8BrF3MCuAAyIACvAaxdzArgcPdrP8h8Z/xEj/AI7BTbe6jV4eao251Krw83XTsiflLiH7kffx3BQcG+t1fDPnCj4Pdan4Z84dvjcNmrwGsXcwOnnbMiMQdb1pJJ3UulDDpiDOFZYZeNIyiq9ezqiT/GZDEcIq6oy4iJ/8Y85Y3b9dUZURE9kecucuyNK5VK9zUkalUpevldy6VMMq8bVpWWeJFmSf4TqvuXuwKpqwo1ntldbDqmrDjXfLhHf32gI49jcs2K2JiDchkchbak8sljlrhev3qcm2WGvFhllZ0nTmqovObxqNsbZuTcnHx50iOSZ7ZlVbW2vcm5NixOkRyTPbLh/Z/d/t7tvxy2A7NxKJMNtrxSlGF7tpr4zvGpmVXrzKOzh5OXzrdEz/AD91NZxMjK51umZ/n7tIx2cd9Tx209d7CyhtGPvIzKpO0vsjyckzsXOiNf0/rHukTsjNjl/T+se7LyuHbebtI07alcljOzkTd/adNqjyTvFRF8WWuXEnzRVQh1UZGFXyxNNXyRaqL+JXyxNM/J237M3aDl28Rp5sVtm9dtR2TOVfSaVoyjP110z95GmU5I8Z5Ly+8k6zIqKq6/Yu1qsv9i9/VHRO/wC7VbI2pVlfs3v6o6J3/dyqaFfOiW/38r+0v+IY/hMHzrbHXrnf6QwG1uu3O/0h3W3Cfku2d/dMj/hm42b1O18MeTZ7P6pb+GPJyKTUwAyIACvAaxdzArgAMiAArwGsXcwK4ADIgAK8BrF3MCuAAyIACvAaxdzArgAMiAArwGsXcwK4ADIgAK8BrF3MCuAAyIACvAaxdzArgAMiAArwGsXcwK4ADIgAK8BrF3MCuAAyIAABrgAEiPVe9kBIAAa4ABIj1XvZASAAGuAASI9V72QEgABrgAEiPVe9kBIAAa4ABIj1XvZASAAGuAASI9V72QEgABrgAEiPVe9kBIAAa4ABIj1XvZASAAGuAASI9V72QEgABrgAEiPVe9kBIA4r7Tf5Hor/AMeS/wAZgptvdRq8PNUbc6lV4ebibsUflXiX7gf/AOok5QcG+t1fDPnCj4Pdan4Z84d2zcNmkR6r3sgOkna0/KhJ/wB0uP4j0w3CPrkfDHnLF8IOtx3R5y5l7LPF/wCyVzwzT/XpTNP4TzoXvB/qUd8rvYXU475dN5YspWVv1litfWFeNK94vHjn+1P855zC1a6zxuliatdZ16Xpfu92g2IjezEPZ2EiMhfw2TyZ27dOZO8Z4nDCMoiMNsJzYaT4oqIs59MxLti7aj+zzHFiOzsfRsW7ZuWo/QmNIj5Pvj1XvZEpJcdb1NhpHvA2KiMCfSVh5K+5aeyBtUTidyllJ2FRV8J1+yvyVSDtDEpzceq3McvZ39iHn4tOXYqtzHL2d7rFus3W71tmt42z8ZfbHRGTOZNL3f1h80iMssOWl4Xiqs/hwK1+0yOz9n5ljKt3JtzERPL3dv0ZXAwcuzk0VzRMRE8vd2/R35N42zzu7SH5btq/8U7/AILs+dbY69c7/SGA2t1253+kO427T8kew/7mk38Ng3Gzep2vhjybPZ/VLfwx5LpNTADXAAJEeq97ICQAA1wACRHqveyAkAANcAAkR6r3sgJAADXAAJEeq97ICQAA1wACRHqveyAkAANcAAkR6r3sgJAADXAAJEeq97ICQAA1wACRHqveyAkAANcAAkR6r3sgJAADXAAAAABIj1XvZASAAGuAASI9V72QEgABrgAEiPVe9kBIAAa4ABIj1XvZASAAGuAASI9V72QEgABrgAEiPVe9kBIAAa4ABIj1XvZASAAGuAASI9V72QEgABrgAEiPVe9kBIAAa4ABIj1XvZASAOK+03+R6K/8eS/xmCm291Grw81RtzqVXh5uJuxR+VeJfuB//qJOUHBvrdXwz5wo+D3Wp+GfOHds3DZpEeq97IDpJ2tPyoSf90uP4j0w3CPrkfDHnLF8IOtx8MecuZuyv+SZx/jpT/mhe8HupR3yu9g9Tjvlld/nZY2glcfl22u7eTMS1zEHjUplcMRpGXrp60s7bTqdZmmVWdeGdFRVmRFSZErdq7DuVXJv40axPLMeyu2nsW5Vcm9jxrE8sx7Ot8Rgu1GyMuRiKwuJweVu2pme/cvHDaL8p0RfYzVdu7j1c+Jpn5M9Xbu2KufE0z8liH72958MRhmSbex3gd/cYey1t6wz+xltVRPY97e0cu3/AE3J+b2oz8q3/Tcn5tfBO1FvYhTbP12ISGLO08WZXJGWVm/vOuBfxWcn2uEGbb/qmKu+PbRNtbdzLf8AVMVd8e2jnHdZ2kNnNv5c5gEXkSwaLvvsuWGnnG4lDX9VhuZFRpfgyqfJFVeRodn7ctZlUWq44tU/KV9gbZtZdUW644tX0l2OLxdPO7tIflu2r/xTv+C7PnW2OvXO/wBIYDa3Xbnf6Q7jbtPyR7D/ALmk38Ng3Gzep2vhjybPZ/VLfwx5LpNTADXAAJEeq97ICQAA1wACRHqveyAkAANcAAkR6r3sgJAADXAAJEeq97ICQAA1wACRHqveyAkAANcAAkR6r3sgJAADXAAJEeq97ICQAA1wACRHqveyAkAANcAAkR6r3sgJAADXAAAEinrHj0AU9Y8egDzv0e5vcU/t0AUDbMGoCgbZg1AU9Y8egCnrHj0Aed+j3N7in9ugCgbZg1AUDbMGoCnrHj0AU9Y8egDzv0e5vcU/t0AUDbMGoCgbZg1AU9Y8egCnrHj0Aed+j3N7in9ugCgbZg1AUDbMGoCnrHj0AU9Y8egDzv0e5vcU/t0AUDbMGoCgbZg1AU9Y8egCnrHj0Aed+j3N7in9ugCgbZg1AUDbMGoCnrHj0AU9Y8egDzv0e5vcU/t0AUDbMGoCgbZg1AU9Y8egCnrHj0Aed+j3N7in9ugCgbZg1AUDbMGoCnrHj0AU9Y8egDzv0e5vcU/t0AUDbMGoCgbZg1AU9Y8egCnrHj0Aed+j3N7in9ugCgbZg1A4k7U8J+q7l4u++s8cz+ScuGb9ex8ym291Grw81RtzqVXh5uDextK/qe9GIve7454E/Zmnm/XuCg4N9bq+GfOFHwe61Pwz5w7m09Y8ehuGzPO/R7m9xT+3QDpZ2wZL9T3rSd13nH/5PJ1nmm/WPTDcI+uR8MecsXwg63HdHnLk/cNFmNkuzfLts3jluVMwt9K3/wBWYXhV5M0nLi+Hj4zL+xS22Rf/ALLsyb0xrpqtNl3/AOzbOm7prpq+7YLthyPbTa6HbLynYNYazEXiuWJTSiPeFvhVWU4e6ZnnVETx+Jzh8IKcq/TZm3pr266+kOcTbsZN6m1NGmvbrr6Oc3sYcv3aun8OZeMNclZbWdF/BUNDMRPJK+mInklAl27rd/tbxLL9iIErTHi03D3TTTU/9rhRfgR68LGuf126Z8IeFeHj3P6qInwhhdquyJuxj8me0S7ewSWNIvA+kqtNMI18OJ200rKp8meFfmVuRsHEvRPEjiz/AB7K+/sPFuxzI4s/x7OkkrcSuAxl9JmX/DKodKmnaPXTXg8dtzcTK/tSdDC1RNquY7YnyYqYm1Xp2xPk9J9n9rHsUgMNiT+RTPZXI3L9tEam+00wjS8puXNT6jZrm5bprntiJfSbNc3LdNc9sQ6IdoZ99Y3zbUPuDh4pS7Waeeb+hYPn22OvXO/0hhNrddud/pDuducdUpup2SdT919Xg8lSeafindp+zobjZvU7Xwx5Nns/qlv4Y8mxoG2YNSamFA2zBqAp6x49AFPWPHoA879Hub3FP7dAFA2zBqAoG2YNQFPWPHoAp6x49AHnfo9ze4p/boAoG2YNQFA2zBqAp6x49AFPWPHoA879Hub3FP7dAFA2zBqAoG2YNQFPWPHoAp6x49AHnfo9ze4p/boAoG2YNQFA2zBqAp6x49AFPWPHoA879Hub3FP7dAFA2zBqAoG2YNQFPWPHoAp6x49AHnfo9ze4p/boAoG2YNQFA2zBqAp6x49AFPWPHoA879Hub3FP7dAFA2zBqAoG2YNQFPWPHoAp6x49AHnfo9ze4p/boAoG2YNQFA2zBqAp6x49AFPWPHoA879Hub3FP7dAFA2zBqAoG2YNQFPWPHoAp6x49AFPWPHoBIAAV4DWLuYFcABkQAFeA1i7mBXAAZEABXgNYu5gVwAGRAAV4DWLuYFcABkQAFeA1i7mBXAAZEABXgNYu5gVwAGRAAV4DWLuYFcABkQAFeA1i7mBXAAZEABXgNYu5gVwAGRAAV4DWLuYFcDh7tZ/kPjP+Ikf8dgptvdRq8PNUbc6lV4ebrp2RPylxD9yPv47goODfW6vhnzhR8HutT8M+cO3xuGzV4DWLuYHTTtn/lck37lk/wDEemG4R9cj4Y85YvhB1uO6POXMfZigUk2n7PEq2cl86SaKPpfJHqp4oy8ThVU+aTzp8y52Jai/s6bdXROsfNb7Htxe2fNuronWHUHaTZ7aLdztW8hUQZeSSIwx+y8cvmFmnmWdh6wvRZkVFzRTIX7N3CvcSrkqj8iYZS9ZuYd7iVclUfkTDnrZPtgOHcidSfbXZl+8lDtlGW5VD2mVR6vVXbaojK/sam+SGjxuEsRTEZFHLvj2+7QY/CKIp0v0cu+PZuIX2xd1cjYetPYbtHO3NMykkcqvx9Wb4kz+8mJuq+Ue6X/eDF3VfKPdnNue2y4lENfyLd/sxKpPKnzCsMS2JNMIrmdPvMumFaRppPhO1NP4ovgQ8rhLE0zTj06Tvn2+6Jk8IYmmabFPLvn2cAbs938b3pbaSPZ2HO3raP3qPZdKZlVHDiedt40vWbwn8WlRPiZ/CxK86/FunxndHbKhw8WvNvRbp8Z3Q79yeTupLJ3Ulk7CMOnLDLthlPgyiTInsfS6YimIiH0WIimNIdFt/v5X9pf8Qx/CYPne2OvXO/0hgdrddud/pDutuE/Jds7+6ZH/AAzcbN6na+GPJs9n9Ut/DHk5FJqYAZEABXgNYu5gVwAGRAAV4DWLuYFcABkQAFeA1i7mBXAAZEABXgNYu5gVwAGRAAV4DWLuYFcABkQAFeA1i7mBXAAZEABXgNYu5gVwAGRAAV4DWLuYFcABkQAFeA1i7mBXAAZEAAAAAK8BrF3MCuAAyIACvAaxdzArgAMiAArwGsXcwK4ADIgAK8BrF3MCuAAyIACvAaxdzArgAMiAArwGsXcwK4ADIgAK8BrF3MCuAAyIACvAaxdzArgAMiAArwGsXcwK4ADIgAK8BrF3MCuBxD2rnD19uOjrTphWu6eyR41N8GfrDtJ//Up9uxM4Nen8ecKnbcTOFVp/Hm6t9mfaqAbJbxXsq2iiTqQyeWQ57I3b56sztHrTx00iNNeDKTMLzXkZnYORaxsrW7OkTEx46wzmxMi3j5Ot2dImNPrDum7eO3rtl66bZbYbRGmWmVnRpF8FRfib2JiY1huYnXlhYgNYu5nI6ads/wDK5Jv3LJ/4j0w3CPrkfDHnLF8IOtx3R5y517H35GZP+8JV/wBSF7we6lHfK72D1OO+VzbTd5shvAkTMi2pg7uVd2i9y+RVYfOZ/wCq2nNP2eC/FFLLKwrGbTxb1OvnHin5OHZzKeLdp183C8a7HMKevWnmz22sqkzH6LqWSVl8v/5stMf9JQXeDFEzrauTHfGvspLnByiZ/buad8a+ybIexVtHLW3iJtxDWGHc3P6q8VVnn+E/y6kf+7F3/wDSPk8P7uXP9cfJrtnuw9AZO+Ye7UbcS2XMJzacyKSsyef5cbTTc6fghJs8GbcTrduTPdGnukWuDluJ1u1zPdGnu582K2A2R3ewuiNkYI4kDhqZXrTKK08fNJ+k8bWdppfHxXl8JjQY2JZxKOJZp0j86V5j4trFp4lqnRKiEQkEKkb2IxOWuJJJXDPE9fPniMMMJ1VV5Ie1ddNumaq50iHtXXTbpmqudIh0K3vx6F7TbyY9HILKfrEilUoRXL3hVlG0ZYZZnRF5zTop832leov5ddy3OsTL59tG7Rfyq7lE6xMu9O4ty8k+7LZ10+ZVltIRIlVF8UndT5m+2dE04lqJ/wBMeTcYETGLbif9MeTkImJYBkQAFeA1i7mBXAAZEABXgNYu5gVwAGRAAV4DWLuYFcABkQAFeA1i7mBXAAZEABXgNYu5gVwAGRAAV4DWLuYFcABkQAFeA1i7mBXAAZEABXgNYu5gVwAGRAAV4DWLuYFcABkQAADXAAJEeq97ICQAA1wACRHqveyAkAANcAAkR6r3sgJAADXAAJEeq97ICQAA1wACRHqveyAkAANcAAkR6r3sgJAADXAAJEeq97ICQAA1wACRHqveyAkAANcAAkR6r3sgJAADXAAJEeq97ICQB8kYhMPj0KlcFisnZfyOWuWnD52v6TDSTL+xfn8Dpdt03qJt1xrEuly3TdomiuNYl1J3s9lrbbYF5KIts45ex+BMqraPHDE8pcMeq7TmsyfpMzpynVGfAw2fsO/izNdvnU/WO+PZi87Y17F1rt86n6x3wzm67f5t/useMSWGy76/CEa+3DJY0rTpE+Pdr4u18fu8p/FFIuDtXIwZ0pnWndPpuR8Pad/CnSmdad0/nI7DJ2wd2UWhrmUy+QxiQSt0yqvJL3DL2drlyYbRpEVOXi1w/sNPb4R4lVOtcTE7un8+jRUcIMWqnWqJidzq/vV2/e7ytspVtM1JVkzhphhxJnKrO0w5Y8OJeqqqqv7ZjKbRzJzr83tNI6I7mYz8uc2/N3TSOzudteztA5TAt0sFdyt2rD2WI8lqsqngy8bVWPdjhX8Ta7EtTZwqIq6Z5fn0fRsNj2ptYdEVdvL8/s53LVaAEiPVe9kBIA4j3l9pDY3YjvYbBWmY7F2J2VdOHidw5a9R4k6Tp/VZnXlMvCUmftyxia0W+dV/HRHfKmzdtWMXWmjnVfTxl1h2/wB6u329eJsvNo4o9lDCvP8AZofJ0Vlw6VeSIw7TxX4TrO0vUx+XnZGfVrdnXdEdHyZTKzb+bVrcnujs+Tljc32S9otoJXJdoN47hqEwhhpl6kPb5SqVIiz8LafqmV+M/wBr4TJPOW2ztg3LsxcyeSnd2z7ea0wNh3LsxcyOSnd2z7ebtvGnbty7kjl0wywwwisssspMjKJwzIiG0iIiNIbCI05ISjkANcAAkR6r3sgJAADXAAJEeq97ICQAA1wACRHqveyAkAANcAAkR6r3sgJAADXAAJEeq97ICQAA1wACRHqveyAkAANcAAkR6r3sgJAADXAAJEeq97ICQAA1wACRHqveyAkAANcAAAAAEiPVe9kBIAAa4ABIj1XvZASAAGuAASI9V72QEgABrgAEiPVe9kBIAAa4ABIj1XvZASAAGuAASI9V72QEgABrgAEiPVe9kBIAAa4ABIj1XvZASAAGuAASI9V72QEgABrgAEiPVe9kBIAAa4DiXef2ad3m8l49iTMmagkYeTtLLZCwiI9a6vXf3W/2pwtL/WKjN2NjZnO04tW+PWFVmbIx8vnf01b49YdfI92NN4ULlSMQ/aCBS2TvFVGHjbx65bmSb7zHA0iePwaUoK+DWTE8yqmY8Y9FHXweyInmVRMeMejRbA9kl3D4g5iW30Zk0uduWkbSQSJGu7eKnwbeNIiqz1RGUn6k3D4ORRVFeTVrp2R6yl4nB+KKoqyKtf4j3dhnUpkLL9Ya5fuEfOXaNLJ2Wk4mGPBF4U5onwT4GniqnXiRPLuaSKqdeLHTubU7OwBxrve3t7E7uJO5WPRRluWqy007kEnVG5Q3PNMvDP8AZRef2mpk5EHM2jj4Mfuzy7o6ULL2hYwo/cnl3R0uoG8vtC7abf8Aew6SPVg0HbnZ+qSZteN6z6rzkrX7EmZ6oviY3P21kZmtNPNp3R6z+QyWbte/l60xzad0esvh3b7jNtt47buVyWS0dCWl+1EJUyqMNJ8e7Z8Xi/s5dVQ88HZORnctMaU759N7zwtl383liNKd8+m93P3Xbg9gN1jp3KYZIPr8XRmZuJytlGns83Pu08HaeP3ec3iqmywdlY+DGtMa1b56fDc1uHsyxhctMa1b5/ORyQWSxSI9V72QEgABrgAEiPVe9kBIAAa4ABIj1XvZASAAGuAASI9V72QEgABrgAEiPVe9kBIAAa4ABIj1XvZASAAGuAASI9V72QEgABrgAEiPVe9kBIAAa4ABIj1XvZASAAGuAASI9V72QEgABrgAACRT1jx6AKesePQB536Pc3uKf26AKBtmDUBQNswagKesePQBT1jx6APO/R7m9xT+3QBQNswagKBtmDUBT1jx6AKesePQB536Pc3uKf26AKBtmDUBQNswagKesePQBT1jx6APO/R7m9xT+3QBQNswagKBtmDUBT1jx6AKesePQB536Pc3uKf26AKBtmDUBQNswagKesePQBT1jx6APO/R7m9xT+3QBQNswagKBtmDUBT1jx6AKesePQB536Pc3uKf26AKBtmDUBQNswagKesePQBT1jx6APO/R7m9xT+3QBQNswagKBtmDUBT1jx6AKesePQB536Pc3uKf26AKBtmDUBQNswagKesePQBT1jx6APO/R7m9xT+3QBQNswagKBtmDUBT1jx6AKesePQB536Pc3uKf26AZLeXsJttH9nHkk2C21SCxFlVXiacpwv0m+4rfNp314mUnIWdZyL1ri49fFq8/HsQ821fvW+Lj18WfP2dGNp4TvL3ZbXLKdoqVhccZbV6xLGnzStPvgrbL1FVHiL4LzXovQwN6jKwr3GuaxXv3+Paw16jJw73GuaxVv+/a593YdsxEcu4TvQh6K8ZSZmKyRjk1/xXTKLMvzYSb+yniaDB4RR/Rlx4x6x7fJfYW34/oyo8Y9Y9vkjb0u2LHIyy9g+7aRtQiStTsNRF8iNSl4nps+DtPms7XThU8M/hDXc1oxY0jf2+G786Hhm7erua0Y0aRv7fs4W2T2G293rx145gMPlkWlj1vjlUrfNqrDCr+m9etck+Pis6zckUpMfFyM+5pbiap7Z95U9jGv5telETM9s+8u1e7PshbL7LI5im2Uscx2KMzNd0rpfqjlr5Mqs7z9rSTf2UNbgbAs4+ld/nVfSPfx+TU4Ww7VjSu9zqvp9/H5ObGNnmGGUYYlSMsspMiI7mRE6eJoIjTkhe9D+qesePQBT1jx6APO/R7m9xT+3QBQNswagKBtmDUBT1jx6AKesePQB536Pc3uKf26AKBtmDUBQNswagKesePQBT1jx6APO/R7m9xT+3QBQNswagKBtmDUBT1jx6AKesePQB536Pc3uKf26AKBtmDUBQNswagKesePQBT1jx6APO/R7m9xT+3QBQNswagKBtmDUBT1jx6AKesePQB536Pc3uKf26AKBtmDUBQNswagKesePQBT1jx6APO/R7m9xT+3QBQNswagKBtmDUBT1jx6AKesePQB536Pc3uKf26AKBtmDUBQNswagKesePQBT1jx6APO/R7m9xT+3QBQNswagKBtmDUBT1jx6AKesePQB536Pc3uKf26AKBtmDUBQNswagKesePQBT1jx6AKesePQCQAArwGsXcwK4ADIgAK8BrF3MCuAAyIACvAaxdzArgAMiAArwGsXcwK4ADIgAK8BrF3MCuAAyIACvAaxdzArgAMiAArwGsXcwK4ADIgAK8BrF3MCuAAyIACvAaxdzArgAMiAArwGsXcwK4ADIgAK8BrF3MCuBJ2m2U2c2yhTyCbUQeTRKRPfF0+Yn4V/rMr4stdGkVFTqeV6xbyKOJdp1h5XrFvIp4l2NYdS9s+yFLFljcp2Dj8n+rNrP9ViStMtO/ky8YZXiTpOiftXxMtlcGquNrjVcm6feGbyeD1XG1x6uTdPu+rYbsisSeVsyzeDG3MqdMLOkih7TaMvP771pGWpvkyiL/aQ74nBvizxsmrX+I9/zvdsXg9pPGyatf4j3dm9iIJCNnYc3CYFDZPIZG5RlGHLhhGWU8efLxVfiq81NPatUWKYotxpDR2rVFmniW40hpT0egBkQAFeA1i7mBXAAZEABXgNYu5gVwAGRAAV4DWLuYFcABkQAFeA1i7mBXAAZEABXgNYu5gVwAGRAAV4DWLuYFcABkQAFeA1i7mBXAAZEABXgNYu5gVwAGRAAV4DWLuYFcABkQAFeA1i7mBXAAZEAAAAAK8BrF3MCuAAyIACvAaxdzArgAMiAArwGsXcwK4ADIgAK8BrF3MCuAAyIACvAaxdzArgAMiAArwGsXcwK4ADIgAK8BrF3MCuAAyIACvAaxdzArgAMiAArwGsXcwK4ADIgAK8BrF3MCuAAyIACvAaxdzArgAMiAArwGsXcwK4ADIgAK8BrF3MCuAAyIACvAaxdzArgAMiAArwGsXcwK4ADIgAK8BrF3MCuAAyIACvAaxdzArgAMiAArwGsXcwK4ADIgAK8BrF3MCuAAyIACvAaxdzArgAMiAArwGsXcwK4ADIgAK8BrF3MCuAAyIAABrgAEiPVe9kBIAAa4ABIj1XvZASAAGuAASI9V72QEgABrgAEiPVe9kBIAAa4ABIj1XvZASAAGuAASI9V72QEgABrgAEiPVe9kBIAAa4ABIj1XvZASAAGuAASI9V72QEgABrgAEiPVe9kBIAAa4ABIj1XvZASAAGuAASI9V72QEgABrgAEiPVe9kBIAAa4ABIj1XvZASAAGuAASI9V72QEgABrgAEiPVe9kBIAAa4ABIj1XvZASAAGuAASI9V72QEgABrgAEiPVe9kBIAAa4ABIj1XvZASAAGuAASI9V72QEgABrgAEiPVe9kBIAAa4AAAAAJEeq97ICQAA1wACRHqveyAkAANcAAkR6r3sgJAADXAAJEeq97ICQAA1wACRHqveyAkAANcAAkR6r3sgJAADXAAJEeq97ICQAA1wACRHqveyAkAANcAAkR6r3sgJAADXAAJEeq97ICQAA1wACRHqveyAkAANcAAkR6r3sgJAADXAAJEeq97ICQAA1wACRHqveyAkAANcAAkR6r3sgJAADXAAJEeq97ICQAA1wACRHqveyAkAANcAAkR6r3sgJAADXAAJEeq97ICQAA1wACRHqveyAkAANcAAkR6r3sgJAADXAAJEeq97ICQAA1wAABIp6x49AFPWPHoA879Hub3FP7dAFA2zBqAoG2YNQFPWPHoAp6x49AHnfo9ze4p/boAoG2YNQFA2zBqAp6x49AFPWPHoA879Hub3FP7dAFA2zBqAoG2YNQFPWPHoAp6x49AHnfo9ze4p/boAoG2YNQFA2zBqAp6x49AFPWPHoA879Hub3FP7dAFA2zBqAoG2YNQFPWPHoAp6x49AHnfo9ze4p/boAoG2YNQFA2zBqAp6x49AFPWPHoA879Hub3FP7dAFA2zBqAoG2YNQFPWPHoAp6x49AHnfo9ze4p/boAoG2YNQFA2zBqAp6x49AFPWPHoA879Hub3FP7dAFA2zBqAoG2YNQFPWPHoAp6x49AHnfo9ze4p/boAoG2YNQFA2zBqAp6x49AFPWPHoA879Hub3FP7dAFA2zBqAoG2YNQFPWPHoAp6x49AHnfo9ze4p/boAoG2YNQFA2zBqAp6x49AFPWPHoA879Hub3FP7dAFA2zBqAoG2YNQFPWPHoAp6x49AHnfo9ze4p/boAoG2YNQFA2zBqAp6x49AFPWPHoA879Hub3FP7dAFA2zBqAoG2YNQFPWPHoAp6x49AHnfo9ze4p/boAoG2YNQFA2zBqAp6x49AFPWPHoA879Hub3FP7dAFA2zBqAoG2YNQFPWPHoAp6x49AHnfo9ze4p/boAoG2YNQFA2zBqAp6x49AFPWPHoA879Hub3FP7dAFA2zBqAoG2YNQFPWPHoAp6x49AHnfo9ze4p/boAoG2YNQFA2zBqAp6x49AFPWPHoA879Hub3FP7dAFA2zBqAoG2YNQFPWPHoAp6x49AHnfo9ze4p/boAoG2YNQFA2zBqAp6x49AFPWPHoAp6x49AJAACvAaxdzArgAMiAArwGsXcwK4ADIgAK8BrF3MCuAAyIACvAaxdzArgAMiAArwGsXcwK4ADIgAK8BrF3MCuAAyIACvAaxdzArgAMiAArwGsXcwK4ADIgAK8BrF3MCuAAyIACvAaxdzArgAMiAArwGsXcwK4ADIgAK8BrF3MCuAAyIACvAaxdzArgAMiAArwGsXcwK4ADIgAK8BrF3MCuAAyIACvAaxdzArgAMiAArwGsXcwK4ADIgAK8BrF3MCuAAyIACvAaxdzArgAMiAArwGsXcwK4ADIgAK8BrF3MCuAAyIACvAaxdzArgAMiAAAAAFeA1i7mBXAAZEABXgNYu5gVwAGRAAV4DWLuYFcABkQAFeA1i7mBXAAZEABXgNYu5gVwAGRAAV4DWLuYFcABkQAFeA1i7mBXAAZEABXgNYu5gVwAGRAAV4DWLuYFcABkQAFeA1i7mBXAAZEABXgNYu5gVwAGRAAV4DWLuYFcABkQAFeA1i7mBXAAZEABXgNYu5gVwAGRAAV4DWLuYFcABkQAFeA1i7mBXAAZEABXgNYu5gVwAGRAAV4DWLuYFcABkQAFeA1i7mBXAAZEABXgNYu5gVwAGRAAV4DWLuYFcABkQAFeA1i7mBXAAZEAAA1wACRHqveyAkAANcAAkR6r3sgJAADXAAJEeq97ICQAA1wACRHqveyAkAANcAAkR6r3sgJAADXAAJEeq97ICQAA1wACRHqveyAkAANcAAkR6r3sgJAADXAAJEeq97ICQAA1wACRHqveyAkAANcAAkR6r3sgJAADXAAJEeq97ICQAA1wACRHqveyAkAANcAAkR6r3sgJAADXAAJEeq97ICQAA1wACRHqveyAkAANcAAkR6r3sgJAADXAAJEeq97ICQAA1wACRHqveyAkAANcAAkR6r3sgJAADXAAJEeq97ICQAA1wACRHqveyAkAANcAAAAAEiPVe9kBIAAa4ABIj1XvZASAAGuAASI9V72QEgABrgAEiPVe9kBIAAa4ABIj1XvZASAAGuAASI9V72QEgABrgAEiPVe9kBIAAa4ABIj1XvZASAAGuAASI9V72QEgABrgAEiPVe9kBIAAa4ABIj1XvZASAAGuAASI9V72QEgABrgAEiPVe9kBIAAa4ABIj1XvZASAAGuAASI9V72QEgABrgAEiPVe9kBIAAa4ABIj1XvZASAAGuAASI9V72QEgABrgAEiPVe9kBIAAa4ABIj1XvZASAAGuAASI9V72QEgABrgAEiPVe9kBIAAa4AAAkU9Y8egCnrHj0Aed+j3N7in9ugCgbZg1AUDbMGoCnrHj0AU9Y8egDzv0e5vcU/t0AUDbMGoCgbZg1AU9Y8egCnrHj0Aed+j3N7in9ugCgbZg1AUDbMGoCnrHj0AU9Y8egDzv0e5vcU/t0AUDbMGoCgbZg1AU9Y8egCnrHj0Aed+j3N7in9ugCgbZg1AUDbMGoCnrHj0AU9Y8egDzv0e5vcU/t0AUDbMGoCgbZg1AU9Y8egCnrHj0Aed+j3N7in9ugCgbZg1AUDbMGoCnrHj0AU9Y8egDzv0e5vcU/t0AUDbMGoCgbZg1AU9Y8egCnrHj0Aed+j3N7in9ugCgbZg1AUDbMGoCnrHj0AU9Y8egDzv0e5vcU/t0AUDbMGoCgbZg1AU9Y8egCnrHj0Aed+j3N7in9ugCgbZg1AUDbMGoCnrHj0AU9Y8egDzv0e5vcU/t0AUDbMGoCgbZg1AU9Y8egCnrHj0Aed+j3N7in9ugCgbZg1AUDbMGoCnrHj0AU9Y8egDzv0e5vcU/t0AUDbMGoCgbZg1AU9Y8egCnrHj0Aed+j3N7in9ugCgbZg1AUDbMGoCnrHj0AU9Y8egDzv0e5vcU/t0AUDbMGoCgbZg1AU9Y8egCnrHj0Aed+j3N7in9ugCgbZg1AUDbMGoCnrHj0AU9Y8egDzv0e5vcU/t0AUDbMGoCgbZg1AU9Y8egCnrHj0Aed+j3N7in9ugCgbZg1AUDbMGoCnrHj0AU9Y8egDzv0e5vcU/t0AUDbMGoCgbZg1AU9Y8egCnrHj0Aed+j3N7in9ugCgbZg1AUDbMGoCnrHj0AU9Y8egDzv0e5vcU/t0AUDbMGoCgbZg1AU9Y8egCnrHj0AU9Y8egEgABXgNYu5gVwAGRAAV4DWLuYFcABkQAFeA1i7mBXAAZEABXgNYu5gVwAGRAAV4DWLuYFcABkQAFeA1i7mBXAAZEABXgNYu5gVwAGRAAV4DWLuYFcABkQAFeA1i7mBXAAZEABXgNYu5gVwAGRAAV4DWLuYFcABkQAFeA1i7mBXAAZEABXgNYu5gVwAGRAAV4DWLuYFcABkQAFeA1i7mBXAAZEABXgNYu5gVwAGRAAV4DWLuYFcABkQAFeA1i7mBXAAZEABXgNYu5gVwAGRAAV4DWLuYFcABkQAFeA1i7mBXAAZEABXgNYu5gVwAGRAAAAACvAaxdzArgAMiAArwGsXcwK4ADIgAK8BrF3MCuAAyIACvAaxdzArgAMiAArwGsXcwK4ADIgAK8BrF3MCuAAyIACvAaxdzArgAMiAArwGsXcwK4ADIgAK8BrF3MCuAAyIACvAaxdzArgAMiAArwGsXcwK4ADIgAK8BrF3MCuAAyIACvAaxdzArgAMiAArwGsXcwK4ADIgAK8BrF3MCuAAyIACvAaxdzArgAMiAArwGsXcwK4ADIgAK8BrF3MCuAAyIACvAaxdzArgAMiAArwGsXcwK4ADIgAK8BrF3MCuAAyIACvAaxdzArgAMiAAAa4ABIj1XvZASAAGuAASI9V72QEgABrgAEiPVe9kBIAAa4ABIj1XvZASAAGuAASI9V72QEgABrgAEiPVe9kBIAAa4ABIj1XvZASAAGuAASI9V72QEgABrgAEiPVe9kBIAAa4ABIj1XvZASAAGuAASI9V72QEgABrgAEiPVe9kBIAAa4ABIj1XvZASAAGuAASI9V72QEgABrgAEiPVe9kBIAAa4ABIj1XvZASAAGuAASI9V72QEgABrgAEiPVe9kBIAAa4ABIj1XvZASAAGuAASI9V72QEgABrgAEiPVe9kBIAAa4ABIj1XvZASAAGuAAAAACRHqveyAkAANcAAkR6r3sgJAADXAAJEeq97ICQAA1wACRHqveyAkAANcAAkR6r3sgJAADXAAJEeq97ICQAA1wACRHqveyAkAANcAAkR6r3sgJAADXAAJEeq97ICQAA1wACRHqveyAkAANcAAkR6r3sgJAADXAAJEeq97ICQAA1wACRHqveyAkAANcAAkR6r3sgJAADXAAJEeq97ICQAA1wACRHqveyAkAANcAAkR6r3sgJAADXAAJEeq97ICQAA1wACRHqveyAkAANcAAkR6r3sgJAADXAAJEeq97ICQAA1wACRHqveyAkAANcAAAf5MnQBMnQCTHf1Xyn/Hw/kBI/FfcB+K+4GtmToAmToBJjv6r5T/j4fyAkfivuA/FfcDWzJ0ATJ0Akx39V8p/x8P5ASPxX3AfivuBrZk6AJk6ASY7+q+U/4+H8gJH4r7gPxX3A1sydAEydAJMd/VfKf8fD+QEj8V9wH4r7ga2ZOgCZOgEmO/qvlP8Aj4fyAkfivuA/FfcDWzJ0ATJ0Akx39V8p/wAfD+QEj8V9wH4r7ga2ZOgCZOgEmO/qvlP+Ph/ICR+K+4D8V9wNbMnQBMnQCTHf1Xyn/Hw/kBI/FfcB+K+4GtmToAmToBJjv6r5T/j4fyAkfivuA/FfcDWzJ0ATJ0Akx39V8p/x8P5ASPxX3AfivuBrZk6AJk6ASY7+q+U/4+H8gJH4r7gPxX3A1sydAEydAJMd/VfKf8fD+QEj8V9wH4r7ga2ZOgCZOgEmO/qvlP8Aj4fyAkfivuA/FfcDWzJ0ATJ0Akx39V8p/wAfD+QEj8V9wH4r7ga2ZOgCZOgEmO/qvlP+Ph/ICR+K+4D8V9wNbMnQBMnQCTHf1Xyn/Hw/kBI/FfcB+K+4GtmToAmToBJjv6r5T/j4fyAkfivuA/FfcDWzJ0ATJ0Akx39V8p/x8P5ASPxX3AfivuBrZk6AJk6ASY7+q+U/4+H8gJH4r7gPxX3A1sydAEydAJMd/VfKf8fD+QEj8V9wH4r7ga2ZOgCZOgEmO/qvlP8Aj4fyAkfivuA/FfcDWzJ0ATJ0ATJ0A//Z;base64,UklGRjINAABXRUJQVlA4ICYNAACQWgCdASqKAsgAPkkkj0WivaGT2YQV2ASEsrdwuaCBrt/nP5VeNDJflj6h+S39j/cb55a+/T/wx/Sfpsw18M/5X0A/Jfyz+9/338v/nZ/o/8X+Ufyz+3T3AP1L9d3o/8wn+z/z36k+7H/uP2j9xn7WewR/J/9d/////7yvql+g3+6XpnfvJ8S/+H/5Xpa6q95c/u/bD+qVqHfGPq5+79j3aXwAnV7HXqL98/Qf/Mv9NySv2H1AP5z5m2hh6u4EX7bjqFRfJDEUahyIuFKi+SGIo1DkRcKVF8kMRRqHIi4UqL5IYijUORFwpUXyQxFGociLhSovkhiKNQ5EXClRfI7DnsGLevKnsZANKCLDYkeygJSyUuZQlLI4dTfJKDMV5YtVJL5eqgA/BJE40QNAa64phtvXov0RFwpQcyL8DSO1ft/Lw5AO7QsCgZSdw+LIAk6sS62gdQQLBzYdtco0sLM6n+qp7X8CAaPhXqBxoNAxqHIi4UqBc/KzfIiM/Knb46ZrM+MM1sjPw/9qeG1Ccb152cc9mYDvkDOoWt0r66jxv5Ug8uEDkiO8XeK9DR6KRFwpUXyO5tNA3XpSkrf+pQ9MGy1xl1BqWEzs/oQUxtswLy7kguaa+0BpSEYqBY5tonw9416iLZpEgSrZgY1DkRcKVCAfCufQZmOhUrH8wT0Stt9+p0Iy7kY2iixMP7oAm8CIjkVPgS0EqOfW+EZ3GNge5uLKKRFwpUXyQxE8u5L9rbtoDdfNHsUGlbUUkFzED6dH6sOqETRFq+eAYu03XDaCzsBnfVVbiociLhSovjllqn+Bungq4GiuOhTpbG1oGHxVu8K8k3uor7H/evITuz6Ip6WLFn2+JToYFsbTXlGtHMBSkFJPGrBrO/M3ClRfJDEUahykXZs1vFzl8kPQT5VIi+SGIo1DkRcKVF8kMRRqHIi4UqL5IYijUORFwpUXyQxFGociLhSovkhiKLYAAP7/uBAAAAAAAAAAAPemgIzQR9CWU5xPxGrraQGvLFPu47cOzTYF8yhclm2Yn+0WmUlVIvcpbeaxigQgwzxr7YzGZJop5PxsIwbyNE9B5mF9kdGlowttkYq2OGGEdy1XYkGrdxmWPYjgEXIca0Sni+LX30J6oR1TBYsLuY9B0i4D4kz04fw2yLH3jZi6lJrJnQCtO7CtjFChrMekn1TWkgxv4xbx5s7Y+GOh2yiXGShSDoUAhJsPg+CZFcrlzlUSlVPMxzNJRxUX+53bra31TIQ/blyAwgOjMWx8oQuQvVmsFzk/jiQiX2JHcnETREATWrofACwEdfdR6efFWABkjeTUGQ8l77Yf/y9ska57je8arjzXHlZPwO9hy4xfzXg4V01ho4AlGTE30cLKJIY/kfLu0XTJQGf+PGVBBWpviOC6pahsqxXpVmhDvMLkyszO1aGmXFxuyceAp4oKhmpEcCbrfjIyMwryMpr71mthVrnKX+lhQqXfwi0QjQ8UccuE/79u/dwTgEiZjxKB/nzPZI/lvP83E+2RiEyFuUmqNIeweVD9owu2nJg3yBB+RAklSIJfvKi1kLQmp29ZfOW9zfj1BA2/LrVH/dS7Z2ffP61oNWhQ2iQMsmBfzUcmI6XYyTv94Kn4ioEvgACL9GeDLgHcVPaAUKC9CCs2i618U+JRHDgzfd2nwFI7Azmy5K3la21CCitMQVITT9sljqCX197seQbqImp3Q8LvOm5fYZ/6IeMDULQ11/rPORRE/1THHah8r+NYMk+DrPepuCVXRoZm+L9SJYoj7lfQk5ypVM4ZxDAnnHg3903tS9VT5rRAPIbkyOmCEp0obGG0TDnS6AXlj/4X2+P36qKdRZK6S1Zwtfs09DfWaYUZquOL8WIEzSug3UXti0W7/0OWHy4gIXQdQ428iey1OykRCpX/OqxdNowI93WmDehEkT6jY5W6J8Oad53dwp4TdQLAsQTjapSYBqbNDhOSVeopxWnnPflwphYzEM8hBZ6CbOqprNhTjmadKE6d//QrUDDDxVXJTiGf/Nf+gdDqSBCcHA7NsEihaSCHxEjq8BSOreN46C2LHBuSgPiMMcOgyKAQrGhG+YPK1YQEBZ9AddP/2debaiyCV37fGBSgqL+g0fv/uiRPVAADhA3EC41ykUBr44r1EIYiG8eIIUfsab+TtW/cDhjsh8y642+EY15MXFC8ooqz/crgetDy190ORrFtkajfAot7+LDlVz2oHab7cjub4kdXwy/uW3KiPqF3PzmiL4f0f9qx2A0s3zkdb3VDNfo/mCX43qtrnrEQF/vgxlRNvxRVuw/QFMxNSUEy/ab+d3ZWp5zjNUTJgnzUlIh3aTFyLglNHB4oEnPWDuMloI4FzV86D0zctC4oMYyH39dC0gqChVDIg6V7zN90Cg/gqtIA2VqSX4DLPVGa+SZA/O3MMl7DUwpVDU/zUPu7tRdHagRK0Jijy7paP9r2yx+eZ8PqI6aRdDOgAKZ5TK3/rw57+OX4fnDEjgAmA/GgqkrB0dQf9TmwzVnO06/QC8Nqs1mRo9nuwP/zwcJDzQRqztWBbBEb+5wqJDiqKHkQHTFqJG6XgMvAGPcCFyRx27vENJfr7oohNBfuImbE158vih4EvEUTBMKivhG9SZuwUtemM7wnosASFxxHHFy1iZ03HlFb4t/fDRhjO4JyXwYgacXGnaeckh4f7Wh+eTULSV/uDp1kGAFtVM1utgBfw0DijQkUdZab3sTU8pSGS9sOJGCXjuR9/fG//e8+ZkHQFfxhq4RfmrXA/sgX2ql6cxO4ncytXsJQavCn2Lr/HhLG8eIHT7XSFUtA6Gjj15mFY4DtCTRsaeIy6WGNZrN7mzjwFuF+qZnoYXrYwR1OB1tmlMyY7wRhTjNo+p2DREqYFvwSUTsGcOqP5sdZH/mUa0Ra/66Uz8HnktytbXXNdjp+OWPbQvvLFbg+5H2nm1qdJnKzvHAlBs7Ai/Bkd6/TH4FukFtT3iVtVQC+ZOyztqJeJOCXeGyOb1aLaSO1HGgms7vVC9WJ0TEmxqaZkForrR7m/6zIM53sy2eRfHra4s2dLFCeC5HJ1j9yYgVofgMBZfo8Mx2FjelM9AVIHY2GwCShTYYzIS6HDAWOcNFj99PrRyIlnzpYTE7UTyzg6SJb9FGyJfxDykUJMk0YeaObl1uK1Sp/ye+2Cu9p080GIYfx/PEeqc8OTqVL8TTWZ6mu/QWZfKdrvvDfU4nrvG4xwMi1QJgpuKiXf4SsjgUjHNiWBAr+VhXeNvcXlYezMgXwI8wL+byD59m+0rroCstrfHGQnJ0IJGGHscwhj2wNrZb5py/4j3Xtwaaa6g9bHOXdztYPhSBLGw+/mtGawp3qC5cHaSbmq2yykWAAbiIyGDKew11EGtKBoT7Hcv0QN0KQK0ESCyDGx+D8d4aKz9n3BiXnN4zxryHYm8cEvPCPhzef1kAPRz2frk0a0q5Ja8fKvtwluCXWML1Jozmc6WHPQmkOsRfoN0yC2Fm0pO42/q2z2AOonDYeDXbs30PeWT9cN19jSjDgzXgk9IAkqEXe6m+gd4EogYNWMzZZ9vYPGyzNZFQnw+a+/GkxUpe0HlLXqbyUgqzTRVJw7zH8LwEX2aczcnf3xQELQ5Yjz3RqFZ53C997jPIpA+vEd/RAbgGxAcoUMYXPSSFYIWtNkZ783t/xRUtXTHTRq77/5XyvI91KfkuqQPieqUWiYMLo8eYipcwoDLwkyaTL2eGzIJWCStZEsSMpZx4pOA1FZBfOF4ZpmVHr5g2BExj2RLnqIAfZxCuedkU02Fm+BaU0q5zh0RWykomRfjMsP8sAe12ViJ693CymSC4lejkk+2xLn9fM2jwe7oiT2TLKm9cUWga+hhM9WYc57iu11m1tnJFUDKsa8rVgLAfsxTlZZFWzxWhe81EeT+7vzud4BltVxbwS4cGmfKWcCudZ8nN1nh04NrULpOpZO6IG9wY0aWAWlLcAp6MqJdBjWeXPksjsezAolNM7dNlYORZYUlXZAhn2RGMak1UXlTP4Bm+VP00myf8p/DF9fwqGGwHtq1meGMXivk9pBGER5kb91+4Nr09ZZxx6xx1qoHLxtJmAREQ5XH5kF6Yr1VcQ994WiAg/SuzQ43DEGni6AK4nvhxP9QBc32dMuZnjKUN4azeuxBpUYsx34oDkho8kAW6YM11t2liDneB4miloGFw8DCcFoiF8e2zERgvjCB5NEaD9tf6DqkKIZ0Xu6VeNs+V2nzktMwReTMcYfeaWCbVXL6XF+R6MlxIyFKLOZbTRrBcj7ltNqX4ElUTbIPl1tjJJEROpliyzkPwVGoMAx/kkeP6b6Jw6qpMtbUaoy7V/nSVwcJl5vD+4T2R3vruTX7Y9x5oAYgx2ExVF92WC/jkivDnJE2PMBnzzb55IFBF7+XDOKg8y86bJTN1or++AYxW4r5Wi20q6rqds/2tpWRgcIfAvGEFSAAAAAAAAAAAAAAAAAAAAAAA=;" parent="1" vertex="1">
          <mxGeometry x="670" y="1450" as="geometry" />
        </mxCell>
        <mxCell id="ir4OMrtsFITVhEPcW_xw-103" value="" style="endArrow=classic;startArrow=classic;html=1;rounded=0;fontSize=1;startSize=10;endSize=10;strokeWidth=1;exitX=0.25;exitY=0;exitDx=0;exitDy=0;" parent="1" source="ir4OMrtsFITVhEPcW_xw-82" target="ir4OMrtsFITVhEPcW_xw-101" edge="1">
          <mxGeometry width="50" height="50" relative="1" as="geometry">
            <mxPoint x="784.9736585365854" y="1730.0000000000005" as="sourcePoint" />
            <mxPoint x="789.3092682926831" y="1620.0000000000005" as="targetPoint" />
          </mxGeometry>
        </mxCell>
        <mxCell id="ycrEzUAM44DKubN_wqMR-1" value="WBS: Patch Management" style="swimlane;html=1;startSize=20;horizontal=1;containerType=tree;glass=0;swimlaneLine=1;" parent="1" vertex="1">
          <mxGeometry x="1150" y="1910" width="2840" height="920" as="geometry" />
        </mxCell>
        <UserObject label="&lt;div style=&quot;font-size: 16px&quot; align=&quot;left&quot;&gt;PATCH MANAGEMENT&lt;/div&gt;" placeholders="1" id="ycrEzUAM44DKubN_wqMR-2">
          <mxCell style="label;rounded=0;glass=0;treeMoving=1;treeFolding=1;fillColor=#f8cecc;strokeColor=default;align=left;verticalAlign=middle;imageAspect=0;html=1;whiteSpace=wrap;labelPosition=center;verticalLabelPosition=middle;" parent="ycrEzUAM44DKubN_wqMR-1" vertex="1">
            <mxGeometry x="1170" y="110" width="260" height="70" as="geometry" />
          </mxCell>
        </UserObject>
        <mxCell id="YoWUuYcGSh0rUJ0fzz2e-33" style="edgeStyle=orthogonalEdgeStyle;rounded=0;orthogonalLoop=1;jettySize=auto;html=1;exitX=0;exitY=1;exitDx=0;exitDy=0;entryX=0;entryY=0.5;entryDx=0;entryDy=0;endArrow=none;endFill=0;" parent="ycrEzUAM44DKubN_wqMR-1" source="ycrEzUAM44DKubN_wqMR-11" target="YoWUuYcGSh0rUJ0fzz2e-32" edge="1">
          <mxGeometry relative="1" as="geometry" />
        </mxCell>
        <mxCell id="YoWUuYcGSh0rUJ0fzz2e-47" style="edgeStyle=orthogonalEdgeStyle;rounded=0;orthogonalLoop=1;jettySize=auto;html=1;exitX=0;exitY=1;exitDx=0;exitDy=0;entryX=0;entryY=0.5;entryDx=0;entryDy=0;endArrow=none;endFill=0;" parent="ycrEzUAM44DKubN_wqMR-1" source="ycrEzUAM44DKubN_wqMR-11" target="YoWUuYcGSh0rUJ0fzz2e-46" edge="1">
          <mxGeometry relative="1" as="geometry" />
        </mxCell>
        <UserObject label="&amp;nbsp;&amp;nbsp;&amp;nbsp;&amp;nbsp;&amp;nbsp; Sous Projet &quot;Authentification&quot;" placeholders="1" id="ycrEzUAM44DKubN_wqMR-11">
          <mxCell style="label;whiteSpace=wrap;html=1;rounded=0;glass=0;align=left;treeFolding=1;treeMoving=1;" parent="ycrEzUAM44DKubN_wqMR-1" vertex="1">
            <mxGeometry x="620" y="270" width="205" height="80" as="geometry" />
          </mxCell>
        </UserObject>
        <UserObject label="&amp;nbsp;&amp;nbsp; Etude Préalable" placeholders="1" id="ycrEzUAM44DKubN_wqMR-4">
          <mxCell style="label;whiteSpace=wrap;html=1;rounded=0;glass=0;treeFolding=1;treeMoving=1;arcSize=7;imageHeight=45;imageWidth=45;imageAlign=left;imageAspect=0;image=https://cdn4.iconfinder.com/data/icons/business-black-1/64/14-128.png;" parent="ycrEzUAM44DKubN_wqMR-1" vertex="1">
            <mxGeometry x="140" y="270" width="205" height="80" as="geometry" />
          </mxCell>
        </UserObject>
        <mxCell id="ycrEzUAM44DKubN_wqMR-3" value="" style="endArrow=blockThin;endFill=1;fontSize=11;edgeStyle=elbowEdgeStyle;elbow=vertical;rounded=0;" parent="ycrEzUAM44DKubN_wqMR-1" source="ycrEzUAM44DKubN_wqMR-2" target="ycrEzUAM44DKubN_wqMR-4" edge="1">
          <mxGeometry relative="1" as="geometry" />
        </mxCell>
        <mxCell id="ycrEzUAM44DKubN_wqMR-7" value="" style="endArrow=blockThin;endFill=1;fontSize=11;edgeStyle=elbowEdgeStyle;elbow=vertical;rounded=0;" parent="ycrEzUAM44DKubN_wqMR-1" source="ycrEzUAM44DKubN_wqMR-2" target="ycrEzUAM44DKubN_wqMR-8" edge="1">
          <mxGeometry relative="1" as="geometry" />
        </mxCell>
        <mxCell id="YoWUuYcGSh0rUJ0fzz2e-71" style="edgeStyle=orthogonalEdgeStyle;rounded=0;orthogonalLoop=1;jettySize=auto;html=1;exitX=0;exitY=1;exitDx=0;exitDy=0;entryX=0;entryY=0.5;entryDx=0;entryDy=0;endArrow=none;endFill=0;" parent="ycrEzUAM44DKubN_wqMR-1" source="ycrEzUAM44DKubN_wqMR-8" target="YoWUuYcGSh0rUJ0fzz2e-70" edge="1">
          <mxGeometry relative="1" as="geometry" />
        </mxCell>
        <UserObject label="&amp;nbsp;&amp;nbsp; Sous Projet &quot;Historisation&quot;" placeholders="1" id="ycrEzUAM44DKubN_wqMR-8">
          <mxCell style="label;whiteSpace=wrap;html=1;rounded=0;glass=0;align=left;treeFolding=1;treeMoving=1;" parent="ycrEzUAM44DKubN_wqMR-1" vertex="1">
            <mxGeometry x="1310" y="270" width="205" height="80" as="geometry" />
          </mxCell>
        </UserObject>
        <mxCell id="ycrEzUAM44DKubN_wqMR-10" value="" style="endArrow=blockThin;endFill=1;fontSize=11;edgeStyle=elbowEdgeStyle;elbow=vertical;rounded=0;" parent="ycrEzUAM44DKubN_wqMR-1" source="ycrEzUAM44DKubN_wqMR-2" target="ycrEzUAM44DKubN_wqMR-11" edge="1">
          <mxGeometry relative="1" as="geometry">
            <mxPoint x="2070" y="2070" as="sourcePoint" />
          </mxGeometry>
        </mxCell>
        <mxCell id="YoWUuYcGSh0rUJ0fzz2e-1" value="" style="endArrow=blockThin;endFill=1;fontSize=11;edgeStyle=elbowEdgeStyle;elbow=vertical;rounded=0;" parent="ycrEzUAM44DKubN_wqMR-1" source="ycrEzUAM44DKubN_wqMR-2" target="YoWUuYcGSh0rUJ0fzz2e-2" edge="1">
          <mxGeometry relative="1" as="geometry">
            <mxPoint x="1660" y="2070" as="sourcePoint" />
          </mxGeometry>
        </mxCell>
        <UserObject label="&lt;div align=&quot;left&quot;&gt;Creation Environnement de développement&lt;br&gt;&lt;/div&gt;" placeholders="1" id="YoWUuYcGSh0rUJ0fzz2e-2">
          <mxCell style="label;whiteSpace=wrap;html=1;rounded=0;glass=0;treeFolding=1;treeMoving=1;arcSize=7;imageHeight=14;imageWidth=11;imageAlign=left;imageAspect=0;" parent="ycrEzUAM44DKubN_wqMR-1" vertex="1">
            <mxGeometry x="390" y="270" width="205" height="80" as="geometry" />
          </mxCell>
        </UserObject>
        <mxCell id="YoWUuYcGSh0rUJ0fzz2e-6" style="edgeStyle=orthogonalEdgeStyle;rounded=0;orthogonalLoop=1;jettySize=auto;html=1;exitX=0;exitY=1;exitDx=0;exitDy=0;entryX=0;entryY=0.5;entryDx=0;entryDy=0;endArrow=none;endFill=0;" parent="ycrEzUAM44DKubN_wqMR-1" source="YoWUuYcGSh0rUJ0fzz2e-2" target="YoWUuYcGSh0rUJ0fzz2e-7" edge="1">
          <mxGeometry relative="1" as="geometry">
            <mxPoint x="1450" y="2220" as="sourcePoint" />
          </mxGeometry>
        </mxCell>
        <UserObject label="Creation VM" placeholders="1" id="YoWUuYcGSh0rUJ0fzz2e-7">
          <mxCell style="label;whiteSpace=wrap;html=1;rounded=0;glass=0;treeFolding=1;treeMoving=1;arcSize=12;imageHeight=42;imageWidth=42;imageAlign=left;imageAspect=1;image=https://cdn4.iconfinder.com/data/icons/developer-set-3/128/code-128.png;" parent="ycrEzUAM44DKubN_wqMR-1" vertex="1">
            <mxGeometry x="415" y="378" width="180" height="60" as="geometry" />
          </mxCell>
        </UserObject>
        <mxCell id="YoWUuYcGSh0rUJ0fzz2e-8" style="edgeStyle=orthogonalEdgeStyle;rounded=0;orthogonalLoop=1;jettySize=auto;html=1;exitX=0;exitY=1;exitDx=0;exitDy=0;entryX=0;entryY=0.5;entryDx=0;entryDy=0;endArrow=none;endFill=0;" parent="ycrEzUAM44DKubN_wqMR-1" source="YoWUuYcGSh0rUJ0fzz2e-2" target="YoWUuYcGSh0rUJ0fzz2e-9" edge="1">
          <mxGeometry relative="1" as="geometry">
            <mxPoint x="1450" y="2220" as="sourcePoint" />
          </mxGeometry>
        </mxCell>
        <UserObject label="Installation Outils" placeholders="1" id="YoWUuYcGSh0rUJ0fzz2e-9">
          <mxCell style="label;whiteSpace=wrap;html=1;rounded=0;glass=0;treeFolding=1;treeMoving=1;arcSize=12;imageHeight=42;imageWidth=42;imageAlign=left;imageAspect=1;image=https://cdn4.iconfinder.com/data/icons/developer-set-3/128/code-128.png;" parent="ycrEzUAM44DKubN_wqMR-1" vertex="1">
            <mxGeometry x="415" y="448" width="180" height="60" as="geometry" />
          </mxCell>
        </UserObject>
        <mxCell id="YoWUuYcGSh0rUJ0fzz2e-10" style="edgeStyle=orthogonalEdgeStyle;rounded=0;orthogonalLoop=1;jettySize=auto;html=1;exitX=0;exitY=1;exitDx=0;exitDy=0;entryX=0;entryY=0.5;entryDx=0;entryDy=0;endArrow=none;endFill=0;" parent="ycrEzUAM44DKubN_wqMR-1" source="YoWUuYcGSh0rUJ0fzz2e-2" target="YoWUuYcGSh0rUJ0fzz2e-11" edge="1">
          <mxGeometry relative="1" as="geometry">
            <mxPoint x="1450" y="2220" as="sourcePoint" />
          </mxGeometry>
        </mxCell>
        <UserObject label="Mise en place projet" placeholders="1" id="YoWUuYcGSh0rUJ0fzz2e-11">
          <mxCell style="label;whiteSpace=wrap;html=1;rounded=0;glass=0;treeFolding=1;treeMoving=1;arcSize=12;imageHeight=42;imageWidth=42;imageAlign=left;imageAspect=1;image=https://cdn4.iconfinder.com/data/icons/developer-set-3/128/code-128.png;" parent="ycrEzUAM44DKubN_wqMR-1" vertex="1">
            <mxGeometry x="415" y="588" width="180" height="60" as="geometry" />
          </mxCell>
        </UserObject>
        <mxCell id="YoWUuYcGSh0rUJ0fzz2e-12" value="" style="endArrow=blockThin;endFill=1;fontSize=11;edgeStyle=elbowEdgeStyle;elbow=vertical;rounded=0;" parent="ycrEzUAM44DKubN_wqMR-1" source="ycrEzUAM44DKubN_wqMR-2" target="YoWUuYcGSh0rUJ0fzz2e-13" edge="1">
          <mxGeometry relative="1" as="geometry">
            <mxPoint x="1630" y="2060" as="sourcePoint" />
          </mxGeometry>
        </mxCell>
        <mxCell id="YoWUuYcGSh0rUJ0fzz2e-18" style="edgeStyle=orthogonalEdgeStyle;rounded=0;orthogonalLoop=1;jettySize=auto;html=1;exitX=0;exitY=1;exitDx=0;exitDy=0;entryX=0;entryY=0.5;entryDx=0;entryDy=0;endArrow=none;endFill=0;" parent="ycrEzUAM44DKubN_wqMR-1" source="YoWUuYcGSh0rUJ0fzz2e-13" target="YoWUuYcGSh0rUJ0fzz2e-15" edge="1">
          <mxGeometry relative="1" as="geometry" />
        </mxCell>
        <UserObject label="&amp;nbsp;&amp;nbsp; Sous Projet &amp;nbsp; &amp;nbsp; &amp;nbsp; &amp;nbsp; &amp;nbsp; &amp;nbsp; &amp;nbsp; &amp;nbsp; &amp;nbsp; &amp;nbsp; &amp;nbsp; &amp;nbsp; &amp;nbsp;&amp;nbsp; &quot;Serveurs&quot;" placeholders="1" id="YoWUuYcGSh0rUJ0fzz2e-13">
          <mxCell style="label;whiteSpace=wrap;html=1;rounded=0;glass=0;treeFolding=1;treeMoving=1;arcSize=7;imageHeight=14;imageWidth=11;imageAlign=left;imageAspect=1;" parent="ycrEzUAM44DKubN_wqMR-1" vertex="1">
            <mxGeometry x="850" y="270" width="205" height="80" as="geometry" />
          </mxCell>
        </UserObject>
        <UserObject label="&amp;nbsp; EP" placeholders="1" id="YoWUuYcGSh0rUJ0fzz2e-15">
          <mxCell style="label;whiteSpace=wrap;html=1;rounded=0;glass=0;treeFolding=1;treeMoving=1;arcSize=7;imageHeight=42;imageWidth=42;imageAlign=left;imageAspect=0;image=https://cdn4.iconfinder.com/data/icons/business-black-1/64/14-128.png;" parent="ycrEzUAM44DKubN_wqMR-1" vertex="1">
            <mxGeometry x="875" y="378" width="180" height="60" as="geometry" />
          </mxCell>
        </UserObject>
        <mxCell id="YoWUuYcGSh0rUJ0fzz2e-19" style="edgeStyle=orthogonalEdgeStyle;rounded=0;orthogonalLoop=1;jettySize=auto;html=1;exitX=0;exitY=1;exitDx=0;exitDy=0;entryX=0;entryY=0.5;entryDx=0;entryDy=0;endArrow=none;endFill=0;" parent="ycrEzUAM44DKubN_wqMR-1" source="YoWUuYcGSh0rUJ0fzz2e-13" target="YoWUuYcGSh0rUJ0fzz2e-20" edge="1">
          <mxGeometry relative="1" as="geometry">
            <mxPoint x="1890" y="2210" as="sourcePoint" />
          </mxGeometry>
        </mxCell>
        <UserObject label="Conception BDD &quot;Serveurs&quot;" placeholders="1" id="YoWUuYcGSh0rUJ0fzz2e-20">
          <mxCell style="label;whiteSpace=wrap;html=1;rounded=0;glass=0;treeFolding=1;treeMoving=1;arcSize=12;imageHeight=42;imageWidth=42;imageAlign=left;imageAspect=0;image=https://cdn1.iconfinder.com/data/icons/iconoir-vol-1/24/db-128.png;" parent="ycrEzUAM44DKubN_wqMR-1" vertex="1">
            <mxGeometry x="875" y="448" width="180" height="60" as="geometry" />
          </mxCell>
        </UserObject>
        <mxCell id="YoWUuYcGSh0rUJ0fzz2e-21" style="edgeStyle=orthogonalEdgeStyle;rounded=0;orthogonalLoop=1;jettySize=auto;html=1;exitX=0;exitY=1;exitDx=0;exitDy=0;entryX=0;entryY=0.5;entryDx=0;entryDy=0;endArrow=none;endFill=0;" parent="ycrEzUAM44DKubN_wqMR-1" source="YoWUuYcGSh0rUJ0fzz2e-13" target="YoWUuYcGSh0rUJ0fzz2e-22" edge="1">
          <mxGeometry relative="1" as="geometry">
            <mxPoint x="1890" y="2210" as="sourcePoint" />
          </mxGeometry>
        </mxCell>
        <UserObject label="Conception scripts collecte infos serveurs" placeholders="1" id="YoWUuYcGSh0rUJ0fzz2e-22">
          <mxCell style="label;whiteSpace=wrap;html=1;rounded=0;glass=0;treeFolding=1;treeMoving=1;arcSize=7;imageHeight=42;imageWidth=42;imageAlign=left;imageAspect=1;image=https://cdn4.iconfinder.com/data/icons/developer-set-3/128/code-128.png;" parent="ycrEzUAM44DKubN_wqMR-1" vertex="1">
            <mxGeometry x="875" y="518" width="180" height="60" as="geometry" />
          </mxCell>
        </UserObject>
        <mxCell id="YoWUuYcGSh0rUJ0fzz2e-23" style="edgeStyle=orthogonalEdgeStyle;rounded=0;orthogonalLoop=1;jettySize=auto;html=1;exitX=0;exitY=1;exitDx=0;exitDy=0;entryX=0;entryY=0.5;entryDx=0;entryDy=0;endArrow=none;endFill=0;" parent="ycrEzUAM44DKubN_wqMR-1" source="YoWUuYcGSh0rUJ0fzz2e-13" target="YoWUuYcGSh0rUJ0fzz2e-24" edge="1">
          <mxGeometry relative="1" as="geometry">
            <mxPoint x="1890" y="2210" as="sourcePoint" />
          </mxGeometry>
        </mxCell>
        <UserObject label="NodeJS: Interpretation requête " placeholders="1" id="YoWUuYcGSh0rUJ0fzz2e-24">
          <mxCell style="label;whiteSpace=wrap;html=1;rounded=0;glass=0;treeFolding=1;treeMoving=1;arcSize=7;imageHeight=42;imageWidth=42;imageAlign=left;imageAspect=1;image=https://cdn4.iconfinder.com/data/icons/developer-set-3/128/code-128.png;" parent="ycrEzUAM44DKubN_wqMR-1" vertex="1">
            <mxGeometry x="875" y="588" width="180" height="60" as="geometry" />
          </mxCell>
        </UserObject>
        <mxCell id="YoWUuYcGSh0rUJ0fzz2e-25" style="edgeStyle=orthogonalEdgeStyle;rounded=0;orthogonalLoop=1;jettySize=auto;html=1;exitX=0;exitY=1;exitDx=0;exitDy=0;entryX=0;entryY=0.5;entryDx=0;entryDy=0;endArrow=none;endFill=0;" parent="ycrEzUAM44DKubN_wqMR-1" source="YoWUuYcGSh0rUJ0fzz2e-13" target="YoWUuYcGSh0rUJ0fzz2e-26" edge="1">
          <mxGeometry relative="1" as="geometry">
            <mxPoint x="1890" y="2210" as="sourcePoint" />
          </mxGeometry>
        </mxCell>
        <UserObject label="NodeJS: routine d&#39;actualsiation des données" placeholders="1" id="YoWUuYcGSh0rUJ0fzz2e-26">
          <mxCell style="label;whiteSpace=wrap;html=1;rounded=0;glass=0;treeFolding=1;treeMoving=1;arcSize=7;imageHeight=42;imageWidth=42;imageAlign=left;imageAspect=1;image=https://cdn4.iconfinder.com/data/icons/developer-set-3/128/code-128.png;" parent="ycrEzUAM44DKubN_wqMR-1" vertex="1">
            <mxGeometry x="875" y="658" width="180" height="60" as="geometry" />
          </mxCell>
        </UserObject>
        <mxCell id="YoWUuYcGSh0rUJ0fzz2e-27" style="edgeStyle=orthogonalEdgeStyle;rounded=0;orthogonalLoop=1;jettySize=auto;html=1;exitX=0;exitY=1;exitDx=0;exitDy=0;entryX=0;entryY=0.5;entryDx=0;entryDy=0;endArrow=none;endFill=0;" parent="ycrEzUAM44DKubN_wqMR-1" source="YoWUuYcGSh0rUJ0fzz2e-13" target="YoWUuYcGSh0rUJ0fzz2e-28" edge="1">
          <mxGeometry relative="1" as="geometry">
            <mxPoint x="1890" y="2210" as="sourcePoint" />
          </mxGeometry>
        </mxCell>
        <UserObject label="Interface: Affichage des infos" placeholders="1" id="YoWUuYcGSh0rUJ0fzz2e-28">
          <mxCell style="label;whiteSpace=wrap;html=1;rounded=0;glass=0;treeFolding=1;treeMoving=1;arcSize=7;imageHeight=42;imageWidth=42;imageAlign=left;imageAspect=1;image=https://cdn4.iconfinder.com/data/icons/developer-set-3/128/code-128.png;" parent="ycrEzUAM44DKubN_wqMR-1" vertex="1">
            <mxGeometry x="875" y="728" width="180" height="60" as="geometry" />
          </mxCell>
        </UserObject>
        <mxCell id="YoWUuYcGSh0rUJ0fzz2e-29" style="edgeStyle=orthogonalEdgeStyle;rounded=0;orthogonalLoop=1;jettySize=auto;html=1;exitX=0;exitY=1;exitDx=0;exitDy=0;entryX=0;entryY=0.5;entryDx=0;entryDy=0;endArrow=none;endFill=0;" parent="ycrEzUAM44DKubN_wqMR-1" source="YoWUuYcGSh0rUJ0fzz2e-13" target="YoWUuYcGSh0rUJ0fzz2e-30" edge="1">
          <mxGeometry relative="1" as="geometry">
            <mxPoint x="1890" y="2210" as="sourcePoint" />
          </mxGeometry>
        </mxCell>
        <UserObject label="Test" placeholders="1" id="YoWUuYcGSh0rUJ0fzz2e-30">
          <mxCell style="label;whiteSpace=wrap;html=1;rounded=0;glass=0;treeFolding=1;treeMoving=1;arcSize=12;imageHeight=42;imageWidth=42;imageAlign=left;imageAspect=1;image=https://cdn2.iconfinder.com/data/icons/arrows-and-universal-actions-icon-set/256/ok_circle-128.png;" parent="ycrEzUAM44DKubN_wqMR-1" vertex="1">
            <mxGeometry x="875" y="798" width="180" height="60" as="geometry" />
          </mxCell>
        </UserObject>
        <UserObject label="&amp;nbsp; EP" placeholders="1" id="YoWUuYcGSh0rUJ0fzz2e-32">
          <mxCell style="label;whiteSpace=wrap;html=1;rounded=0;glass=0;align=left;treeFolding=1;treeMoving=1;image=https://cdn4.iconfinder.com/data/icons/business-black-1/64/14-128.png;" parent="ycrEzUAM44DKubN_wqMR-1" vertex="1">
            <mxGeometry x="645" y="378" width="180" height="60" as="geometry" />
          </mxCell>
        </UserObject>
        <mxCell id="YoWUuYcGSh0rUJ0fzz2e-34" style="edgeStyle=orthogonalEdgeStyle;rounded=0;orthogonalLoop=1;jettySize=auto;html=1;exitX=0;exitY=1;exitDx=0;exitDy=0;entryX=0;entryY=0.5;entryDx=0;entryDy=0;endArrow=none;endFill=0;" parent="ycrEzUAM44DKubN_wqMR-1" source="ycrEzUAM44DKubN_wqMR-11" target="YoWUuYcGSh0rUJ0fzz2e-35" edge="1">
          <mxGeometry relative="1" as="geometry">
            <mxPoint x="1600" y="2220" as="sourcePoint" />
          </mxGeometry>
        </mxCell>
        <mxCell id="YoWUuYcGSh0rUJ0fzz2e-42" style="edgeStyle=orthogonalEdgeStyle;rounded=0;orthogonalLoop=1;jettySize=auto;html=1;exitX=0;exitY=1;exitDx=0;exitDy=0;entryX=0;entryY=0.5;entryDx=0;entryDy=0;endArrow=none;endFill=0;" parent="ycrEzUAM44DKubN_wqMR-1" source="YoWUuYcGSh0rUJ0fzz2e-35" target="YoWUuYcGSh0rUJ0fzz2e-39" edge="1">
          <mxGeometry relative="1" as="geometry" />
        </mxCell>
        <UserObject label="NodeJS: Mise en place SSO" placeholders="1" id="YoWUuYcGSh0rUJ0fzz2e-35">
          <mxCell style="label;whiteSpace=wrap;html=1;rounded=0;glass=0;align=left;treeFolding=1;treeMoving=1;image=https://cdn4.iconfinder.com/data/icons/developer-set-3/128/code-128.png;" parent="ycrEzUAM44DKubN_wqMR-1" vertex="1">
            <mxGeometry x="645" y="448" width="180" height="60" as="geometry" />
          </mxCell>
        </UserObject>
        <UserObject label="NodeJS:&amp;nbsp; protocole NTLM" placeholders="1" id="YoWUuYcGSh0rUJ0fzz2e-39">
          <mxCell style="label;whiteSpace=wrap;html=1;rounded=0;glass=0;align=left;image=https://cdn4.iconfinder.com/data/icons/developer-set-3/128/code-128.png;imageWidth=35;imageHeight=35;" parent="ycrEzUAM44DKubN_wqMR-1" vertex="1">
            <mxGeometry x="665" y="518" width="160" height="50" as="geometry" />
          </mxCell>
        </UserObject>
        <mxCell id="YoWUuYcGSh0rUJ0fzz2e-43" style="edgeStyle=orthogonalEdgeStyle;rounded=0;orthogonalLoop=1;jettySize=auto;html=1;exitX=0;exitY=1;exitDx=0;exitDy=0;entryX=0;entryY=0.5;entryDx=0;entryDy=0;endArrow=none;endFill=0;" parent="ycrEzUAM44DKubN_wqMR-1" source="YoWUuYcGSh0rUJ0fzz2e-35" target="YoWUuYcGSh0rUJ0fzz2e-44" edge="1">
          <mxGeometry relative="1" as="geometry">
            <mxPoint x="1625" y="2378" as="sourcePoint" />
          </mxGeometry>
        </mxCell>
        <UserObject label="NodeJS:&amp;nbsp; Gestion des jetons Kerberos" placeholders="1" id="YoWUuYcGSh0rUJ0fzz2e-44">
          <mxCell style="label;whiteSpace=wrap;html=1;rounded=0;glass=0;align=left;image=https://cdn4.iconfinder.com/data/icons/developer-set-3/128/code-128.png;imageWidth=35;imageHeight=35;" parent="ycrEzUAM44DKubN_wqMR-1" vertex="1">
            <mxGeometry x="665" y="578" width="160" height="50" as="geometry" />
          </mxCell>
        </UserObject>
        <UserObject label="Interface: Gestion authentification" placeholders="1" id="YoWUuYcGSh0rUJ0fzz2e-46">
          <mxCell style="label;whiteSpace=wrap;html=1;rounded=0;glass=0;align=left;treeFolding=1;treeMoving=1;image=https://cdn4.iconfinder.com/data/icons/developer-set-3/128/code-128.png;" parent="ycrEzUAM44DKubN_wqMR-1" vertex="1">
            <mxGeometry x="645" y="658" width="180" height="60" as="geometry" />
          </mxCell>
        </UserObject>
        <mxCell id="YoWUuYcGSh0rUJ0fzz2e-48" style="edgeStyle=orthogonalEdgeStyle;rounded=0;orthogonalLoop=1;jettySize=auto;html=1;exitX=0;exitY=1;exitDx=0;exitDy=0;entryX=0;entryY=0.5;entryDx=0;entryDy=0;endArrow=none;endFill=0;" parent="ycrEzUAM44DKubN_wqMR-1" source="ycrEzUAM44DKubN_wqMR-11" target="YoWUuYcGSh0rUJ0fzz2e-49" edge="1">
          <mxGeometry relative="1" as="geometry">
            <mxPoint x="1600" y="2220" as="sourcePoint" />
          </mxGeometry>
        </mxCell>
        <UserObject label="Test" placeholders="1" id="YoWUuYcGSh0rUJ0fzz2e-49">
          <mxCell style="label;whiteSpace=wrap;html=1;rounded=0;glass=0;align=left;treeFolding=1;treeMoving=1;image=https://cdn2.iconfinder.com/data/icons/arrows-and-universal-actions-icon-set/256/ok_circle-128.png;" parent="ycrEzUAM44DKubN_wqMR-1" vertex="1">
            <mxGeometry x="645" y="728" width="180" height="60" as="geometry" />
          </mxCell>
        </UserObject>
        <mxCell id="YoWUuYcGSh0rUJ0fzz2e-50" value="" style="endArrow=blockThin;endFill=1;fontSize=11;edgeStyle=elbowEdgeStyle;elbow=vertical;rounded=0;" parent="ycrEzUAM44DKubN_wqMR-1" source="ycrEzUAM44DKubN_wqMR-2" target="YoWUuYcGSh0rUJ0fzz2e-51" edge="1">
          <mxGeometry relative="1" as="geometry">
            <mxPoint x="1580" y="2070" as="sourcePoint" />
          </mxGeometry>
        </mxCell>
        <mxCell id="YoWUuYcGSh0rUJ0fzz2e-54" style="edgeStyle=orthogonalEdgeStyle;rounded=0;orthogonalLoop=1;jettySize=auto;html=1;exitX=0;exitY=1;exitDx=0;exitDy=0;entryX=0;entryY=0.5;entryDx=0;entryDy=0;endArrow=none;endFill=0;" parent="ycrEzUAM44DKubN_wqMR-1" source="YoWUuYcGSh0rUJ0fzz2e-51" target="YoWUuYcGSh0rUJ0fzz2e-53" edge="1">
          <mxGeometry relative="1" as="geometry" />
        </mxCell>
        <UserObject label="&amp;nbsp;&amp;nbsp; Sous Projet &quot;Plannification&quot;" placeholders="1" id="YoWUuYcGSh0rUJ0fzz2e-51">
          <mxCell style="label;whiteSpace=wrap;html=1;rounded=0;glass=0;align=left;treeFolding=1;treeMoving=1;" parent="ycrEzUAM44DKubN_wqMR-1" vertex="1">
            <mxGeometry x="1080" y="270" width="205" height="80" as="geometry" />
          </mxCell>
        </UserObject>
        <UserObject label="&amp;nbsp; EP" placeholders="1" id="YoWUuYcGSh0rUJ0fzz2e-53">
          <mxCell style="label;whiteSpace=wrap;html=1;rounded=0;glass=0;align=left;image=https://cdn4.iconfinder.com/data/icons/business-black-1/64/14-128.png;" parent="ycrEzUAM44DKubN_wqMR-1" vertex="1">
            <mxGeometry x="1105" y="378" width="180" height="60" as="geometry" />
          </mxCell>
        </UserObject>
        <mxCell id="YoWUuYcGSh0rUJ0fzz2e-55" style="edgeStyle=orthogonalEdgeStyle;rounded=0;orthogonalLoop=1;jettySize=auto;html=1;exitX=0;exitY=1;exitDx=0;exitDy=0;entryX=0;entryY=0.5;entryDx=0;entryDy=0;endArrow=none;endFill=0;" parent="ycrEzUAM44DKubN_wqMR-1" source="YoWUuYcGSh0rUJ0fzz2e-2" target="YoWUuYcGSh0rUJ0fzz2e-56" edge="1">
          <mxGeometry relative="1" as="geometry">
            <mxPoint x="1370" y="2220" as="sourcePoint" />
          </mxGeometry>
        </mxCell>
        <UserObject label="Configuration VM" placeholders="1" id="YoWUuYcGSh0rUJ0fzz2e-56">
          <mxCell style="label;whiteSpace=wrap;html=1;rounded=0;glass=0;treeFolding=1;treeMoving=1;arcSize=12;imageHeight=42;imageWidth=42;imageAlign=left;imageAspect=1;image=https://cdn4.iconfinder.com/data/icons/developer-set-3/128/code-128.png;" parent="ycrEzUAM44DKubN_wqMR-1" vertex="1">
            <mxGeometry x="415" y="513" width="180" height="60" as="geometry" />
          </mxCell>
        </UserObject>
        <mxCell id="YoWUuYcGSh0rUJ0fzz2e-57" style="edgeStyle=orthogonalEdgeStyle;rounded=0;orthogonalLoop=1;jettySize=auto;html=1;exitX=0;exitY=1;exitDx=0;exitDy=0;entryX=0;entryY=0.5;entryDx=0;entryDy=0;endArrow=none;endFill=0;" parent="ycrEzUAM44DKubN_wqMR-1" source="YoWUuYcGSh0rUJ0fzz2e-51" target="YoWUuYcGSh0rUJ0fzz2e-58" edge="1">
          <mxGeometry relative="1" as="geometry">
            <mxPoint x="2060" y="2220" as="sourcePoint" />
          </mxGeometry>
        </mxCell>
        <UserObject label="Conception BDD &quot;Planification&quot;" placeholders="1" id="YoWUuYcGSh0rUJ0fzz2e-58">
          <mxCell style="label;whiteSpace=wrap;html=1;rounded=0;glass=0;align=left;image=https://cdn1.iconfinder.com/data/icons/iconoir-vol-1/24/db-128.png;" parent="ycrEzUAM44DKubN_wqMR-1" vertex="1">
            <mxGeometry x="1105" y="448" width="180" height="60" as="geometry" />
          </mxCell>
        </UserObject>
        <mxCell id="YoWUuYcGSh0rUJ0fzz2e-59" style="edgeStyle=orthogonalEdgeStyle;rounded=0;orthogonalLoop=1;jettySize=auto;html=1;exitX=0;exitY=1;exitDx=0;exitDy=0;entryX=0;entryY=0.5;entryDx=0;entryDy=0;endArrow=none;endFill=0;" parent="ycrEzUAM44DKubN_wqMR-1" source="YoWUuYcGSh0rUJ0fzz2e-51" target="YoWUuYcGSh0rUJ0fzz2e-60" edge="1">
          <mxGeometry relative="1" as="geometry">
            <mxPoint x="2060" y="2220" as="sourcePoint" />
          </mxGeometry>
        </mxCell>
        <UserObject label="NodeJS : Interface avec script de mise à jour" placeholders="1" id="YoWUuYcGSh0rUJ0fzz2e-60">
          <mxCell style="label;whiteSpace=wrap;html=1;rounded=0;glass=0;align=left;image=https://cdn4.iconfinder.com/data/icons/developer-set-3/128/code-128.png;" parent="ycrEzUAM44DKubN_wqMR-1" vertex="1">
            <mxGeometry x="1105" y="518" width="180" height="60" as="geometry" />
          </mxCell>
        </UserObject>
        <mxCell id="YoWUuYcGSh0rUJ0fzz2e-61" style="edgeStyle=orthogonalEdgeStyle;rounded=0;orthogonalLoop=1;jettySize=auto;html=1;exitX=0;exitY=1;exitDx=0;exitDy=0;entryX=0;entryY=0.5;entryDx=0;entryDy=0;endArrow=none;endFill=0;" parent="ycrEzUAM44DKubN_wqMR-1" source="YoWUuYcGSh0rUJ0fzz2e-51" target="YoWUuYcGSh0rUJ0fzz2e-62" edge="1">
          <mxGeometry relative="1" as="geometry">
            <mxPoint x="2060" y="2220" as="sourcePoint" />
          </mxGeometry>
        </mxCell>
        <UserObject label="NodeJS : Gestion des requêtes" placeholders="1" id="YoWUuYcGSh0rUJ0fzz2e-62">
          <mxCell style="label;whiteSpace=wrap;html=1;rounded=0;glass=0;align=left;image=https://cdn4.iconfinder.com/data/icons/developer-set-3/128/code-128.png;" parent="ycrEzUAM44DKubN_wqMR-1" vertex="1">
            <mxGeometry x="1105" y="588" width="180" height="60" as="geometry" />
          </mxCell>
        </UserObject>
        <mxCell id="YoWUuYcGSh0rUJ0fzz2e-63" style="edgeStyle=orthogonalEdgeStyle;rounded=0;orthogonalLoop=1;jettySize=auto;html=1;exitX=0;exitY=1;exitDx=0;exitDy=0;entryX=0;entryY=0.5;entryDx=0;entryDy=0;endArrow=none;endFill=0;" parent="ycrEzUAM44DKubN_wqMR-1" source="YoWUuYcGSh0rUJ0fzz2e-51" target="YoWUuYcGSh0rUJ0fzz2e-64" edge="1">
          <mxGeometry relative="1" as="geometry">
            <mxPoint x="2060" y="2220" as="sourcePoint" />
          </mxGeometry>
        </mxCell>
        <UserObject label="Interface: Gestion des planfifications" placeholders="1" id="YoWUuYcGSh0rUJ0fzz2e-64">
          <mxCell style="label;whiteSpace=wrap;html=1;rounded=0;glass=0;align=left;image=https://cdn4.iconfinder.com/data/icons/developer-set-3/128/code-128.png;" parent="ycrEzUAM44DKubN_wqMR-1" vertex="1">
            <mxGeometry x="1105" y="658" width="180" height="60" as="geometry" />
          </mxCell>
        </UserObject>
        <mxCell id="YoWUuYcGSh0rUJ0fzz2e-65" style="edgeStyle=orthogonalEdgeStyle;rounded=0;orthogonalLoop=1;jettySize=auto;html=1;exitX=0;exitY=1;exitDx=0;exitDy=0;entryX=0;entryY=0.5;entryDx=0;entryDy=0;endArrow=none;endFill=0;" parent="ycrEzUAM44DKubN_wqMR-1" source="YoWUuYcGSh0rUJ0fzz2e-51" target="YoWUuYcGSh0rUJ0fzz2e-66" edge="1">
          <mxGeometry relative="1" as="geometry">
            <mxPoint x="2060" y="2220" as="sourcePoint" />
          </mxGeometry>
        </mxCell>
        <UserObject label="Test" placeholders="1" id="YoWUuYcGSh0rUJ0fzz2e-66">
          <mxCell style="label;whiteSpace=wrap;html=1;rounded=0;glass=0;align=left;image=https://cdn2.iconfinder.com/data/icons/arrows-and-universal-actions-icon-set/256/ok_circle-128.png;" parent="ycrEzUAM44DKubN_wqMR-1" vertex="1">
            <mxGeometry x="1105" y="728" width="180" height="60" as="geometry" />
          </mxCell>
        </UserObject>
        <mxCell id="YoWUuYcGSh0rUJ0fzz2e-67" value="" style="endArrow=blockThin;endFill=1;fontSize=11;edgeStyle=elbowEdgeStyle;elbow=vertical;rounded=0;" parent="ycrEzUAM44DKubN_wqMR-1" source="ycrEzUAM44DKubN_wqMR-2" target="YoWUuYcGSh0rUJ0fzz2e-68" edge="1">
          <mxGeometry relative="1" as="geometry">
            <mxPoint x="1580" y="2070" as="sourcePoint" />
          </mxGeometry>
        </mxCell>
        <mxCell id="YoWUuYcGSh0rUJ0fzz2e-86" style="edgeStyle=orthogonalEdgeStyle;rounded=0;orthogonalLoop=1;jettySize=auto;html=1;exitX=0;exitY=1;exitDx=0;exitDy=0;entryX=0;entryY=0.5;entryDx=0;entryDy=0;endArrow=none;endFill=0;" parent="ycrEzUAM44DKubN_wqMR-1" source="YoWUuYcGSh0rUJ0fzz2e-68" target="YoWUuYcGSh0rUJ0fzz2e-85" edge="1">
          <mxGeometry relative="1" as="geometry" />
        </mxCell>
        <UserObject label="&amp;nbsp;&amp;nbsp; Sous Projet &quot;Paramètres&quot;" placeholders="1" id="YoWUuYcGSh0rUJ0fzz2e-68">
          <mxCell style="label;whiteSpace=wrap;html=1;rounded=0;glass=0;align=left;treeFolding=1;treeMoving=1;" parent="ycrEzUAM44DKubN_wqMR-1" vertex="1">
            <mxGeometry x="1542" y="270" width="205" height="80" as="geometry" />
          </mxCell>
        </UserObject>
        <UserObject label="&amp;nbsp; EP" placeholders="1" id="YoWUuYcGSh0rUJ0fzz2e-70">
          <mxCell style="label;whiteSpace=wrap;html=1;rounded=0;glass=0;align=left;image=https://cdn4.iconfinder.com/data/icons/business-black-1/64/14-128.png;" parent="ycrEzUAM44DKubN_wqMR-1" vertex="1">
            <mxGeometry x="1335" y="378" width="180" height="60" as="geometry" />
          </mxCell>
        </UserObject>
        <mxCell id="YoWUuYcGSh0rUJ0fzz2e-72" style="edgeStyle=orthogonalEdgeStyle;rounded=0;orthogonalLoop=1;jettySize=auto;html=1;exitX=0;exitY=1;exitDx=0;exitDy=0;entryX=0;entryY=0.5;entryDx=0;entryDy=0;endArrow=none;endFill=0;" parent="ycrEzUAM44DKubN_wqMR-1" source="ycrEzUAM44DKubN_wqMR-8" target="YoWUuYcGSh0rUJ0fzz2e-73" edge="1">
          <mxGeometry relative="1" as="geometry">
            <mxPoint x="2250" y="2220" as="sourcePoint" />
          </mxGeometry>
        </mxCell>
        <UserObject label="Conception BDD &quot;Historique&quot;" placeholders="1" id="YoWUuYcGSh0rUJ0fzz2e-73">
          <mxCell style="label;whiteSpace=wrap;html=1;rounded=0;glass=0;align=left;image=https://cdn1.iconfinder.com/data/icons/iconoir-vol-1/24/db-128.png;" parent="ycrEzUAM44DKubN_wqMR-1" vertex="1">
            <mxGeometry x="1335" y="448" width="180" height="60" as="geometry" />
          </mxCell>
        </UserObject>
        <mxCell id="YoWUuYcGSh0rUJ0fzz2e-74" style="edgeStyle=orthogonalEdgeStyle;rounded=0;orthogonalLoop=1;jettySize=auto;html=1;exitX=0;exitY=1;exitDx=0;exitDy=0;entryX=0;entryY=0.5;entryDx=0;entryDy=0;endArrow=none;endFill=0;" parent="ycrEzUAM44DKubN_wqMR-1" source="ycrEzUAM44DKubN_wqMR-8" target="YoWUuYcGSh0rUJ0fzz2e-75" edge="1">
          <mxGeometry relative="1" as="geometry">
            <mxPoint x="2250" y="2220" as="sourcePoint" />
          </mxGeometry>
        </mxCell>
        <UserObject label="NodeJS : Gestion de l&#39;historisation des MAJ serveurs" placeholders="1" id="YoWUuYcGSh0rUJ0fzz2e-75">
          <mxCell style="label;whiteSpace=wrap;html=1;rounded=0;glass=0;align=left;image=https://cdn4.iconfinder.com/data/icons/developer-set-3/128/code-128.png;" parent="ycrEzUAM44DKubN_wqMR-1" vertex="1">
            <mxGeometry x="1335" y="518" width="180" height="60" as="geometry" />
          </mxCell>
        </UserObject>
        <mxCell id="YoWUuYcGSh0rUJ0fzz2e-76" style="edgeStyle=orthogonalEdgeStyle;rounded=0;orthogonalLoop=1;jettySize=auto;html=1;exitX=0;exitY=1;exitDx=0;exitDy=0;entryX=0;entryY=0.5;entryDx=0;entryDy=0;endArrow=none;endFill=0;" parent="ycrEzUAM44DKubN_wqMR-1" source="ycrEzUAM44DKubN_wqMR-8" target="YoWUuYcGSh0rUJ0fzz2e-77" edge="1">
          <mxGeometry relative="1" as="geometry">
            <mxPoint x="2250" y="2220" as="sourcePoint" />
          </mxGeometry>
        </mxCell>
        <UserObject label="Interface: Visualisation des historiques" placeholders="1" id="YoWUuYcGSh0rUJ0fzz2e-77">
          <mxCell style="label;whiteSpace=wrap;html=1;rounded=0;glass=0;align=left;image=https://cdn4.iconfinder.com/data/icons/developer-set-3/128/code-128.png;" parent="ycrEzUAM44DKubN_wqMR-1" vertex="1">
            <mxGeometry x="1335" y="588" width="180" height="60" as="geometry" />
          </mxCell>
        </UserObject>
        <mxCell id="YoWUuYcGSh0rUJ0fzz2e-78" style="edgeStyle=orthogonalEdgeStyle;rounded=0;orthogonalLoop=1;jettySize=auto;html=1;exitX=0;exitY=1;exitDx=0;exitDy=0;entryX=0;entryY=0.5;entryDx=0;entryDy=0;endArrow=none;endFill=0;" parent="ycrEzUAM44DKubN_wqMR-1" source="ycrEzUAM44DKubN_wqMR-8" target="YoWUuYcGSh0rUJ0fzz2e-79" edge="1">
          <mxGeometry relative="1" as="geometry">
            <mxPoint x="2250" y="2220" as="sourcePoint" />
          </mxGeometry>
        </mxCell>
        <UserObject label="Interface: Creation de statistiques " placeholders="1" id="YoWUuYcGSh0rUJ0fzz2e-79">
          <mxCell style="label;whiteSpace=wrap;html=1;rounded=0;glass=0;align=left;image=https://cdn4.iconfinder.com/data/icons/developer-set-3/128/code-128.png;" parent="ycrEzUAM44DKubN_wqMR-1" vertex="1">
            <mxGeometry x="1335" y="658" width="180" height="60" as="geometry" />
          </mxCell>
        </UserObject>
        <mxCell id="YoWUuYcGSh0rUJ0fzz2e-80" style="edgeStyle=orthogonalEdgeStyle;rounded=0;orthogonalLoop=1;jettySize=auto;html=1;exitX=0;exitY=1;exitDx=0;exitDy=0;entryX=0;entryY=0.5;entryDx=0;entryDy=0;endArrow=none;endFill=0;" parent="ycrEzUAM44DKubN_wqMR-1" source="ycrEzUAM44DKubN_wqMR-8" target="YoWUuYcGSh0rUJ0fzz2e-81" edge="1">
          <mxGeometry relative="1" as="geometry">
            <mxPoint x="2250" y="2220" as="sourcePoint" />
          </mxGeometry>
        </mxCell>
        <UserObject label="Test" placeholders="1" id="YoWUuYcGSh0rUJ0fzz2e-81">
          <mxCell style="label;whiteSpace=wrap;html=1;rounded=0;glass=0;align=left;image=https://cdn2.iconfinder.com/data/icons/arrows-and-universal-actions-icon-set/256/ok_circle-128.png;" parent="ycrEzUAM44DKubN_wqMR-1" vertex="1">
            <mxGeometry x="1335" y="728" width="180" height="60" as="geometry" />
          </mxCell>
        </UserObject>
        <mxCell id="YoWUuYcGSh0rUJ0fzz2e-82" value="" style="endArrow=blockThin;endFill=1;fontSize=11;edgeStyle=elbowEdgeStyle;elbow=vertical;rounded=0;" parent="ycrEzUAM44DKubN_wqMR-1" source="ycrEzUAM44DKubN_wqMR-2" target="YoWUuYcGSh0rUJ0fzz2e-83" edge="1">
          <mxGeometry relative="1" as="geometry">
            <mxPoint x="1540" y="2070" as="sourcePoint" />
          </mxGeometry>
        </mxCell>
        <mxCell id="YoWUuYcGSh0rUJ0fzz2e-101" style="edgeStyle=orthogonalEdgeStyle;rounded=0;orthogonalLoop=1;jettySize=auto;html=1;exitX=0;exitY=1;exitDx=0;exitDy=0;entryX=0;entryY=0.5;entryDx=0;entryDy=0;endArrow=none;endFill=0;" parent="ycrEzUAM44DKubN_wqMR-1" source="YoWUuYcGSh0rUJ0fzz2e-83" target="YoWUuYcGSh0rUJ0fzz2e-100" edge="1">
          <mxGeometry relative="1" as="geometry" />
        </mxCell>
        <UserObject label="&lt;div&gt;Sous Projet&lt;br&gt;&lt;/div&gt;&lt;div&gt;&quot;Calendrier&quot;&lt;/div&gt;" placeholders="1" id="YoWUuYcGSh0rUJ0fzz2e-83">
          <mxCell style="label;whiteSpace=wrap;html=1;rounded=0;glass=0;align=left;treeFolding=1;treeMoving=1;" parent="ycrEzUAM44DKubN_wqMR-1" vertex="1">
            <mxGeometry x="1780" y="270" width="205" height="80" as="geometry" />
          </mxCell>
        </UserObject>
        <UserObject label="&amp;nbsp; EP" placeholders="1" id="YoWUuYcGSh0rUJ0fzz2e-85">
          <mxCell style="label;whiteSpace=wrap;html=1;rounded=0;glass=0;align=left;image=https://cdn4.iconfinder.com/data/icons/business-black-1/64/14-128.png;" parent="ycrEzUAM44DKubN_wqMR-1" vertex="1">
            <mxGeometry x="1567" y="378" width="180" height="60" as="geometry" />
          </mxCell>
        </UserObject>
        <mxCell id="YoWUuYcGSh0rUJ0fzz2e-87" style="edgeStyle=orthogonalEdgeStyle;rounded=0;orthogonalLoop=1;jettySize=auto;html=1;exitX=0;exitY=1;exitDx=0;exitDy=0;entryX=0;entryY=0.5;entryDx=0;entryDy=0;endArrow=none;endFill=0;" parent="ycrEzUAM44DKubN_wqMR-1" source="YoWUuYcGSh0rUJ0fzz2e-68" target="YoWUuYcGSh0rUJ0fzz2e-88" edge="1">
          <mxGeometry relative="1" as="geometry">
            <mxPoint x="2482" y="2220" as="sourcePoint" />
          </mxGeometry>
        </mxCell>
        <UserObject label="&lt;div&gt;Conception BDD&lt;/div&gt;&lt;div&gt;&quot;Config Serveur&quot;&lt;br&gt;&lt;/div&gt;" placeholders="1" id="YoWUuYcGSh0rUJ0fzz2e-88">
          <mxCell style="label;whiteSpace=wrap;html=1;rounded=0;glass=0;align=left;image=https://cdn1.iconfinder.com/data/icons/iconoir-vol-1/24/db-128.png;" parent="ycrEzUAM44DKubN_wqMR-1" vertex="1">
            <mxGeometry x="1567" y="448" width="180" height="60" as="geometry" />
          </mxCell>
        </UserObject>
        <mxCell id="YoWUuYcGSh0rUJ0fzz2e-89" style="edgeStyle=orthogonalEdgeStyle;rounded=0;orthogonalLoop=1;jettySize=auto;html=1;exitX=0;exitY=1;exitDx=0;exitDy=0;entryX=0;entryY=0.5;entryDx=0;entryDy=0;endArrow=none;endFill=0;" parent="ycrEzUAM44DKubN_wqMR-1" source="YoWUuYcGSh0rUJ0fzz2e-68" target="YoWUuYcGSh0rUJ0fzz2e-90" edge="1">
          <mxGeometry relative="1" as="geometry">
            <mxPoint x="2482" y="2220" as="sourcePoint" />
          </mxGeometry>
        </mxCell>
        <UserObject label="&lt;div&gt;Conception BDD&lt;/div&gt;&lt;div&gt;&quot;Config User&quot;&lt;br&gt;&lt;/div&gt;" placeholders="1" id="YoWUuYcGSh0rUJ0fzz2e-90">
          <mxCell style="label;whiteSpace=wrap;html=1;rounded=0;glass=0;align=left;image=https://cdn1.iconfinder.com/data/icons/iconoir-vol-1/24/db-128.png;" parent="ycrEzUAM44DKubN_wqMR-1" vertex="1">
            <mxGeometry x="1567" y="518" width="180" height="60" as="geometry" />
          </mxCell>
        </UserObject>
        <mxCell id="YoWUuYcGSh0rUJ0fzz2e-91" style="edgeStyle=orthogonalEdgeStyle;rounded=0;orthogonalLoop=1;jettySize=auto;html=1;exitX=0;exitY=1;exitDx=0;exitDy=0;entryX=0;entryY=0.5;entryDx=0;entryDy=0;endArrow=none;endFill=0;" parent="ycrEzUAM44DKubN_wqMR-1" source="YoWUuYcGSh0rUJ0fzz2e-68" target="YoWUuYcGSh0rUJ0fzz2e-92" edge="1">
          <mxGeometry relative="1" as="geometry">
            <mxPoint x="2482" y="2220" as="sourcePoint" />
          </mxGeometry>
        </mxCell>
        <UserObject label="NodeJS: Adaptation via la config choisit" placeholders="1" id="YoWUuYcGSh0rUJ0fzz2e-92">
          <mxCell style="label;whiteSpace=wrap;html=1;rounded=0;glass=0;align=left;image=https://cdn4.iconfinder.com/data/icons/developer-set-3/128/code-128.png;" parent="ycrEzUAM44DKubN_wqMR-1" vertex="1">
            <mxGeometry x="1567" y="588" width="180" height="60" as="geometry" />
          </mxCell>
        </UserObject>
        <mxCell id="YoWUuYcGSh0rUJ0fzz2e-93" style="edgeStyle=orthogonalEdgeStyle;rounded=0;orthogonalLoop=1;jettySize=auto;html=1;exitX=0;exitY=1;exitDx=0;exitDy=0;entryX=0;entryY=0.5;entryDx=0;entryDy=0;endArrow=none;endFill=0;" parent="ycrEzUAM44DKubN_wqMR-1" source="YoWUuYcGSh0rUJ0fzz2e-68" target="YoWUuYcGSh0rUJ0fzz2e-94" edge="1">
          <mxGeometry relative="1" as="geometry">
            <mxPoint x="2482" y="2220" as="sourcePoint" />
          </mxGeometry>
        </mxCell>
        <UserObject label="Interface: Adaptation via la config User" placeholders="1" id="YoWUuYcGSh0rUJ0fzz2e-94">
          <mxCell style="label;whiteSpace=wrap;html=1;rounded=0;glass=0;align=left;image=https://cdn4.iconfinder.com/data/icons/developer-set-3/128/code-128.png;" parent="ycrEzUAM44DKubN_wqMR-1" vertex="1">
            <mxGeometry x="1567" y="658" width="180" height="60" as="geometry" />
          </mxCell>
        </UserObject>
        <mxCell id="YoWUuYcGSh0rUJ0fzz2e-95" style="edgeStyle=orthogonalEdgeStyle;rounded=0;orthogonalLoop=1;jettySize=auto;html=1;exitX=0;exitY=1;exitDx=0;exitDy=0;entryX=0;entryY=0.5;entryDx=0;entryDy=0;endArrow=none;endFill=0;" parent="ycrEzUAM44DKubN_wqMR-1" source="YoWUuYcGSh0rUJ0fzz2e-68" target="YoWUuYcGSh0rUJ0fzz2e-96" edge="1">
          <mxGeometry relative="1" as="geometry">
            <mxPoint x="2482" y="2220" as="sourcePoint" />
          </mxGeometry>
        </mxCell>
        <UserObject label="Test" placeholders="1" id="YoWUuYcGSh0rUJ0fzz2e-96">
          <mxCell style="label;whiteSpace=wrap;html=1;rounded=0;glass=0;align=left;image=https://cdn2.iconfinder.com/data/icons/arrows-and-universal-actions-icon-set/256/ok_circle-128.png;" parent="ycrEzUAM44DKubN_wqMR-1" vertex="1">
            <mxGeometry x="1567" y="728" width="180" height="60" as="geometry" />
          </mxCell>
        </UserObject>
        <mxCell id="YoWUuYcGSh0rUJ0fzz2e-97" value="" style="endArrow=blockThin;endFill=1;fontSize=11;edgeStyle=elbowEdgeStyle;elbow=vertical;rounded=0;" parent="ycrEzUAM44DKubN_wqMR-1" source="ycrEzUAM44DKubN_wqMR-2" target="YoWUuYcGSh0rUJ0fzz2e-98" edge="1">
          <mxGeometry relative="1" as="geometry">
            <mxPoint x="1540" y="2070" as="sourcePoint" />
          </mxGeometry>
        </mxCell>
        <UserObject label="Conception Scripts MAJ" placeholders="1" id="YoWUuYcGSh0rUJ0fzz2e-98">
          <mxCell style="label;whiteSpace=wrap;html=1;rounded=0;glass=0;align=left;treeFolding=1;treeMoving=1;image=https://cdn4.iconfinder.com/data/icons/developer-set-3/128/code-128.png;" parent="ycrEzUAM44DKubN_wqMR-1" vertex="1">
            <mxGeometry x="2270" y="270" width="205" height="80" as="geometry" />
          </mxCell>
        </UserObject>
        <UserObject label="&amp;nbsp; EP" placeholders="1" id="YoWUuYcGSh0rUJ0fzz2e-100">
          <mxCell style="label;whiteSpace=wrap;html=1;rounded=0;glass=0;align=left;image=https://cdn4.iconfinder.com/data/icons/business-black-1/64/14-128.png;" parent="ycrEzUAM44DKubN_wqMR-1" vertex="1">
            <mxGeometry x="1805" y="378" width="180" height="60" as="geometry" />
          </mxCell>
        </UserObject>
        <mxCell id="YoWUuYcGSh0rUJ0fzz2e-102" style="edgeStyle=orthogonalEdgeStyle;rounded=0;orthogonalLoop=1;jettySize=auto;html=1;exitX=0;exitY=1;exitDx=0;exitDy=0;entryX=0;entryY=0.5;entryDx=0;entryDy=0;endArrow=none;endFill=0;" parent="ycrEzUAM44DKubN_wqMR-1" source="YoWUuYcGSh0rUJ0fzz2e-83" target="YoWUuYcGSh0rUJ0fzz2e-103" edge="1">
          <mxGeometry relative="1" as="geometry">
            <mxPoint x="2720" y="2220" as="sourcePoint" />
          </mxGeometry>
        </mxCell>
        <UserObject label="Conception BDD &quot;Calendrier&quot;" placeholders="1" id="YoWUuYcGSh0rUJ0fzz2e-103">
          <mxCell style="label;whiteSpace=wrap;html=1;rounded=0;glass=0;align=left;image=https://cdn1.iconfinder.com/data/icons/iconoir-vol-1/24/db-128.png;" parent="ycrEzUAM44DKubN_wqMR-1" vertex="1">
            <mxGeometry x="1805" y="448" width="180" height="60" as="geometry" />
          </mxCell>
        </UserObject>
        <mxCell id="YoWUuYcGSh0rUJ0fzz2e-104" style="edgeStyle=orthogonalEdgeStyle;rounded=0;orthogonalLoop=1;jettySize=auto;html=1;exitX=0;exitY=1;exitDx=0;exitDy=0;entryX=0;entryY=0.5;entryDx=0;entryDy=0;endArrow=none;endFill=0;" parent="ycrEzUAM44DKubN_wqMR-1" source="YoWUuYcGSh0rUJ0fzz2e-83" target="YoWUuYcGSh0rUJ0fzz2e-105" edge="1">
          <mxGeometry relative="1" as="geometry">
            <mxPoint x="2720" y="2220" as="sourcePoint" />
          </mxGeometry>
        </mxCell>
        <UserObject label="Mise en relation des scripts de patch et du calendrier" placeholders="1" id="YoWUuYcGSh0rUJ0fzz2e-105">
          <mxCell style="label;whiteSpace=wrap;html=1;rounded=0;glass=0;align=left;image=https://cdn4.iconfinder.com/data/icons/developer-set-3/128/code-128.png;" parent="ycrEzUAM44DKubN_wqMR-1" vertex="1">
            <mxGeometry x="1805" y="518" width="180" height="60" as="geometry" />
          </mxCell>
        </UserObject>
        <mxCell id="YoWUuYcGSh0rUJ0fzz2e-106" style="edgeStyle=orthogonalEdgeStyle;rounded=0;orthogonalLoop=1;jettySize=auto;html=1;exitX=0;exitY=1;exitDx=0;exitDy=0;entryX=0;entryY=0.5;entryDx=0;entryDy=0;endArrow=none;endFill=0;" parent="ycrEzUAM44DKubN_wqMR-1" source="YoWUuYcGSh0rUJ0fzz2e-83" target="YoWUuYcGSh0rUJ0fzz2e-107" edge="1">
          <mxGeometry relative="1" as="geometry">
            <mxPoint x="2720" y="2220" as="sourcePoint" />
          </mxGeometry>
        </mxCell>
        <UserObject label="Gestion du calendrier côté serveur" placeholders="1" id="YoWUuYcGSh0rUJ0fzz2e-107">
          <mxCell style="label;whiteSpace=wrap;html=1;rounded=0;glass=0;align=left;image=https://cdn4.iconfinder.com/data/icons/developer-set-3/128/code-128.png;" parent="ycrEzUAM44DKubN_wqMR-1" vertex="1">
            <mxGeometry x="1805" y="588" width="180" height="60" as="geometry" />
          </mxCell>
        </UserObject>
        <mxCell id="YoWUuYcGSh0rUJ0fzz2e-108" style="edgeStyle=orthogonalEdgeStyle;rounded=0;orthogonalLoop=1;jettySize=auto;html=1;exitX=0;exitY=1;exitDx=0;exitDy=0;entryX=0;entryY=0.5;entryDx=0;entryDy=0;endArrow=none;endFill=0;" parent="ycrEzUAM44DKubN_wqMR-1" source="YoWUuYcGSh0rUJ0fzz2e-83" target="YoWUuYcGSh0rUJ0fzz2e-109" edge="1">
          <mxGeometry relative="1" as="geometry">
            <mxPoint x="2720" y="2220" as="sourcePoint" />
          </mxGeometry>
        </mxCell>
        <UserObject label="Conception calendrier côté Angular" placeholders="1" id="YoWUuYcGSh0rUJ0fzz2e-109">
          <mxCell style="label;whiteSpace=wrap;html=1;rounded=0;glass=0;align=left;image=https://cdn4.iconfinder.com/data/icons/developer-set-3/128/code-128.png;" parent="ycrEzUAM44DKubN_wqMR-1" vertex="1">
            <mxGeometry x="1805" y="658" width="180" height="60" as="geometry" />
          </mxCell>
        </UserObject>
        <mxCell id="YoWUuYcGSh0rUJ0fzz2e-110" style="edgeStyle=orthogonalEdgeStyle;rounded=0;orthogonalLoop=1;jettySize=auto;html=1;exitX=0;exitY=1;exitDx=0;exitDy=0;entryX=0;entryY=0.5;entryDx=0;entryDy=0;endArrow=none;endFill=0;" parent="ycrEzUAM44DKubN_wqMR-1" source="YoWUuYcGSh0rUJ0fzz2e-83" target="YoWUuYcGSh0rUJ0fzz2e-111" edge="1">
          <mxGeometry relative="1" as="geometry">
            <mxPoint x="2720" y="2220" as="sourcePoint" />
          </mxGeometry>
        </mxCell>
        <UserObject label="Test" placeholders="1" id="YoWUuYcGSh0rUJ0fzz2e-111">
          <mxCell style="label;whiteSpace=wrap;html=1;rounded=0;glass=0;align=left;image=https://cdn2.iconfinder.com/data/icons/arrows-and-universal-actions-icon-set/256/ok_circle-128.png;" parent="ycrEzUAM44DKubN_wqMR-1" vertex="1">
            <mxGeometry x="1805" y="728" width="180" height="60" as="geometry" />
          </mxCell>
        </UserObject>
        <mxCell id="YoWUuYcGSh0rUJ0fzz2e-112" value="" style="endArrow=blockThin;endFill=1;fontSize=11;edgeStyle=elbowEdgeStyle;elbow=vertical;rounded=0;" parent="ycrEzUAM44DKubN_wqMR-1" source="ycrEzUAM44DKubN_wqMR-2" target="YoWUuYcGSh0rUJ0fzz2e-113" edge="1">
          <mxGeometry relative="1" as="geometry">
            <mxPoint x="1540" y="2070" as="sourcePoint" />
          </mxGeometry>
        </mxCell>
        <UserObject label="Integration / Mise en PROD" placeholders="1" id="YoWUuYcGSh0rUJ0fzz2e-113">
          <mxCell style="label;whiteSpace=wrap;html=1;rounded=0;glass=0;align=left;treeFolding=1;treeMoving=1;" parent="ycrEzUAM44DKubN_wqMR-1" vertex="1">
            <mxGeometry x="2510" y="270" width="205" height="80" as="geometry" />
          </mxCell>
        </UserObject>
        <UserObject label="&amp;nbsp;&amp;nbsp;&amp;nbsp;&amp;nbsp; Sécurisation" placeholders="1" id="KqSIaCYbuykyi0vnznxd-3">
          <mxCell style="label;whiteSpace=wrap;html=1;rounded=0;glass=0;align=left;treeFolding=1;treeMoving=1;" vertex="1" parent="ycrEzUAM44DKubN_wqMR-1">
            <mxGeometry x="2025" y="270" width="205" height="80" as="geometry" />
          </mxCell>
        </UserObject>
        <UserObject label="&amp;nbsp; EP" placeholders="1" id="KqSIaCYbuykyi0vnznxd-4">
          <mxCell style="label;whiteSpace=wrap;html=1;rounded=0;glass=0;align=left;image=https://cdn4.iconfinder.com/data/icons/business-black-1/64/14-128.png;" vertex="1" parent="ycrEzUAM44DKubN_wqMR-1">
            <mxGeometry x="2050" y="378" width="180" height="60" as="geometry" />
          </mxCell>
        </UserObject>
        <mxCell id="KqSIaCYbuykyi0vnznxd-2" style="edgeStyle=orthogonalEdgeStyle;rounded=0;orthogonalLoop=1;jettySize=auto;html=1;exitX=0;exitY=1;exitDx=0;exitDy=0;entryX=0;entryY=0.5;entryDx=0;entryDy=0;endArrow=none;endFill=0;" edge="1" parent="ycrEzUAM44DKubN_wqMR-1" source="KqSIaCYbuykyi0vnznxd-3" target="KqSIaCYbuykyi0vnznxd-4">
          <mxGeometry relative="1" as="geometry" />
        </mxCell>
        <mxCell id="KqSIaCYbuykyi0vnznxd-5" style="edgeStyle=orthogonalEdgeStyle;rounded=0;orthogonalLoop=1;jettySize=auto;html=1;exitX=0;exitY=1;exitDx=0;exitDy=0;entryX=0;entryY=0.5;entryDx=0;entryDy=0;endArrow=none;endFill=0;" edge="1" parent="ycrEzUAM44DKubN_wqMR-1" source="KqSIaCYbuykyi0vnznxd-3" target="KqSIaCYbuykyi0vnznxd-6">
          <mxGeometry relative="1" as="geometry">
            <mxPoint x="1775" y="310" as="sourcePoint" />
          </mxGeometry>
        </mxCell>
        <UserObject label="Generation certificat SSL" placeholders="1" id="KqSIaCYbuykyi0vnznxd-6">
          <mxCell style="label;whiteSpace=wrap;html=1;rounded=0;glass=0;align=left;" vertex="1" parent="ycrEzUAM44DKubN_wqMR-1">
            <mxGeometry x="2050" y="448" width="180" height="60" as="geometry" />
          </mxCell>
        </UserObject>
        <mxCell id="KqSIaCYbuykyi0vnznxd-7" style="edgeStyle=orthogonalEdgeStyle;rounded=0;orthogonalLoop=1;jettySize=auto;html=1;exitX=0;exitY=1;exitDx=0;exitDy=0;entryX=0;entryY=0.5;entryDx=0;entryDy=0;endArrow=none;endFill=0;" edge="1" parent="ycrEzUAM44DKubN_wqMR-1" source="KqSIaCYbuykyi0vnznxd-3" target="KqSIaCYbuykyi0vnznxd-8">
          <mxGeometry relative="1" as="geometry">
            <mxPoint x="1775" y="310" as="sourcePoint" />
          </mxGeometry>
        </mxCell>
        <UserObject label="Integration du certificat" placeholders="1" id="KqSIaCYbuykyi0vnznxd-8">
          <mxCell style="label;whiteSpace=wrap;html=1;rounded=0;glass=0;align=left;image=https://cdn4.iconfinder.com/data/icons/developer-set-3/128/code-128.png;" vertex="1" parent="ycrEzUAM44DKubN_wqMR-1">
            <mxGeometry x="2050" y="518" width="180" height="60" as="geometry" />
          </mxCell>
        </UserObject>
        <mxCell id="KqSIaCYbuykyi0vnznxd-9" style="edgeStyle=orthogonalEdgeStyle;rounded=0;orthogonalLoop=1;jettySize=auto;html=1;exitX=0;exitY=1;exitDx=0;exitDy=0;entryX=0;entryY=0.5;entryDx=0;entryDy=0;endArrow=none;endFill=0;" edge="1" parent="ycrEzUAM44DKubN_wqMR-1" source="KqSIaCYbuykyi0vnznxd-3" target="KqSIaCYbuykyi0vnznxd-10">
          <mxGeometry relative="1" as="geometry">
            <mxPoint x="1775" y="310" as="sourcePoint" />
          </mxGeometry>
        </mxCell>
        <UserObject label="Gestion des droits " placeholders="1" id="KqSIaCYbuykyi0vnznxd-10">
          <mxCell style="label;whiteSpace=wrap;html=1;rounded=0;glass=0;align=left;image=https://cdn4.iconfinder.com/data/icons/developer-set-3/128/code-128.png;" vertex="1" parent="ycrEzUAM44DKubN_wqMR-1">
            <mxGeometry x="2050" y="588" width="180" height="60" as="geometry" />
          </mxCell>
        </UserObject>
        <mxCell id="KqSIaCYbuykyi0vnznxd-11" style="edgeStyle=orthogonalEdgeStyle;rounded=0;orthogonalLoop=1;jettySize=auto;html=1;exitX=0;exitY=1;exitDx=0;exitDy=0;entryX=0;entryY=0.5;entryDx=0;entryDy=0;endArrow=none;endFill=0;" edge="1" parent="ycrEzUAM44DKubN_wqMR-1" source="KqSIaCYbuykyi0vnznxd-3" target="KqSIaCYbuykyi0vnznxd-12">
          <mxGeometry relative="1" as="geometry">
            <mxPoint x="1775" y="310" as="sourcePoint" />
          </mxGeometry>
        </mxCell>
        <UserObject label="Cryptage de données sensible dans la base" placeholders="1" id="KqSIaCYbuykyi0vnznxd-12">
          <mxCell style="label;whiteSpace=wrap;html=1;rounded=0;glass=0;align=left;" vertex="1" parent="ycrEzUAM44DKubN_wqMR-1">
            <mxGeometry x="2050" y="658" width="180" height="60" as="geometry" />
          </mxCell>
        </UserObject>
        <mxCell id="KqSIaCYbuykyi0vnznxd-13" style="edgeStyle=orthogonalEdgeStyle;rounded=0;orthogonalLoop=1;jettySize=auto;html=1;exitX=0;exitY=1;exitDx=0;exitDy=0;entryX=0;entryY=0.5;entryDx=0;entryDy=0;endArrow=none;endFill=0;" edge="1" parent="ycrEzUAM44DKubN_wqMR-1" source="KqSIaCYbuykyi0vnznxd-3" target="KqSIaCYbuykyi0vnznxd-14">
          <mxGeometry relative="1" as="geometry">
            <mxPoint x="1775" y="310" as="sourcePoint" />
          </mxGeometry>
        </mxCell>
        <UserObject label="Test" placeholders="1" id="KqSIaCYbuykyi0vnznxd-14">
          <mxCell style="label;whiteSpace=wrap;html=1;rounded=0;glass=0;align=left;image=https://cdn2.iconfinder.com/data/icons/arrows-and-universal-actions-icon-set/256/ok_circle-128.png;" vertex="1" parent="ycrEzUAM44DKubN_wqMR-1">
            <mxGeometry x="2050" y="728" width="180" height="60" as="geometry" />
          </mxCell>
        </UserObject>
        <mxCell id="YoWUuYcGSh0rUJ0fzz2e-114" value="" style="shape=image;html=1;verticalAlign=top;verticalLabelPosition=bottom;labelBackgroundColor=#ffffff;imageAspect=0;aspect=fixed;image=https://cdn4.iconfinder.com/data/icons/business-black-1/64/14-128.png" parent="1" vertex="1">
          <mxGeometry x="1670" y="3350" width="128" height="128" as="geometry" />
        </mxCell>
        <mxCell id="YoWUuYcGSh0rUJ0fzz2e-115" value="" style="shape=image;html=1;verticalAlign=top;verticalLabelPosition=bottom;labelBackgroundColor=#ffffff;imageAspect=0;aspect=fixed;image=https://cdn4.iconfinder.com/data/icons/developer-set-3/128/code-128.png" parent="1" vertex="1">
          <mxGeometry x="1870" y="3350" width="128" height="128" as="geometry" />
        </mxCell>
        <mxCell id="YoWUuYcGSh0rUJ0fzz2e-116" value="" style="shape=image;html=1;verticalAlign=top;verticalLabelPosition=bottom;labelBackgroundColor=#ffffff;imageAspect=0;aspect=fixed;image=https://cdn1.iconfinder.com/data/icons/iconoir-vol-1/24/db-128.png" parent="1" vertex="1">
          <mxGeometry x="2080" y="3360" width="128" height="128" as="geometry" />
        </mxCell>
        <mxCell id="YoWUuYcGSh0rUJ0fzz2e-117" value="" style="shape=image;html=1;verticalAlign=top;verticalLabelPosition=bottom;labelBackgroundColor=#ffffff;imageAspect=0;aspect=fixed;image=https://cdn2.iconfinder.com/data/icons/arrows-and-universal-actions-icon-set/256/ok_circle-128.png" parent="1" vertex="1">
          <mxGeometry x="2280" y="3350" width="128" height="128" as="geometry" />
        </mxCell>
      </root>
    </mxGraphModel>
  </diagram>
</mxfile>
